<?xml version="1.0" encoding="iso-8859-1"?>
<!-- Generator: Adobe Illustrator 18.0.0, SVG Export Plug-In . SVG Version: 6.00 Build 0)  -->
<!DOCTYPE svg PUBLIC "-//W3C//DTD SVG 1.1//EN" "http://www.w3.org/Graphics/SVG/1.1/DTD/svg11.dtd">
<svg version="1.1" id="Layer_1" xmlns="http://www.w3.org/2000/svg" xmlns:xlink="http://www.w3.org/1999/xlink" x="0px" y="0px"
	 viewBox="0 0 271 160" style="enable-background:new 0 0 271 160;" xml:space="preserve">
<g>
	<path style="fill:#F9D5C2;" d="M85.359,10.432c0-0.392,0.327-0.713,0.726-0.713h173.926c0.399,0,0.726,0.321,0.726,0.713v95.953
		c0,0.392-0.326,0.713-0.726,0.713H110.326c-1.515,0.73-3.205,1.151-4.996,1.151H83.384c-1.002,0-1.99-0.147-2.947-0.4v18.519
		H265.66V4.845H80.437v71.828l4.923,5.23V10.432z"/>
	<path style="fill:#FF833D;" d="M266.813,0H79.284c-2.031,0-3.692,1.631-3.692,3.625v67.9l4.845,5.147V4.845H265.66v121.521H80.437
		v-18.519c-1.794-0.476-3.461-1.375-4.845-2.635v22.374c0,1.994,1.661,3.625,3.692,3.625h74.421l-2.08,18.327
		c-0.229,2.02-1.154,3.872-2.591,5.187l-3.456,3.163c-0.354,0.325-0.484,0.854-0.325,1.326c0.16,0.472,0.575,0.786,1.04,0.786
		c6.593,0,46.789,0,53.51,0c0.465,0,0.88-0.314,1.04-0.786s0.03-1.002-0.325-1.326l-3.456-3.163
		c-1.437-1.315-2.362-3.167-2.591-5.187l-2.079-18.327h74.421c2.03,0,3.691-1.631,3.691-3.625V3.625
		C270.505,1.631,268.843,0,266.813,0z M191.295,155.155h-36.493c0.87-1.537,1.432-3.26,1.637-5.071l1.617-14.252h29.985
		l1.617,14.253C189.864,151.895,190.426,153.618,191.295,155.155z"/>
	<path style="fill:#F9D5C2;" d="M213.91,56.955h27.309c-1.174-14.523-12.786-26.136-27.309-27.309V56.955z"/>
	<path style="fill:#F9D5C2;" d="M209.065,61.799V29.646c-15.323,1.238-27.416,14.095-27.416,29.731
		c0,16.453,13.385,29.838,29.838,29.838c15.637,0,28.494-12.093,29.732-27.416H209.065z"/>
	<path style="fill:#F9D5C2;" d="M255.892,14.564H90.204v70.549h14.3l42.233-42.227c1.149-1.148,2.701-1.755,4.489-1.755
		c2.578,0,5.316,1.258,7.514,3.453c1.709,1.709,2.877,3.798,3.29,5.882c0.475,2.402-0.105,4.632-1.592,6.118l-44.364,44.351
		c-0.18,0.453-0.381,0.895-0.615,1.319h140.432V14.564z M149.502,92.717h-4.315V80.139h4.315V92.717z M158.131,92.716h-4.315V70.451
		h4.315V92.716z M166.76,92.715h-4.315V60.464h4.315V92.715z M211.488,94.06c-19.155,0-34.683-15.528-34.683-34.683
		c0-19.155,15.528-34.683,34.683-34.683c19.154,0,34.683,15.528,34.683,34.683C246.171,78.532,230.642,94.06,211.488,94.06z"/>
	<path style="fill:#FF833D;" d="M260.737,106.385V10.432c0-0.392-0.326-0.713-0.726-0.713H86.085c-0.399,0-0.726,0.321-0.726,0.713
		v71.471l3.021,3.21h1.823V14.564h165.688v87.689H115.46c-1.161,2.103-2.963,3.798-5.134,4.845h149.685
		C260.41,107.097,260.737,106.776,260.737,106.385z"/>
	<path style="fill:#F9D5C2;" d="M188.041,135.832h-29.985l-1.617,14.252c-0.205,1.81-0.767,3.533-1.637,5.071h36.493
		c-0.869-1.537-1.431-3.26-1.637-5.07L188.041,135.832z"/>
	<path style="fill:#A5DBFF;" d="M22.079,35.222c0,8.167,6.644,14.811,14.811,14.811s14.811-6.644,14.811-14.811
		S45.057,20.411,36.89,20.411S22.079,27.055,22.079,35.222z"/>
	<path style="fill:#305CB3;" d="M36.89,54.878c10.838,0,19.656-8.817,19.656-19.656S47.728,15.566,36.89,15.566
		s-19.656,8.817-19.656,19.656S26.052,54.878,36.89,54.878z M51.701,35.222c0,8.167-6.644,14.811-14.811,14.811
		s-14.811-6.644-14.811-14.811s6.644-14.811,14.811-14.811S51.701,27.055,51.701,35.222z"/>
	<path style="fill:#FF833D;" d="M211.488,24.694c-19.155,0-34.683,15.528-34.683,34.683c0,19.155,15.528,34.683,34.683,34.683
		c19.154,0,34.683-15.528,34.683-34.683C246.171,40.222,230.642,24.694,211.488,24.694z M241.219,56.955H213.91V29.646
		C228.433,30.819,240.046,42.431,241.219,56.955z M211.488,89.215c-16.453,0-29.838-13.385-29.838-29.838
		c0-15.637,12.093-28.493,27.416-29.731v32.154h32.154C239.981,77.122,227.124,89.215,211.488,89.215z"/>
	<rect x="145.187" y="80.139" style="fill:#FF833D;" width="4.315" height="12.578"/>
	<rect x="153.816" y="70.451" style="fill:#FF833D;" width="4.315" height="22.265"/>
	<rect x="162.446" y="60.464" style="fill:#FF833D;" width="4.315" height="32.251"/>
	<path style="fill:#A5DBFF;" d="M116.485,93.674l40.529-40.517c0.461-0.46,0.338-1.378,0.264-1.751
		c-0.224-1.136-0.94-2.374-1.962-3.396c-1.503-1.5-3.098-2.035-4.09-2.035c-0.332,0-0.785,0.059-1.064,0.337l-39.918,39.912
		C113.283,87.659,115.594,90.373,116.485,93.674z"/>
	<path style="fill:#A5DBFF;" d="M78.491,101.29c1.265,1.342,3.05,2.113,4.893,2.113h21.946c3.706,0,6.721-3.015,6.721-6.722
		c0-3.708-3.015-6.725-6.721-6.725H87.334c-0.668,0-1.306-0.276-1.764-0.762L64.502,66.81c-1.259-1.336-2.998-2.072-4.894-2.072
		c-0.242,0-0.48-0.036-0.707-0.106H20.155c-8.169,0-14.815,6.643-14.815,14.808v46.925h56.527V89.729
		c0-0.993,0.607-1.886,1.53-2.252c0.926-0.366,1.977-0.13,2.657,0.592L78.491,101.29z"/>
	<path style="fill:#305CB3;" d="M80.437,107.848c0.957,0.254,1.945,0.4,2.947,0.4h21.946c1.791,0,3.481-0.421,4.996-1.151
		c2.172-1.046,3.973-2.741,5.134-4.845c0.234-0.423,0.435-0.865,0.615-1.319l44.364-44.351c1.487-1.487,2.067-3.717,1.592-6.118
		c-0.413-2.084-1.581-4.172-3.29-5.882c-2.198-2.194-4.936-3.453-7.514-3.453c-1.788,0-3.34,0.607-4.489,1.755l-42.233,42.227h-14.3
		h-1.823l-3.021-3.21l-4.923-5.23l-4.845-5.147l-7.564-8.036c-2.007-2.129-4.694-3.38-7.633-3.57
		c-0.247-0.085-0.512-0.131-0.787-0.131H20.155c-10.84,0-19.66,8.816-19.66,19.653v49.348c0,1.338,1.084,2.422,2.422,2.422h61.371
		c1.338,0,2.422-1.084,2.422-2.422V95.84l8.252,8.772c0.2,0.212,0.415,0.406,0.629,0.601
		C76.976,106.473,78.643,107.371,80.437,107.848z M63.397,87.477c-0.924,0.366-1.53,1.259-1.53,2.252v36.637H5.34V79.441
		c0-8.165,6.646-14.808,14.815-14.808h38.746c0.227,0.07,0.465,0.106,0.707,0.106c1.896,0,3.634,0.736,4.894,2.072L85.57,89.195
		c0.458,0.486,1.096,0.762,1.764,0.762h17.995c3.706,0,6.721,3.017,6.721,6.725c0,3.706-3.015,6.722-6.721,6.722H83.384
		c-1.843,0-3.628-0.771-4.893-2.113L66.054,88.07C65.373,87.348,64.323,87.112,63.397,87.477z M151.226,45.975
		c0.992,0,2.587,0.535,4.09,2.035c1.022,1.022,1.737,2.26,1.962,3.396c0.074,0.373,0.197,1.291-0.264,1.751l-40.529,40.517
		c-0.89-3.3-3.202-6.014-6.24-7.449l39.918-39.912C150.441,46.034,150.894,45.975,151.226,45.975z"/>
</g>
</svg>
