<?xml version="1.0" encoding="iso-8859-1"?>
<!-- Generator: Adobe Illustrator 18.0.0, SVG Export Plug-In . SVG Version: 6.00 Build 0)  -->
<!DOCTYPE svg PUBLIC "-//W3C//DTD SVG 1.1//EN" "http://www.w3.org/Graphics/SVG/1.1/DTD/svg11.dtd">
<svg version="1.1" id="Layer_1" xmlns="http://www.w3.org/2000/svg" xmlns:xlink="http://www.w3.org/1999/xlink" x="0px" y="0px"
	 viewBox="0 0 235 160" style="enable-background:new 0 0 235 160;" xml:space="preserve">
<g>
	<path style="fill:#F9D5C2;" d="M149.943,39.661c3.321-2.461,6.936-4.546,10.786-6.188l-10.786-2.719V39.661z"/>
	<path style="fill:#F9D5C2;" d="M49.876,30.753L5.056,42.057v111.638l44.82-11.924V30.753z M34.826,57.565
		c1.297,1.496,2.286,3.124,2.94,4.839l-4.529,1.727c-0.458-1.2-1.136-2.309-2.073-3.389L34.826,57.565z M30.161,80.897
		c0.789-1.765,1.353-3.105,1.829-4.347l4.525,1.736c-0.508,1.326-1.104,2.741-1.929,4.588L30.161,80.897z M32.596,87.291
		c-0.782,1.76-1.344,3.101-1.821,4.353l-4.529-1.729c0.51-1.335,1.103-2.752,1.922-4.593L32.596,87.291z M26.333,51.295
		c1.649,0.84,3.149,1.738,4.459,2.669l-2.81,3.949c-1.116-0.794-2.411-1.568-3.849-2.3L26.333,51.295z M24.678,94.811l4.705,1.164
		c-0.384,1.552-0.587,2.947-0.62,4.265l-4.845-0.121C23.96,98.444,24.209,96.708,24.678,94.811z M27.225,110.719
		c-1.169-1.533-2.041-3.233-2.591-5.052l4.638-1.403c0.382,1.263,0.989,2.445,1.805,3.515L27.225,110.719z M35.923,117.145
		c-1.73-0.741-3.306-1.614-4.683-2.594l2.81-3.949c1.096,0.78,2.368,1.482,3.782,2.088L35.923,117.145z M38.773,68.058
		c0,1.67-0.225,3.409-0.689,5.318l-4.71-1.145c0.372-1.529,0.553-2.894,0.553-4.173l4.847-0.046V68.058z M40.867,118.806
		l1.202-4.695c1.412,0.362,2.918,0.65,4.478,0.86l-0.644,4.803C44.158,119.541,42.463,119.215,40.867,118.806z"/>
	<path style="fill:#F9D5C2;" d="M97.487,153.66V42.038L54.723,30.786v111.005L97.487,153.66z M91.339,91.505l3.521,3.33
		c-1.111,1.176-2.237,2.354-3.378,3.526l-3.474-3.379C89.135,93.826,90.243,92.664,91.339,91.505z M84.629,98.379l3.391,3.465
		c-1.242,1.215-2.412,2.324-3.577,3.392l-3.273-3.574C82.294,100.63,83.426,99.557,84.629,98.379z M77.605,104.79l3.116,3.713
		c-1.31,1.099-2.618,2.142-3.89,3.1l-2.917-3.87C75.118,106.826,76.36,105.835,77.605,104.79z M69.053,111.113
		c0.345-0.22,0.687-0.441,1.028-0.666l2.673,4.042c-0.364,0.241-0.731,0.479-1.099,0.714c-1.037,0.659-2.233,1.272-3.556,1.822
		l-1.861-4.476C67.305,112.106,68.251,111.622,69.053,111.113z M63.167,118.646c-1.587,0.406-3.271,0.74-5.001,0.994l-0.702-4.796
		c1.564-0.229,3.079-0.53,4.505-0.894L63.167,118.646z"/>
	<path style="fill:#F9D5C2;" d="M102.334,42.037V153.66l42.762-11.868v-20.706c-10.278-9.699-16.703-23.438-16.703-38.685
		c0-15.249,6.422-28.991,16.703-38.686V30.786L102.334,42.037z M108.714,83.349l-3.451-3.402c1.257-1.276,2.406-2.406,3.513-3.457
		l3.336,3.516C111.044,81.019,109.933,82.112,108.714,83.349z M115.615,76.835l-3.152-3.682c1.334-1.142,2.655-2.195,3.928-3.132
		l2.872,3.904C118.085,74.79,116.858,75.77,115.615,76.835z M123.089,71.385l-2.457-4.176c1.535-0.904,3.085-1.687,4.607-2.328
		l1.882,4.466C125.796,69.905,124.44,70.591,123.089,71.385z"/>
	<path style="fill:#F9D5C2;" d="M194.781,153.695v-19.75c-4.219,1.077-8.639,1.651-13.193,1.651
		c-11.855,0-22.801-3.882-31.646-10.439v16.612L194.781,153.695z"/>
	<path style="fill:#FF833D;" d="M194.781,133.945v19.75l-44.839-11.925v-16.612c-1.698-1.259-3.312-2.624-4.847-4.072v20.706
		l-42.762,11.868V42.037l42.762-11.25v12.929c1.532-1.445,3.151-2.798,4.847-4.055v-8.908l10.786,2.719
		c2.758-1.177,5.635-2.127,8.609-2.829l-21.832-5.504L99.909,37.663L52.313,25.139L0.21,38.281V160l52.078-13.855l47.623,13.218
		l47.624-13.218L199.628,160v-27.547C198.045,133.024,196.43,133.525,194.781,133.945z M147.519,143.634L147.519,143.634
		L147.519,143.634z M99.911,40.169L99.911,40.169L99.911,40.169z M97.487,42.038V153.66l-42.765-11.869V30.786L97.487,42.038z
		 M5.056,42.057l44.82-11.304v111.018l-44.82,11.924V42.057z M52.299,143.634L52.299,143.634L52.299,143.634z M147.519,27.642
		L147.519,27.642L147.519,27.642z M52.299,27.642L52.299,27.642L52.299,27.642z"/>
	
		<line style="fill:none;stroke:#F9D5C2;stroke-width:0;stroke-linecap:round;stroke-linejoin:round;" x1="52.299" y1="143.634" x2="52.299" y2="143.634"/>
	
		<line style="fill:none;stroke:#F9D5C2;stroke-width:0;stroke-linecap:round;stroke-linejoin:round;" x1="52.299" y1="27.642" x2="52.299" y2="27.642"/>
	
		<line style="fill:none;stroke:#F9D5C2;stroke-width:0;stroke-linecap:round;stroke-linejoin:round;" x1="99.911" y1="40.169" x2="99.911" y2="40.169"/>
	
		<line style="fill:none;stroke:#F9D5C2;stroke-width:0;stroke-linecap:round;stroke-linejoin:round;" x1="147.519" y1="143.634" x2="147.519" y2="143.634"/>
	
		<line style="fill:none;stroke:#F9D5C2;stroke-width:0;stroke-linecap:round;stroke-linejoin:round;" x1="147.519" y1="27.642" x2="147.519" y2="27.642"/>
	<path style="fill:#FF833D;" d="M42.07,114.111l-1.202,4.695c1.596,0.409,3.29,0.735,5.036,0.967l0.644-4.803
		C44.988,114.761,43.482,114.472,42.07,114.111z"/>
	<path style="fill:#FF833D;" d="M58.166,119.64c1.73-0.254,3.414-0.588,5.001-0.994l-1.198-4.695
		c-1.426,0.364-2.941,0.665-4.505,0.894L58.166,119.64z"/>
	<path style="fill:#FF833D;" d="M31.24,114.551c1.377,0.98,2.953,1.853,4.683,2.594l1.908-4.455
		c-1.413-0.606-2.686-1.308-3.782-2.088L31.24,114.551z"/>
	<path style="fill:#FF833D;" d="M71.655,115.202c0.368-0.235,0.736-0.472,1.099-0.714l-2.673-4.042
		c-0.341,0.225-0.683,0.447-1.028,0.666c-0.802,0.509-1.748,0.993-2.814,1.436l1.861,4.476
		C69.422,116.475,70.618,115.861,71.655,115.202z"/>
	<path style="fill:#FF833D;" d="M80.721,108.503l-3.116-3.713c-1.245,1.045-2.487,2.035-3.691,2.943l2.917,3.87
		C78.103,110.645,79.411,109.602,80.721,108.503z"/>
	<path style="fill:#FF833D;" d="M24.634,105.667c0.55,1.819,1.422,3.52,2.591,5.052l3.853-2.94c-0.816-1.07-1.423-2.252-1.805-3.515
		L24.634,105.667z"/>
	<path style="fill:#FF833D;" d="M88.02,101.844l-3.391-3.465c-1.203,1.178-2.334,2.251-3.46,3.282l3.273,3.574
		C85.608,104.168,86.778,103.058,88.02,101.844z"/>
	<path style="fill:#FF833D;" d="M29.383,95.975l-4.705-1.164c-0.47,1.897-0.718,3.633-0.76,5.309l4.845,0.121
		C28.796,98.922,28.999,97.527,29.383,95.975z"/>
	<path style="fill:#FF833D;" d="M94.861,94.836l-3.521-3.33c-1.096,1.159-2.205,2.32-3.33,3.477l3.474,3.379
		C92.624,97.19,93.749,96.011,94.861,94.836z"/>
	<path style="fill:#FF833D;" d="M26.246,89.915l4.529,1.729c0.477-1.251,1.039-2.593,1.821-4.353l-4.428-1.969
		C27.349,87.163,26.756,88.58,26.246,89.915z"/>
	<path style="fill:#FF833D;" d="M105.262,79.947l3.451,3.402c1.219-1.237,2.331-2.331,3.397-3.343l-3.336-3.516
		C107.669,77.541,106.519,78.671,105.262,79.947z"/>
	<path style="fill:#FF833D;" d="M36.515,78.286L31.99,76.55c-0.476,1.242-1.04,2.582-1.829,4.347l4.425,1.977
		C35.411,81.027,36.006,79.612,36.515,78.286z"/>
	<path style="fill:#FF833D;" d="M112.462,73.152l3.152,3.682c1.244-1.065,2.471-2.045,3.648-2.911l-2.872-3.904
		C115.118,70.957,113.796,72.011,112.462,73.152z"/>
	<path style="fill:#FF833D;" d="M33.374,72.23l4.71,1.145c0.464-1.909,0.689-3.648,0.689-5.318v-0.046l-4.847,0.046
		C33.927,69.337,33.746,70.702,33.374,72.23z"/>
	<path style="fill:#FF833D;" d="M120.632,67.209l2.457,4.176c1.351-0.794,2.707-1.481,4.032-2.038l-1.882-4.466
		C123.717,65.522,122.167,66.305,120.632,67.209z"/>
	<path style="fill:#FF833D;" d="M37.766,62.404c-0.654-1.715-1.643-3.343-2.94-4.839l-3.662,3.177
		c0.937,1.08,1.615,2.189,2.073,3.389L37.766,62.404z"/>
	<path style="fill:#FF833D;" d="M30.791,53.964c-1.309-0.931-2.81-1.83-4.459-2.669l-2.2,4.318c1.438,0.733,2.733,1.506,3.849,2.3
		L30.791,53.964z"/>
	<path style="fill:#A5DBFF;" d="M179.207,23.996v5.27c0.79-0.035,1.582-0.06,2.381-0.06c0.798,0,1.591,0.025,2.381,0.06v-5.27
		c-0.77,0.154-1.566,0.238-2.381,0.238S179.978,24.15,179.207,23.996z"/>
	<path style="fill:#A5DBFF;" d="M181.588,34.053c-26.66,0-48.349,21.689-48.349,48.349c0,26.659,21.689,48.349,48.349,48.349
		s48.349-21.689,48.349-48.349C229.937,55.742,208.248,34.053,181.588,34.053z M181.588,124.957
		c-23.503,0-42.556-19.053-42.556-42.556c0-23.503,19.053-42.556,42.556-42.556s42.556,19.053,42.556,42.556
		C224.145,105.904,205.091,124.957,181.588,124.957z"/>
	<path style="fill:#305CB3;" d="M234.784,82.401c0-26.926-20.01-49.165-45.968-52.693v-7.889c2.961-2.211,4.889-5.731,4.889-9.702
		C193.705,5.436,188.27,0,181.588,0s-12.117,5.436-12.117,12.117c0,3.971,1.929,7.491,4.889,9.702v7.889
		c-1.702,0.231-3.376,0.548-5.023,0.936c-2.974,0.701-5.851,1.652-8.609,2.829c-3.851,1.643-7.466,3.727-10.786,6.188
		c-1.695,1.257-3.314,2.61-4.847,4.055c-10.281,9.695-16.703,23.437-16.703,38.686c0,15.247,6.425,28.986,16.703,38.685
		c1.535,1.448,3.148,2.813,4.847,4.072c8.844,6.557,19.791,10.439,31.646,10.439c4.554,0,8.974-0.575,13.193-1.651
		c1.648-0.421,3.264-0.921,4.847-1.492C220.127,125.064,234.784,105.447,234.784,82.401z M174.318,12.117
		c0-4.009,3.261-7.27,7.27-7.27c4.009,0,7.27,3.261,7.27,7.27s-3.261,7.27-7.27,7.27C177.579,19.387,174.318,16.126,174.318,12.117z
		 M183.969,23.996v5.27c-0.79-0.035-1.582-0.06-2.381-0.06c-0.798,0-1.591,0.025-2.381,0.06v-5.27
		c0.77,0.154,1.566,0.238,2.381,0.238S183.199,24.15,183.969,23.996z M181.588,130.75c-26.66,0-48.349-21.689-48.349-48.349
		c0-26.66,21.689-48.349,48.349-48.349s48.349,21.689,48.349,48.349C229.937,109.061,208.248,130.75,181.588,130.75z"/>
	<path style="fill:#A5DBFF;" d="M214.157,84.825c-1.339,0-2.423-1.085-2.423-2.423s1.085-2.423,2.423-2.423h4.847
		c0.072,0,0.139,0.015,0.21,0.021c-0.543-8.591-3.974-16.406-9.333-22.489c-0.042,0.049-0.075,0.102-0.122,0.149l-2.057,2.056
		c-0.473,0.472-1.093,0.709-1.713,0.709s-1.241-0.237-1.714-0.71c-0.946-0.947-0.946-2.481,0.001-3.428l2.057-2.056
		c0.046-0.046,0.099-0.079,0.148-0.121c-6.084-5.359-13.899-8.79-22.489-9.333c0.006,0.07,0.021,0.137,0.021,0.209v4.847
		c0,1.339-1.085,2.423-2.423,2.423c-1.339,0-2.423-1.085-2.423-2.423v-4.847c0-0.072,0.015-0.139,0.021-0.209
		c-8.591,0.543-16.406,3.974-22.489,9.333c0.049,0.041,0.102,0.075,0.148,0.121l2.057,2.056c0.947,0.947,0.947,2.481,0.001,3.428
		c-0.473,0.473-1.094,0.71-1.714,0.71c-0.62,0-1.24-0.237-1.713-0.709l-2.057-2.056c-0.046-0.046-0.08-0.1-0.121-0.149
		c-5.359,6.084-8.79,13.899-9.333,22.489c0.07-0.006,0.138-0.021,0.21-0.021h4.847c1.339,0,2.423,1.085,2.423,2.423
		s-1.085,2.423-2.423,2.423h-4.847c-0.072,0-0.139-0.015-0.21-0.021c0.543,8.59,3.974,16.405,9.333,22.488
		c0.042-0.049,0.075-0.103,0.122-0.149l2.057-2.056c0.947-0.945,2.481-0.946,3.428,0.001c0.946,0.947,0.946,2.481-0.001,3.428
		l-2.057,2.056c-0.046,0.046-0.099,0.079-0.148,0.121c6.084,5.359,13.899,8.79,22.49,9.333c-0.006-0.07-0.021-0.138-0.021-0.209
		v-4.847c0-1.339,1.085-2.423,2.423-2.423c1.339,0,2.423,1.085,2.423,2.423v4.847c0,0.072-0.015,0.139-0.021,0.209
		c8.591-0.543,16.406-3.974,22.49-9.333c-0.049-0.042-0.102-0.075-0.148-0.121l-2.057-2.056c-0.947-0.947-0.947-2.481-0.001-3.428
		c0.947-0.947,2.481-0.946,3.428-0.001l2.057,2.056c0.046,0.046,0.08,0.1,0.122,0.149c5.359-6.083,8.79-13.898,9.333-22.489
		c-0.07,0.006-0.138,0.021-0.21,0.021H214.157z M199.821,67.42l-10.71,21.419c-0.017,0.034-0.044,0.061-0.062,0.095
		c-0.055,0.099-0.118,0.193-0.188,0.285c-0.043,0.057-0.086,0.112-0.134,0.164c-0.025,0.027-0.042,0.058-0.069,0.084
		c-0.001,0.001-0.002,0.002-0.004,0.004c-0.054,0.054-0.115,0.093-0.173,0.141c-0.05,0.042-0.098,0.086-0.151,0.124
		c-0.077,0.054-0.158,0.098-0.239,0.142c-0.023,0.013-0.04,0.034-0.064,0.046l-21.42,10.71c-0.345,0.172-0.716,0.256-1.083,0.256
		c-0.63,0-1.25-0.244-1.714-0.71c-0.737-0.737-0.921-1.864-0.454-2.797l10.71-21.419c0.012-0.024,0.034-0.041,0.047-0.064
		c0.044-0.081,0.087-0.162,0.141-0.239c0.038-0.054,0.082-0.101,0.124-0.152c0.048-0.057,0.087-0.119,0.141-0.172
		c0.001-0.001,0.002-0.002,0.004-0.004c0.026-0.026,0.057-0.044,0.084-0.069c0.052-0.048,0.107-0.091,0.164-0.134
		c0.092-0.07,0.187-0.133,0.286-0.188c0.033-0.019,0.06-0.045,0.094-0.062l21.42-10.71c0.817-0.409,1.781-0.32,2.504,0.204
		c0.103,0.075,0.201,0.158,0.293,0.25C200.104,65.36,200.288,66.487,199.821,67.42z"/>
	<path style="fill:#305CB3;" d="M181.588,39.845c-23.503,0-42.556,19.053-42.556,42.556c0,23.503,19.053,42.556,42.556,42.556
		s42.556-19.053,42.556-42.556C224.145,58.898,205.091,39.845,181.588,39.845z M209.88,107.292
		c-0.042-0.049-0.075-0.103-0.122-0.149l-2.057-2.056c-0.947-0.945-2.481-0.946-3.428,0.001c-0.946,0.947-0.946,2.481,0.001,3.428
		l2.057,2.056c0.046,0.046,0.099,0.079,0.148,0.121c-6.084,5.359-13.899,8.79-22.49,9.333c0.006-0.07,0.021-0.138,0.021-0.209
		v-4.847c0-1.339-1.085-2.423-2.423-2.423c-1.339,0-2.423,1.085-2.423,2.423v4.847c0,0.072,0.015,0.139,0.021,0.209
		c-8.591-0.543-16.406-3.974-22.49-9.333c0.049-0.041,0.102-0.075,0.148-0.121l2.057-2.056c0.947-0.947,0.947-2.481,0.001-3.428
		c-0.947-0.947-2.481-0.946-3.428-0.001l-2.057,2.056c-0.046,0.046-0.08,0.1-0.122,0.149c-5.359-6.083-8.789-13.898-9.333-22.488
		c0.07,0.006,0.138,0.021,0.21,0.021h4.847c1.339,0,2.423-1.085,2.423-2.423s-1.085-2.423-2.423-2.423h-4.847
		c-0.072,0-0.139,0.015-0.21,0.021c0.543-8.591,3.974-16.406,9.333-22.489c0.042,0.049,0.075,0.102,0.121,0.149l2.057,2.056
		c0.473,0.472,1.093,0.709,1.713,0.709c0.62,0,1.241-0.237,1.714-0.71c0.946-0.947,0.946-2.481-0.001-3.428l-2.057-2.056
		c-0.046-0.046-0.099-0.079-0.148-0.121c6.084-5.359,13.899-8.79,22.489-9.333c-0.006,0.07-0.021,0.137-0.021,0.209v4.847
		c0,1.339,1.085,2.423,2.423,2.423c1.339,0,2.423-1.085,2.423-2.423v-4.847c0-0.072-0.015-0.139-0.021-0.209
		c8.591,0.543,16.406,3.974,22.489,9.333c-0.049,0.041-0.102,0.075-0.148,0.121l-2.057,2.056c-0.947,0.947-0.947,2.481-0.001,3.428
		c0.473,0.473,1.094,0.71,1.714,0.71s1.24-0.237,1.713-0.709l2.057-2.056c0.046-0.046,0.08-0.1,0.122-0.149
		c5.359,6.084,8.79,13.899,9.333,22.489c-0.07-0.006-0.138-0.021-0.21-0.021h-4.847c-1.339,0-2.423,1.085-2.423,2.423
		s1.085,2.423,2.423,2.423h4.847c0.072,0,0.139-0.015,0.21-0.021C218.67,93.394,215.239,101.209,209.88,107.292z"/>
	<path style="fill:#A5DBFF;" d="M181.588,19.387c4.009,0,7.27-3.261,7.27-7.27s-3.261-7.27-7.27-7.27c-4.009,0-7.27,3.261-7.27,7.27
		S177.579,19.387,181.588,19.387z"/>
	<polygon style="fill:#A5DBFF;" points="170.943,93.047 182.853,87.092 176.897,81.137 	"/>
	<path style="fill:#305CB3;" d="M199.367,64.623c-0.092-0.092-0.19-0.176-0.293-0.25c-0.722-0.524-1.687-0.613-2.504-0.204
		l-21.42,10.71c-0.034,0.017-0.061,0.044-0.094,0.062c-0.099,0.055-0.194,0.118-0.286,0.188c-0.056,0.043-0.111,0.086-0.164,0.134
		c-0.027,0.025-0.058,0.042-0.084,0.069c-0.001,0.001-0.002,0.002-0.004,0.004c-0.054,0.054-0.093,0.115-0.141,0.172
		c-0.042,0.051-0.086,0.098-0.124,0.152c-0.054,0.077-0.097,0.158-0.141,0.239c-0.013,0.023-0.035,0.04-0.047,0.064l-10.71,21.419
		c-0.467,0.933-0.283,2.06,0.454,2.797c0.465,0.466,1.085,0.71,1.714,0.71c0.367,0,0.738-0.083,1.083-0.256l21.42-10.71
		c0.024-0.012,0.041-0.034,0.064-0.046c0.081-0.044,0.162-0.088,0.239-0.142c0.054-0.038,0.101-0.082,0.151-0.124
		c0.057-0.048,0.119-0.087,0.173-0.141c0.001-0.001,0.002-0.002,0.004-0.004c0.026-0.026,0.044-0.057,0.069-0.084
		c0.048-0.052,0.091-0.107,0.134-0.164c0.07-0.092,0.133-0.186,0.188-0.285c0.019-0.033,0.045-0.06,0.062-0.095l10.71-21.419
		C200.288,66.487,200.104,65.36,199.367,64.623z M170.943,93.047l5.955-11.91l5.955,5.955L170.943,93.047z"/>
</g>
</svg>
