<?xml version="1.0" encoding="iso-8859-1"?>
<!-- Generator: Adobe Illustrator 18.0.0, SVG Export Plug-In . SVG Version: 6.00 Build 0)  -->
<!DOCTYPE svg PUBLIC "-//W3C//DTD SVG 1.1//EN" "http://www.w3.org/Graphics/SVG/1.1/DTD/svg11.dtd">
<svg version="1.1" id="Layer_1" xmlns="http://www.w3.org/2000/svg" xmlns:xlink="http://www.w3.org/1999/xlink" x="0px" y="0px"
	 viewBox="0 0 229.822 160" style="enable-background:new 0 0 229.822 160;" xml:space="preserve">
<g>
	<polygon style="fill:#F9D5C2;" points="6.346,49.066 24.677,49.066 24.677,29.331 	"/>
	<polygon style="fill:#F9D5C2;" points="29.477,53.866 4.805,53.866 4.805,155.199 98.108,155.199 98.108,135.607 63.462,135.607 
		63.462,130.527 14.89,130.527 14.89,125.726 63.462,125.726 63.462,120.927 14.892,120.927 14.892,116.126 63.462,116.126 
		63.462,106.525 14.89,106.525 14.89,101.724 63.462,101.724 63.462,96.925 14.892,96.925 14.892,92.124 63.462,92.124 
		63.462,82.522 14.89,82.522 14.89,77.722 63.462,77.722 63.462,72.923 14.892,72.923 14.892,68.122 63.462,68.122 63.462,29.194 
		29.477,29.194 	"/>
	<path style="fill:#FF833D;" d="M98.108,135.607v19.592H4.805V53.866h24.673V29.194h33.985v-4.747l0.05-0.054H22.711L0.004,48.839
		V160h102.905v-24.393H98.108z M6.346,49.066l18.33-19.735v19.735H6.346z"/>
	<rect x="14.892" y="68.122" style="fill:#FF833D;" width="48.57" height="4.801"/>
	<rect x="14.89" y="77.722" style="fill:#FF833D;" width="48.572" height="4.801"/>
	<rect x="14.892" y="92.124" style="fill:#FF833D;" width="48.57" height="4.801"/>
	<rect x="14.89" y="101.724" style="fill:#FF833D;" width="48.572" height="4.801"/>
	<rect x="14.892" y="116.126" style="fill:#FF833D;" width="48.57" height="4.801"/>
	<rect x="14.89" y="125.726" style="fill:#FF833D;" width="48.572" height="4.801"/>
	<polygon style="fill:#F9D5C2;" points="215.463,68.12 215.463,72.921 166.367,72.921 166.367,77.72 196.173,77.72 196.173,82.521 
		166.367,82.521 166.367,92.123 215.463,92.123 215.463,96.924 166.367,96.924 166.367,101.723 196.173,101.723 196.173,106.523 
		166.367,106.523 166.367,116.125 215.463,116.125 215.463,120.926 166.367,120.926 166.367,125.725 196.173,125.725 
		196.173,130.526 166.367,130.526 166.367,135.607 131.721,135.607 131.721,155.199 225.024,155.199 225.024,29.194 166.367,29.194 
		166.367,68.12 	"/>
	<polygon style="fill:#FF833D;" points="166.367,24.393 166.367,29.194 225.024,29.194 225.024,155.199 131.721,155.199 
		131.721,135.607 126.92,135.607 126.92,160 229.825,160 229.825,24.393 	"/>
	<rect x="166.367" y="68.12" style="fill:#FF833D;" width="49.096" height="4.801"/>
	<rect x="166.367" y="77.72" style="fill:#FF833D;" width="29.806" height="4.801"/>
	<rect x="166.367" y="92.123" style="fill:#FF833D;" width="49.096" height="4.801"/>
	<rect x="166.367" y="101.723" style="fill:#FF833D;" width="29.806" height="4.801"/>
	<rect x="166.367" y="116.125" style="fill:#FF833D;" width="49.096" height="4.801"/>
	<rect x="166.367" y="125.725" style="fill:#FF833D;" width="29.806" height="4.801"/>
	<polygon style="fill:#A5DBFF;" points="69.804,24.673 88.135,24.673 88.135,4.938 	"/>
	<path style="fill:#A5DBFF;" d="M161.566,130.806V4.801H92.935v24.673H68.263v101.333H161.566z M90.761,105.852
		c-2.77-2.001-3.926-5.551-2.869-8.826l5.654-17.393L78.742,68.879c-2.768-2.01-3.924-5.558-2.874-8.825
		c1.075-3.28,4.1-5.474,7.532-5.474h18.277l5.664-17.39c1.065-3.268,4.085-5.464,7.517-5.464c3.436,0,6.458,2.197,7.518,5.467
		l5.644,17.387h18.29c3.432,0,6.461,2.192,7.536,5.456c1.052,3.286-0.103,6.831-2.868,8.842l-14.806,10.755l5.656,17.387
		c1.06,3.283-0.099,6.833-2.881,8.839c-1.342,0.983-2.951,1.508-4.639,1.508c-1.688,0-3.297-0.525-4.653-1.518l-14.795-10.746
		l-14.799,10.751C97.331,107.835,93.475,107.832,90.761,105.852z"/>
	<path style="fill:#305CB3;" d="M131.721,135.607h34.646v-5.081v-4.801v-4.799v-4.801v-9.602v-4.801v-4.799v-4.801v-9.602V77.72
		v-4.799V68.12V29.194v-4.801V0H86.169L63.512,24.393l-0.05,0.054v4.747v38.928v4.801v4.799v4.801v9.602v4.801v4.799v4.801v9.602
		v4.801v4.799v4.801v5.08h34.646h4.801h24.011H131.721z M68.263,29.474h24.672V4.801h68.631v126.006H68.263V29.474z M88.135,24.673
		H69.804L88.135,4.938V24.673z"/>
	<path style="fill:#A5DBFF;" d="M97.243,101.969l17.619-12.799l17.623,12.801c1.07,0.782,2.586,0.776,3.64,0.006
		c1.101-0.795,1.553-2.188,1.136-3.477l-6.733-20.701l17.628-12.804c1.085-0.79,1.537-2.187,1.125-3.477
		c-0.419-1.271-1.615-2.138-2.97-2.138h-21.779l-6.722-20.706c-0.417-1.285-1.603-2.147-2.952-2.147
		c-1.347,0-2.533,0.865-2.952,2.15l-6.744,20.704H83.399c-1.351,0-2.543,0.865-2.965,2.154c-0.409,1.275,0.043,2.671,1.129,3.461
		l17.628,12.804l-6.732,20.706c-0.414,1.285,0.036,2.678,1.123,3.463C94.663,102.757,96.17,102.748,97.243,101.969z"/>
	<path style="fill:#305CB3;" d="M100.062,105.855l14.799-10.751l14.795,10.746c1.356,0.993,2.965,1.518,4.653,1.518
		c1.688,0,3.297-0.525,4.639-1.508c2.782-2.007,3.941-5.557,2.881-8.839l-5.656-17.387l14.806-10.755
		c2.765-2.011,3.919-5.557,2.868-8.842c-1.076-3.264-4.104-5.456-7.536-5.456h-18.29l-5.644-17.387
		c-1.061-3.27-4.082-5.467-7.518-5.467c-3.431,0-6.452,2.196-7.517,5.464l-5.664,17.39H83.399c-3.432,0-6.457,2.194-7.532,5.474
		c-1.049,3.268,0.106,6.815,2.874,8.825l14.804,10.754l-5.654,17.393c-1.057,3.275,0.099,6.825,2.869,8.826
		C93.475,107.832,97.331,107.835,100.062,105.855z M92.459,98.505l6.732-20.706L81.563,64.995c-1.086-0.79-1.539-2.186-1.129-3.461
		c0.422-1.288,1.614-2.154,2.965-2.154h21.763l6.744-20.704c0.419-1.286,1.605-2.15,2.952-2.15c1.349,0,2.535,0.863,2.952,2.147
		l6.722,20.706h21.779c1.355,0,2.551,0.867,2.97,2.138c0.413,1.29-0.04,2.687-1.125,3.477l-17.628,12.804l6.733,20.701
		c0.416,1.289-0.035,2.682-1.136,3.477c-1.055,0.771-2.571,0.776-3.64-0.006L114.861,89.17l-17.619,12.799
		c-1.073,0.778-2.58,0.788-3.661-0.002C92.495,101.183,92.045,99.789,92.459,98.505z"/>
</g>
</svg>
