<?xml version="1.0" encoding="iso-8859-1"?>
<!-- Generator: Adobe Illustrator 18.0.0, SVG Export Plug-In . SVG Version: 6.00 Build 0)  -->
<!DOCTYPE svg PUBLIC "-//W3C//DTD SVG 1.1//EN" "http://www.w3.org/Graphics/SVG/1.1/DTD/svg11.dtd">
<svg version="1.1" id="Layer_1" xmlns="http://www.w3.org/2000/svg" xmlns:xlink="http://www.w3.org/1999/xlink" x="0px" y="0px"
	 viewBox="0 0 151 160" style="enable-background:new 0 0 151 160;" xml:space="preserve">
<g>
	<rect x="140.939" y="4.848" style="fill:#A5DBFF;" width="4.848" height="150.303"/>
	<polygon style="fill:#305CB3;" points="140.939,0 140.939,4.848 145.787,4.848 145.787,155.152 140.939,155.152 140.939,160 
		150.636,160 150.636,0 	"/>
	<polygon style="fill:#F9D5C2;" points="28.251,28.611 28.251,6.515 5.625,28.611 	"/>
	<path style="fill:#F9D5C2;" d="M39.655,4.848H33.1v28.611H5.213v121.692h9.697H136.09V4.848H39.655z M126.446,53.336v4.848h-14.532
		v-4.848H126.446z M87.664,43.639V38.79h38.782v4.848H87.664z M56.679,38.79h26.136v4.848H56.679V38.79z M56.679,53.336h40.69v4.848
		h-40.69V53.336z M56.679,67.881h69.767v4.848H56.679V67.881z M39.18,87.276v-4.848h43.636v4.848H39.18z M14.92,116.356v-4.848
		h82.441v4.848H14.92z M14.92,130.901v-4.848h19.411v4.848H14.92z M14.92,101.821v-4.848h29.121v4.848H14.92z M14.92,87.276v-4.848
		h19.411v4.848H14.92z M14.919,42.839v-3.116V38.79h0.932H44.56h0.932v0.932v3.116v0.932H44.56H32.882v23.925v0.932H31.95h-3.489
		h-0.933v-0.932V43.771H15.851h-0.932V42.839z M14.92,140.598h43.666v4.848H14.92V140.598z M126.448,145.446H77.98v-4.848h48.468
		V145.446z M126.448,130.901H39.18v-4.848h87.268V130.901z M126.448,116.356H102.21v-4.848h24.239V116.356z M126.448,101.821H63.435
		v-4.848h63.014V101.821z M126.448,87.276H87.664v-4.848h38.784V87.276z"/>
	<path style="fill:#FF833D;" d="M140.939,155.152V4.848V0H37.679h-9.697L0.364,26.972V160h9.697h130.878V155.152z M14.91,155.152
		H5.213V33.459H33.1V4.848h6.555h96.436v150.303H14.91z M28.251,28.611H5.625L28.251,6.515V28.611z"/>
	<polygon style="fill:#305CB3;" points="27.529,43.771 27.529,67.697 27.529,68.629 28.461,68.629 31.95,68.629 32.882,68.629 
		32.882,67.697 32.882,43.771 44.56,43.771 45.492,43.771 45.492,42.839 45.492,39.723 45.492,38.79 44.56,38.79 15.851,38.79 
		14.919,38.79 14.919,39.723 14.919,42.839 14.919,43.771 15.851,43.771 	"/>
	<rect x="87.664" y="38.79" style="fill:#FF833D;" width="38.782" height="4.848"/>
	<rect x="56.679" y="38.79" style="fill:#FF833D;" width="26.136" height="4.848"/>
	<rect x="56.68" y="53.336" style="fill:#305CB3;" width="40.69" height="4.848"/>
	<rect x="111.915" y="53.336" style="fill:#305CB3;" width="14.532" height="4.848"/>
	<rect x="56.679" y="67.881" style="fill:#305CB3;" width="69.767" height="4.848"/>
	<rect x="87.664" y="82.427" style="fill:#305CB3;" width="38.784" height="4.848"/>
	<rect x="39.18" y="82.427" style="fill:#305CB3;" width="43.636" height="4.848"/>
	<rect x="14.92" y="82.427" style="fill:#305CB3;" width="19.411" height="4.848"/>
	<rect x="63.435" y="96.973" style="fill:#FF833D;" width="63.014" height="4.848"/>
	<rect x="14.92" y="96.973" style="fill:#FF833D;" width="29.121" height="4.848"/>
	<rect x="102.21" y="111.507" style="fill:#305CB3;" width="24.239" height="4.848"/>
	<rect x="14.92" y="111.507" style="fill:#305CB3;" width="82.441" height="4.848"/>
	<rect x="14.92" y="126.052" style="fill:#305CB3;" width="19.411" height="4.848"/>
	<rect x="39.18" y="126.052" style="fill:#305CB3;" width="87.268" height="4.848"/>
	<rect x="77.98" y="140.598" style="fill:#305CB3;" width="48.468" height="4.848"/>
	<rect x="14.92" y="140.598" style="fill:#305CB3;" width="43.666" height="4.848"/>
</g>
</svg>
