<?xml version="1.0" encoding="iso-8859-1"?>
<!-- Generator: Adobe Illustrator 18.0.0, SVG Export Plug-In . SVG Version: 6.00 Build 0)  -->
<!DOCTYPE svg PUBLIC "-//W3C//DTD SVG 1.1//EN" "http://www.w3.org/Graphics/SVG/1.1/DTD/svg11.dtd">
<svg version="1.1" id="Layer_1" xmlns="http://www.w3.org/2000/svg" xmlns:xlink="http://www.w3.org/1999/xlink" x="0px" y="0px"
	 viewBox="0 0 165.129 160" style="enable-background:new 0 0 165.129 160;" xml:space="preserve">
<g>
	<path style="fill:#F9D5C2;" d="M71.125,4.929v28.596H43.252v51.147c9.093,3.651,16.102,11.414,18.713,20.98h35.188v-7.164h14.536
		v7.164h29.533V4.929H71.125z M111.525,82.604H48.47v-4.846h63.054V82.604z M111.525,72.912H48.47v-4.846h63.054V72.912z
		 M111.525,63.22H48.47v-4.846h63.054V63.22z"/>
	<path style="fill:#F9D5C2;" d="M141.223,155.071v-5.778h-0.299v-9.531h-4.924v9.531h-14.702v-24.157h-9.607v7.358H97.153v-7.358
		H61.024c-3.133,8.229-9.614,14.814-17.772,18.09v11.846H141.223z"/>
	<path style="fill:#FF833D;" d="M141.223,149.292v5.778H43.252v-11.846c-1.584,0.636-3.231,1.148-4.929,1.522V160h107.829v-10.708
		H141.223z"/>
	<path style="fill:#FF833D;" d="M43.252,84.672V33.525h27.873V4.929h70.098v100.723h4.929V0h-80.2L38.323,26.982v56.169
		C40.021,83.525,41.668,84.036,43.252,84.672z M66.196,28.596H43.252L66.196,5.652V28.596z"/>
	<polygon style="fill:#F9D5C2;" points="66.196,28.596 66.196,5.652 43.252,28.596 	"/>
	<rect x="48.47" y="58.374" style="fill:#FF833D;" width="63.054" height="4.846"/>
	<rect x="48.47" y="68.066" style="fill:#FF833D;" width="63.054" height="4.846"/>
	<rect x="48.47" y="77.758" style="fill:#FF833D;" width="63.054" height="4.846"/>
	<polygon style="fill:#A5DBFF;" points="150.776,144.363 150.776,125.135 126.226,125.135 126.226,144.363 131.07,144.363 
		131.07,134.833 145.853,134.833 145.853,144.363 	"/>
	<path style="fill:#A5DBFF;" d="M97.153,120.206v-9.625H62.899c0.118,1.107,0.182,2.23,0.182,3.368c0,2.142-0.217,4.234-0.626,6.257
		H97.153z"/>
	<rect x="111.69" y="110.581" style="fill:#A5DBFF;" width="48.51" height="9.625"/>
	<path style="fill:#305CB3;" d="M160.2,105.652h-14.048h-4.929H111.69v-7.164H97.153v7.164H61.965
		c-2.612-9.566-9.621-17.329-18.713-20.98c-1.584-0.636-3.231-1.148-4.929-1.522c-2.186-0.481-4.454-0.742-6.782-0.742
		C14.149,82.409,0,96.557,0,113.949s14.149,31.54,31.54,31.54c2.329,0,4.596-0.261,6.782-0.742c1.698-0.374,3.345-0.885,4.929-1.522
		c8.158-3.275,14.639-9.861,17.772-18.09h36.129v7.358h14.536v-7.358h9.607v24.157h14.702v-9.531h4.924v9.531h0.299h4.929h9.554
		v-24.157h4.494h4.929v-4.929v-9.625v-4.929H160.2z M131.07,134.833v9.531h-4.844v-19.228h24.55v19.228h-4.924v-9.531H131.07z
		 M160.2,120.206h-48.51v-9.625h48.51V120.206z M102.083,127.564v-24.146h4.678v24.146H102.083z M4.929,113.949
		c0-14.674,11.937-26.611,26.611-26.611s26.611,11.937,26.611,26.611S46.214,140.56,31.54,140.56S4.929,128.622,4.929,113.949z
		 M62.899,110.581h34.255v9.625H62.455c0.409-2.023,0.626-4.115,0.626-6.257C63.081,112.811,63.017,111.688,62.899,110.581z"/>
	<path style="fill:#A5DBFF;" d="M58.151,113.949c0-14.674-11.937-26.611-26.611-26.611S4.929,99.275,4.929,113.949
		S16.867,140.56,31.54,140.56S58.151,128.622,58.151,113.949z M19.389,123.682c-5.367,0-9.734-4.367-9.734-9.733
		c0-5.367,4.367-9.734,9.734-9.734s9.734,4.367,9.734,9.734C29.122,119.316,24.756,123.682,19.389,123.682z"/>
	<path style="fill:#A5DBFF;" d="M19.389,109.144c-2.649,0-4.805,2.155-4.805,4.805c0,2.649,2.155,4.804,4.805,4.804
		s4.805-2.155,4.805-4.804C24.193,111.299,22.038,109.144,19.389,109.144z"/>
	<path style="fill:#305CB3;" d="M19.389,104.215c-5.367,0-9.734,4.367-9.734,9.734c0,5.367,4.367,9.733,9.734,9.733
		s9.734-4.367,9.734-9.733C29.122,108.582,24.756,104.215,19.389,104.215z M19.389,118.753c-2.649,0-4.805-2.155-4.805-4.804
		c0-2.649,2.155-4.805,4.805-4.805s4.805,2.155,4.805,4.805C24.193,116.598,22.038,118.753,19.389,118.753z"/>
	<rect x="102.083" y="103.417" style="fill:#A5DBFF;" width="4.678" height="24.146"/>
</g>
</svg>
