<?xml version="1.0" encoding="iso-8859-1"?>
<!-- Generator: Adobe Illustrator 18.0.0, SVG Export Plug-In . SVG Version: 6.00 Build 0)  -->
<!DOCTYPE svg PUBLIC "-//W3C//DTD SVG 1.1//EN" "http://www.w3.org/Graphics/SVG/1.1/DTD/svg11.dtd">
<svg version="1.1" id="Layer_1" xmlns="http://www.w3.org/2000/svg" xmlns:xlink="http://www.w3.org/1999/xlink" x="0px" y="0px"
	 viewBox="0 0 196 160" style="enable-background:new 0 0 196 160;" xml:space="preserve">
<g>
	<rect x="45.892" y="42.66" style="fill:none;" width="49.506" height="9.91"/>
	<polygon style="fill:#A5DBFF;" points="109.959,62.351 95.399,62.351 95.399,57.423 45.892,57.423 45.892,62.351 31.332,62.351 
		31.332,57.423 5.122,57.423 5.122,81.786 60.939,81.786 60.939,72.081 80.353,72.081 80.353,81.786 136.168,81.786 136.168,57.423 
		109.959,57.423 	"/>
	<path style="fill:#A5DBFF;" d="M136.168,86.639H80.353v19.417H60.939V86.639H5.122v68.21h131.046V86.639z M126.462,145.135H14.83
		v-29.121h111.632V145.135z"/>
	<rect x="19.683" y="120.868" style="fill:#A5DBFF;" width="101.925" height="19.414"/>
	<path style="fill:#305CB3;" d="M14.83,145.135h111.632v-29.121H14.83V145.135z M19.683,120.868h101.925v19.414H19.683V120.868z"/>
	<polygon style="fill:#A5DBFF;" points="36.185,57.498 41.039,57.498 41.039,37.806 100.252,37.806 100.252,57.498 105.106,57.498 
		105.106,33.23 36.185,33.23 	"/>
	<path style="fill:#305CB3;" d="M109.959,28.376H31.332v24.193H0.269v107.133h140.753V52.569h-31.063V28.376z M5.122,86.639h55.816
		v19.417h19.414V86.639h55.815v68.21H5.122V86.639z M65.792,76.935h9.707v24.268h-9.707V76.935z M136.168,81.786H80.353v-9.704
		H60.939v9.704H5.122V57.423h26.209v4.928h14.561v-4.928h49.506v4.928h14.561v-4.928h26.209V81.786z M105.106,33.23v24.268h-4.854
		V37.806H41.039v19.692h-4.854V33.23H105.106z M95.399,52.569H45.892v-9.91h49.506V52.569z"/>
	<rect x="65.792" y="76.935" style="fill:#A5DBFF;" width="9.707" height="24.268"/>
	<rect x="150.986" y="33.43" style="fill:#F9D5C2;" width="9.707" height="121.411"/>
	<path style="fill:#F9D5C2;" d="M151.057,28.577h9.636v-5.975v-7.675h10.993c3.757,0.123,7.486,1.808,8.67,5.272h4.957
		c-1.308-6.689-7.925-9.966-12.55-10.073l-36.332,0V4.854h-4.927v15.344h4.927v-5.272h14.625V28.577z"/>
	<path style="fill:#FF833D;" d="M175.889,22.625v2.427h14.508v-2.427c0-11.561-10.455-17.189-17.577-17.353h-31.534V0h-14.635
		v25.051h14.635V19.78h4.847v139.914h19.414V33.43V19.779l6.06-0.001C172.611,19.811,175.889,20.115,175.889,22.625z
		 M150.986,154.841V33.43h9.707v121.411H150.986z M136.432,20.198h-4.927V4.854h4.927v5.272l36.332,0
		c4.625,0.107,11.242,3.384,12.55,10.073h-4.957c-1.184-3.464-4.913-5.149-8.67-5.272h-10.993v7.675v5.975h-9.636V14.926h-14.625
		V20.198z"/>
	<path style="fill:#F9D5C2;" d="M185.785,86.637l-5.346,0v0.003h-5.093v0.001v63.738c0.675,2.734,5.289,4.767,8.25,4.767
		c2.964,0,6.604-2.033,7.282-4.767V86.642h-5.093V86.637z"/>
	<polygon style="fill:#F9D5C2;" points="180.372,47.894 180.439,47.894 180.439,81.784 185.785,81.784 185.785,47.838 
		188.218,43.432 185.846,34.939 180.372,34.939 178.006,43.493 	"/>
	<path style="fill:#FF833D;" d="M190.878,81.788h-0.239V49.089l1.828-3.31l0.961-1.739l-0.534-1.913l-2.372-8.493l-0.991-3.548
		h-3.684h-5.474h-3.693l-0.984,3.559l-2.367,8.554l-0.519,1.877l0.922,1.716l1.855,3.449v32.546h-0.239h-4.854v4.854v63.74v0.591
		l0.142,0.573c1.363,5.517,8.403,8.456,12.961,8.456c6.194,0,10.962-4.297,11.993-8.451l0.143-0.576v-0.593V86.642v-4.854H190.878z
		 M190.878,150.38c-0.678,2.734-4.318,4.767-7.282,4.767c-2.961,0-7.574-2.033-8.25-4.767V86.642V86.64h5.093v-0.003l5.346,0v0.005
		h5.093V150.38z M185.846,34.939l2.372,8.493l-2.433,4.405v33.946l-5.346,0v-33.89h-0.067l-2.367-4.401l2.367-8.554H185.846z"/>
</g>
</svg>
