<?xml version="1.0" encoding="iso-8859-1"?>
<!-- Generator: Adobe Illustrator 18.0.0, SVG Export Plug-In . SVG Version: 6.00 Build 0)  -->
<!DOCTYPE svg PUBLIC "-//W3C//DTD SVG 1.1//EN" "http://www.w3.org/Graphics/SVG/1.1/DTD/svg11.dtd">
<svg version="1.1" id="Layer_1" xmlns="http://www.w3.org/2000/svg" xmlns:xlink="http://www.w3.org/1999/xlink" x="0px" y="0px"
	 viewBox="0 0 299 160" style="enable-background:new 0 0 299 160;" xml:space="preserve">
<g>
	<path style="fill:#F9D5C2;" d="M105.993,27.557c-29.27,0-53.083,23.813-53.083,53.083s23.813,53.082,53.083,53.082
		s53.082-23.812,53.082-53.082S135.263,27.557,105.993,27.557z M140.199,56.802c1.694-0.978,3.859-0.398,4.837,1.296
		c0.977,1.693,0.397,3.859-1.296,4.836c-1.693,0.978-3.859,0.398-4.836-1.296C137.925,59.945,138.505,57.78,140.199,56.802z
		 M123.697,42.892c0.977-1.693,3.143-2.274,4.837-1.296c1.693,0.978,2.273,3.143,1.296,4.837c-0.978,1.693-3.143,2.274-4.837,1.296
		S122.719,44.586,123.697,42.892z M60.91,80.639c0-1.955,1.585-3.541,3.54-3.541s3.54,1.585,3.54,3.541s-1.585,3.541-3.54,3.541
		S60.91,82.595,60.91,80.639z M71.786,104.477c-1.694,0.978-3.859,0.397-4.837-1.296c-0.978-1.693-0.398-3.859,1.296-4.837
		s3.859-0.397,4.837,1.296C74.059,101.333,73.479,103.499,71.786,104.477z M73.082,61.638c-0.978,1.693-3.143,2.274-4.837,1.296
		s-2.274-3.143-1.296-4.836c0.977-1.693,3.143-2.274,4.837-1.296C73.479,57.78,74.059,59.945,73.082,61.638z M88.288,118.386
		c-0.978,1.693-3.143,2.274-4.837,1.296s-2.274-3.143-1.296-4.836c0.977-1.693,3.143-2.274,4.836-1.296
		C88.685,114.527,89.265,116.693,88.288,118.386z M86.991,47.729c-1.693,0.978-3.859,0.397-4.836-1.296
		c-0.978-1.693-0.398-3.859,1.296-4.837s3.859-0.397,4.837,1.296C89.265,44.586,88.685,46.751,86.991,47.729z M105.992,125.722
		c-1.955,0-3.54-1.585-3.54-3.541s1.585-3.541,3.54-3.541s3.541,1.585,3.541,3.541S107.948,125.722,105.992,125.722z
		 M128.534,119.682c-1.694,0.978-3.859,0.398-4.837-1.296c-0.978-1.693-0.398-3.859,1.296-4.836s3.859-0.398,4.837,1.296
		C130.807,116.539,130.227,118.704,128.534,119.682z M145.035,103.181c-0.978,1.693-3.143,2.274-4.837,1.296
		s-2.274-3.143-1.296-4.837c0.977-1.693,3.143-2.274,4.836-1.296C145.433,99.322,146.013,101.487,145.035,103.181z M103.568,82.432
		V35.556h4.849v42.027h42.658v4.849H103.568z"/>
	<path style="fill:#FF833D;" d="M137.018,31.753l8.97-15.537l4.2,2.425l2.425-4.2l-12.599-7.274l-2.425,4.2l4.2,2.425l-8.965,15.528
		c-7.353-3.86-15.628-6.187-24.406-6.551V4.849l4.849,0V0L98.718,0v4.849l4.849,0l0,17.919c-8.778,0.364-17.053,2.691-24.406,6.551
		l-8.966-15.528l4.2-2.425l-2.424-4.2l-12.599,7.274l2.424,4.2l4.2-2.425l8.971,15.537C58.81,42.044,48.06,60.104,48.06,80.639
		c0,31.944,25.989,57.932,57.933,57.932s57.932-25.988,57.932-57.932C163.924,60.104,153.175,42.044,137.018,31.753z
		 M105.993,133.722c-29.27,0-53.083-23.812-53.083-53.082s23.813-53.083,53.083-53.083s53.082,23.813,53.082,53.083
		S135.263,133.722,105.993,133.722z"/>
	<circle style="fill:#FF833D;" cx="85.221" cy="44.663" r="3.541"/>
	<circle style="fill:#FF833D;" cx="70.016" cy="59.868" r="3.541"/>
	<circle style="fill:#FF833D;" cx="64.45" cy="80.639" r="3.54"/>
	<circle style="fill:#FF833D;" cx="70.016" cy="101.41" r="3.541"/>
	<circle style="fill:#FF833D;" cx="85.221" cy="116.616" r="3.541"/>
	<circle style="fill:#FF833D;" cx="105.992" cy="122.181" r="3.541"/>
	<circle style="fill:#FF833D;" cx="126.764" cy="116.616" r="3.541"/>
	<circle style="fill:#FF833D;" cx="141.969" cy="101.41" r="3.541"/>
	<circle style="fill:#FF833D;" cx="141.969" cy="59.868" r="3.541"/>
	<circle style="fill:#FF833D;" cx="126.764" cy="44.663" r="3.541"/>
	<polygon style="fill:#FF833D;" points="108.417,77.583 108.417,35.556 103.568,35.556 103.568,82.432 151.075,82.432 
		151.075,77.583 	"/>
	<path style="fill:#A5DBFF;" d="M235.829,121.228v-0.1h-18.782v-4.849h18.782v-4.849h-18.782v-4.849h18.782V82.44h-24.243v72.71
		h53.344v-33.923H235.829z M259.467,130.827h-42.42v-4.849h42.42V130.827z"/>
	<rect x="217.047" y="125.978" style="fill:#305CB3;" width="42.42" height="4.849"/>
	<path style="fill:#A5DBFF;" d="M235.829,53.267h-18.782v-4.849h18.782v-4.849h-18.782v-4.849h42.42v0.068h5.462V4.85h-53.344
		v72.741h24.243V53.267z M217.047,29.02h42.42v4.849h-42.42V29.02z"/>
	<rect x="217.047" y="29.02" style="fill:#305CB3;" width="42.42" height="4.849"/>
	<polygon style="fill:#305CB3;" points="187.407,29.02 182.558,29.02 182.558,77.507 168.01,77.507 168.01,82.356 182.558,82.356 
		182.558,130.827 182.558,130.827 182.558,130.827 201.956,130.827 201.956,125.978 187.407,125.978 187.407,82.356 187.407,77.507 
		187.407,33.87 201.956,33.87 201.956,29.02 187.407,29.02 	"/>
	<path style="fill:#A5DBFF;" d="M240.678,43.637v72.741h53.344V43.637H240.678z M288.56,92.055h-42.419v-4.849h42.419V92.055z
		 M288.56,82.356h-42.419v-4.849h42.419V82.356z M288.56,72.657h-42.419v-4.849h42.419V72.657z"/>
	<path style="fill:#305CB3;" d="M298.871,38.788h-29.093V0h-63.043v77.56v4.881V160h63.043v-38.772h29.093V38.788z M294.022,116.378
		h-53.344V43.637h53.344V116.378z M211.585,155.151V82.44h24.243v24.139h-18.782v4.849h18.782v4.849h-18.782v4.849h18.782v0.1h29.1
		v33.923H211.585z M211.585,4.85h53.344v33.938h-5.462v-0.068h-42.42v4.849h18.782v4.849h-18.782v4.849h18.782v24.324h-24.243V4.85z
		"/>
	<rect x="246.141" y="67.808" style="fill:#305CB3;" width="42.419" height="4.849"/>
	<rect x="246.141" y="77.507" style="fill:#305CB3;" width="42.419" height="4.849"/>
	<rect x="0.129" y="77.507" style="fill:#305CB3;" width="42.419" height="4.849"/>
	<rect x="246.141" y="87.206" style="fill:#305CB3;" width="42.419" height="4.849"/>
	<rect x="0.129" y="67.808" style="fill:#305CB3;" width="42.419" height="4.849"/>
	<rect x="0.129" y="87.206" style="fill:#305CB3;" width="42.419" height="4.849"/>
</g>
</svg>
