<?xml version="1.0" encoding="iso-8859-1"?>
<!-- Generator: Adobe Illustrator 18.0.0, SVG Export Plug-In . SVG Version: 6.00 Build 0)  -->
<!DOCTYPE svg PUBLIC "-//W3C//DTD SVG 1.1//EN" "http://www.w3.org/Graphics/SVG/1.1/DTD/svg11.dtd">
<svg version="1.1" id="Layer_1" xmlns="http://www.w3.org/2000/svg" xmlns:xlink="http://www.w3.org/1999/xlink" x="0px" y="0px"
	 viewBox="0 0 289 160" style="enable-background:new 0 0 289 160;" xml:space="preserve">
<g>
	<rect x="246.41" y="67.878" style="fill:#FF833D;" width="42.412" height="4.849"/>
	<rect x="246.41" y="77.575" style="fill:#FF833D;" width="42.412" height="4.849"/>
	<rect x="246.41" y="87.272" style="fill:#FF833D;" width="42.412" height="4.849"/>
	<rect x="0.179" y="67.878" style="fill:#FF833D;" width="42.411" height="4.849"/>
	<rect x="0.179" y="77.575" style="fill:#FF833D;" width="42.411" height="4.849"/>
	<rect x="0.179" y="87.272" style="fill:#FF833D;" width="42.411" height="4.849"/>
	<polygon style="fill:#A5DBFF;" points="138.119,46.385 138.119,24.232 115.967,24.232 	"/>
	<path style="fill:#305CB3;" d="M115.967,24.232h22.152v-4.849h-24.161c-2.678,0-4.849,2.171-4.849,4.849l29.009,29.009v-6.857
		L115.967,24.232z"/>
	<polygon style="fill:#A5DBFF;" points="138.119,94.879 138.119,72.727 115.967,72.727 	"/>
	<path style="fill:#305CB3;" d="M115.967,72.727h22.152v-4.849h-24.161c-2.678,0-4.849,2.171-4.849,4.849l29.009,29.009v-6.857
		L115.967,72.727z"/>
	<polygon style="fill:#A5DBFF;" points="138.119,143.364 138.119,121.212 115.967,121.212 	"/>
	<path style="fill:#305CB3;" d="M115.967,121.212h22.152v-4.848h-24.161c-2.678,0-4.849,2.171-4.849,4.848l29.009,29.009v-6.857
		L115.967,121.212z"/>
	<polygon style="fill:#A5DBFF;" points="210.846,24.232 210.846,46.433 233.046,24.232 	"/>
	<path style="fill:#305CB3;" d="M233.046,24.232l-22.2,22.201v6.857l29.058-29.057c0-2.678-2.171-4.849-4.849-4.849h-24.209v4.849
		H233.046z"/>
	<polygon style="fill:#A5DBFF;" points="210.846,72.727 210.846,94.927 233.046,72.727 	"/>
	<path style="fill:#305CB3;" d="M233.046,72.727l-22.2,22.201v6.857l29.058-29.057c0-2.678-2.171-4.849-4.849-4.849h-24.209v4.849
		H233.046z"/>
	<polygon style="fill:#A5DBFF;" points="210.846,121.212 210.846,143.412 233.046,121.212 	"/>
	<path style="fill:#305CB3;" d="M233.046,121.212l-22.2,22.201v6.857l29.058-29.057c0-2.678-2.171-4.848-4.849-4.848h-24.209v4.848
		H233.046z"/>
	<path style="fill:#F9D5C2;" d="M174.492,48.475c6.684,0,12.121-5.438,12.121-12.121s-5.438-12.121-12.121-12.121
		s-12.121,5.438-12.121,12.121S167.809,48.475,174.492,48.475z"/>
	<path style="fill:#F9D5C2;" d="M174.492,96.969c6.684,0,12.121-5.438,12.121-12.121s-5.438-12.121-12.121-12.121
		s-12.121,5.438-12.121,12.121S167.809,96.969,174.492,96.969z"/>
	<path style="fill:#F9D5C2;" d="M142.967,155.151h63.03V4.848h-63.03V155.151z M174.493,19.384c9.372,0,16.97,7.598,16.97,16.97
		c0,9.372-7.598,16.97-16.97,16.97s-16.97-7.598-16.97-16.97C157.523,26.981,165.121,19.384,174.493,19.384z M174.493,67.878
		c9.372,0,16.97,7.598,16.97,16.97c0,9.372-7.598,16.97-16.97,16.97s-16.97-7.598-16.97-16.97
		C157.523,75.476,165.121,67.878,174.493,67.878z M174.493,116.363c9.372,0,16.97,7.598,16.97,16.97
		c0,9.372-7.598,16.97-16.97,16.97s-16.97-7.598-16.97-16.97C157.523,123.961,165.121,116.363,174.493,116.363z"/>
	<path style="fill:#FF833D;" d="M210.846,46.433V24.232v-4.849V0h-72.727v19.384v4.849v22.152v6.857v14.637v4.849v22.152v6.857
		v14.627v4.848v22.152v6.857V160h72.727v-9.731v-6.857v-22.201v-4.848v-14.579v-6.857V72.727v-4.849V53.29V46.433z M205.997,155.151
		h-63.03V4.848h63.03V155.151z"/>
	<path style="fill:#FF833D;" d="M174.493,53.323c9.372,0,16.97-7.598,16.97-16.97c0-9.372-7.598-16.97-16.97-16.97
		s-16.97,7.598-16.97,16.97C157.523,45.726,165.121,53.323,174.493,53.323z M174.492,24.232c6.684,0,12.121,5.438,12.121,12.121
		s-5.438,12.121-12.121,12.121s-12.121-5.438-12.121-12.121S167.809,24.232,174.492,24.232z"/>
	<path style="fill:#FF833D;" d="M174.493,101.818c9.372,0,16.97-7.598,16.97-16.97c0-9.372-7.598-16.97-16.97-16.97
		s-16.97,7.598-16.97,16.97C157.523,94.22,165.121,101.818,174.493,101.818z M174.492,72.727c6.684,0,12.121,5.438,12.121,12.121
		s-5.438,12.121-12.121,12.121s-12.121-5.438-12.121-12.121S167.809,72.727,174.492,72.727z"/>
	<path style="fill:#305CB3;" d="M174.493,150.303c9.372,0,16.97-7.598,16.97-16.97c0-9.372-7.598-16.97-16.97-16.97
		s-16.97,7.598-16.97,16.97C157.523,142.705,165.121,150.303,174.493,150.303z M174.492,121.212c6.684,0,12.121,5.438,12.121,12.121
		s-5.438,12.121-12.121,12.121s-12.121-5.438-12.121-12.121S167.809,121.212,174.492,121.212z"/>
	<path style="fill:#A5DBFF;" d="M174.492,145.454c6.684,0,12.121-5.438,12.121-12.121s-5.438-12.121-12.121-12.121
		s-12.121,5.438-12.121,12.121S167.809,145.454,174.492,145.454z"/>
	<path style="fill:#A5DBFF;" d="M95.989,58.427c-2.251-1.836-5.42-2.768-9.421-2.768H65.841c-3.843,0-7.012,0.847-9.423,2.515
		c-2.449,1.686-3.638,4.225-3.638,7.767v33.641c0,1.473,0.668,2.556,1.985,3.22c1.323,0.654,2.594,0.657,3.826-0.002
		c0.238-0.124,0.43-0.25,0.606-0.393l3.953-3.211v50.725c0,3.519,1.663,5.23,5.083,5.23c3.443,0,5.418-2.022,5.418-5.546
		l-0.004-45.149h4.849l0.003,45.149c0,3.525,1.97,5.546,5.405,5.546c3.43,0,5.098-1.711,5.098-5.23V97.816l4.029,3.561
		c0.187,0.164,0.363,0.302,0.539,0.42c1.234,0.82,2.505,0.809,3.812-0.006c1.329-0.836,1.979-2.138,1.979-3.975V66.203
		C99.362,62.823,98.259,60.279,95.989,58.427z"/>
	<path style="fill:#305CB3;" d="M99.055,54.671c-3.139-2.562-7.341-3.861-12.488-3.861H65.841c-4.847,0-8.946,1.136-12.177,3.373
		c-3.75,2.58-5.732,6.647-5.732,11.758v33.641c0,3.309,1.696,6.061,4.667,7.557c1.871,0.927,3.83,1.211,5.703,0.859v41.923
		c0,6.217,3.805,10.079,9.931,10.079c3.309,0,6.032-1.212,7.841-3.304C77.88,158.788,80.6,160,83.904,160
		c6.135,0,9.946-3.862,9.946-10.079v-42.831c2.064,0.43,4.167,0.017,6.104-1.189c2.745-1.726,4.256-4.598,4.256-8.085V66.203
		C104.211,61.343,102.476,57.463,99.055,54.671z M99.362,97.816c0,1.837-0.65,3.139-1.979,3.975
		c-1.308,0.814-2.579,0.826-3.812,0.006c-0.176-0.118-0.353-0.257-0.539-0.42l-4.029-3.561v52.105c0,3.519-1.667,5.23-5.098,5.23
		c-3.436,0-5.405-2.022-5.405-5.546l-0.003-45.149h-4.849l0.004,45.149c0,3.525-1.976,5.546-5.418,5.546
		c-3.42,0-5.083-1.711-5.083-5.23V99.196l-3.953,3.211c-0.176,0.143-0.369,0.269-0.606,0.393c-1.232,0.659-2.502,0.656-3.826,0.002
		c-1.317-0.664-1.985-1.747-1.985-3.22V65.941c0-3.542,1.188-6.081,3.638-7.767c2.411-1.669,5.58-2.515,9.423-2.515h20.727
		c4.001,0,7.17,0.932,9.421,2.768c2.27,1.852,3.373,4.396,3.373,7.776V97.816z"/>
	<path style="fill:#A5DBFF;" d="M76.066,41.021c2.952,0,5.416-1.028,7.532-3.145c2.103-2.102,3.125-4.605,3.125-7.651
		c0-2.876-1.022-5.296-3.125-7.398c-2.113-2.112-4.577-3.138-7.532-3.138c-2.898,0-5.427,1.055-7.517,3.134
		c-2.105,2.105-3.13,4.567-3.13,7.523c0,2.97,1.021,5.432,3.123,7.527C70.665,39.991,73.126,41.021,76.066,41.021z"/>
	<path style="fill:#305CB3;" d="M76.066,45.869c4.243,0,7.931-1.536,10.96-4.564c3.016-3.015,4.545-6.743,4.545-11.08
		c0-4.169-1.529-7.812-4.545-10.828c-3.027-3.024-6.714-4.557-10.96-4.557c-4.227,0-7.906,1.529-10.941,4.55
		c-3.022,3.022-4.555,6.708-4.555,10.955c0,4.264,1.53,7.952,4.547,10.96C68.153,44.334,71.837,45.869,76.066,45.869z
		 M68.549,22.824c2.09-2.08,4.619-3.134,7.517-3.134c2.956,0,5.419,1.026,7.532,3.138c2.103,2.101,3.125,4.522,3.125,7.398
		c0,3.045-1.022,5.548-3.125,7.651c-2.116,2.117-4.581,3.145-7.532,3.145c-2.94,0-5.401-1.029-7.524-3.148
		c-2.102-2.095-3.123-4.557-3.123-7.527C65.419,27.391,66.444,24.929,68.549,22.824z"/>
</g>
</svg>
