<?xml version="1.0" encoding="iso-8859-1"?>
<!-- Generator: Adobe Illustrator 18.0.0, SVG Export Plug-In . SVG Version: 6.00 Build 0)  -->
<!DOCTYPE svg PUBLIC "-//W3C//DTD SVG 1.1//EN" "http://www.w3.org/Graphics/SVG/1.1/DTD/svg11.dtd">
<svg version="1.1" id="Layer_1" xmlns="http://www.w3.org/2000/svg" xmlns:xlink="http://www.w3.org/1999/xlink" x="0px" y="0px"
	 viewBox="0 0 259 160" style="enable-background:new 0 0 259 160;" xml:space="preserve">
<g>
	<path style="fill:#F9D5C2;" d="M229.971,47.937c0.212,0,0.385,0.143,0.385,0.317v82.184c0,0.174-0.173,0.317-0.385,0.317H70.412
		c-0.212,0-0.385-0.143-0.385-0.317v-9.257c-1.596,0.227-3.211,0.391-4.844,0.492c0,5.281,0,10.037,0,13.966H235.2
		c0-27.701,0-96.849,0-96.849c0-3.021-2.405-5.47-5.371-5.47c-5.22,0-68.836,0-114.156,0c2.327,4.571,4.096,9.47,5.212,14.617
		H229.971z M150.21,38.193c1.346,0,2.436,1.091,2.436,2.436c0,1.346-1.091,2.436-2.436,2.436c-1.345,0-2.436-1.091-2.436-2.436
		C147.775,39.283,148.865,38.193,150.21,38.193z"/>
	<path style="fill:#F9D5C2;" d="M225.484,125.883V52.809H121.731c0.352,2.649,0.551,5.347,0.551,8.092
		c0,28.987-20.257,53.226-47.383,59.377v5.605H225.484z M127.068,82.055l93.758,0v4.872l-93.758,0V82.055z M127.068,91.8l93.758,0
		v4.872l-93.758,0V91.8z M127.068,101.544l93.758,0v4.872l-93.758,0V101.544z"/>
	<path style="fill:#FF833D;" d="M70.412,130.756h159.559c0.212,0,0.385-0.143,0.385-0.317V48.254c0-0.174-0.173-0.317-0.385-0.317
		H120.886c0.347,1.601,0.626,3.227,0.845,4.872h103.753v73.074H74.899v-5.605c-1.602,0.363-3.225,0.668-4.872,0.903v9.257
		C70.027,130.613,70.2,130.756,70.412,130.756z"/>
	<path style="fill:#F9D5C2;" d="M46.772,140.512v7.459c0,0.827,0.212,1.585,0.547,1.957c1.368,1.521,5.181,5.2,10.068,5.2
		c17.133,0,168.496,0,185.646,0c4.886,0,8.7-3.679,10.068-5.2c0.335-0.373,0.547-1.131,0.547-1.957v-7.459
		C248.54,140.512,54.917,140.512,46.772,140.512z M173.317,145.384v4.872h-46.248v-4.872H173.317z"/>
	<path style="fill:#FF833D;" d="M253.649,135.639h-13.576V38.79c0-5.702-4.595-10.342-10.243-10.342H112.905
		c0.995,1.577,1.918,3.202,2.768,4.872c45.32,0,108.936,0,114.156,0c2.966,0,5.371,2.449,5.371,5.47c0,0,0,69.148,0,96.849H65.183
		c0-3.929,0-8.685,0-13.966c-1.259,0.078-2.524,0.13-3.802,0.13c-0.359,0-0.713-0.021-1.07-0.027v13.863H46.772H41.9v4.872v7.459
		c0,1.202,0.233,3.477,1.796,5.215c1.843,2.049,6.865,6.815,13.691,6.815h185.646c6.826,0,11.848-4.765,13.69-6.814
		c1.563-1.737,1.797-4.013,1.797-5.215v-7.459v-4.872H253.649z M253.649,147.97c0,0.827-0.212,1.585-0.547,1.957
		c-1.368,1.521-5.181,5.2-10.068,5.2c-17.15,0-168.514,0-185.646,0c-4.887,0-8.7-3.679-10.068-5.2
		c-0.335-0.373-0.547-1.13-0.547-1.957v-7.459c8.145,0,201.767,0,206.876,0V147.97z"/>
	<rect x="127.069" y="145.384" style="fill:#FF833D;" width="46.248" height="4.872"/>
	<rect x="127.067" y="101.544" style="fill:#FF833D;" width="93.758" height="4.872"/>
	<rect x="127.067" y="91.8" style="fill:#FF833D;" width="93.758" height="4.872"/>
	<rect x="127.067" y="82.055" style="fill:#FF833D;" width="93.758" height="4.872"/>
	<circle style="fill:#FF833D;" cx="150.21" cy="40.629" r="2.436"/>
	<path style="fill:#A5DBFF;" d="M5.351,60.902c0,30.895,25.135,56.029,56.029,56.029s56.029-25.135,56.029-56.029
		c0-30.895-25.135-56.029-56.029-56.029S5.351,30.007,5.351,60.902z M61.381,12.18c26.908,0,48.721,21.813,48.721,48.721
		c0,26.908-21.813,48.721-48.721,48.721S12.659,87.81,12.659,60.902C12.659,33.994,34.473,12.18,61.381,12.18z"/>
	<path style="fill:#305CB3;" d="M65.183,121.673c1.633-0.101,3.248-0.265,4.844-0.492c1.647-0.234,3.27-0.539,4.872-0.903
		c27.125-6.151,47.383-30.39,47.383-59.377c0-2.746-0.199-5.443-0.551-8.092c-0.219-1.645-0.498-3.271-0.845-4.872
		c-1.116-5.146-2.885-10.046-5.212-14.617c-0.85-1.67-1.773-3.295-2.768-4.872C102.119,11.36,83.082,0,61.381,0
		C27.746,0,0.479,27.267,0.479,60.902c0,33.276,26.692,60.301,59.832,60.874c0.357,0.006,0.711,0.027,1.07,0.027
		C62.659,121.803,63.924,121.751,65.183,121.673z M117.41,60.902c0,30.895-25.135,56.029-56.029,56.029S5.351,91.796,5.351,60.902
		c0-30.895,25.135-56.029,56.029-56.029S117.41,30.007,117.41,60.902z"/>
	<path style="fill:#A5DBFF;" d="M17.532,60.902c0,7.667,1.983,14.877,5.456,21.154h31.085v2.436c0,4.03,3.278,7.308,7.308,7.308
		s7.308-3.278,7.308-7.308v-2.436h31.085c3.472-6.277,5.455-13.487,5.455-21.154c0-24.178-19.67-43.849-43.849-43.849
		C37.202,17.052,17.532,36.723,17.532,60.902z M32.328,68.408c-4.03,0-7.308-3.278-7.308-7.308s3.278-7.308,7.308-7.308
		s7.308,3.278,7.308,7.308S36.358,68.408,32.328,68.408z M45.915,45.435c-1.38,1.38-3.215,2.141-5.167,2.141
		c-1.952,0-3.787-0.76-5.168-2.14c-2.849-2.85-2.849-7.486,0-10.335c1.381-1.381,3.216-2.141,5.168-2.141
		c1.952,0,3.787,0.76,5.167,2.141C48.764,37.95,48.764,42.586,45.915,45.435z M90.596,67.797c-4.03,0-7.308-3.278-7.308-7.308
		s3.278-7.308,7.308-7.308c4.03,0,7.308,3.278,7.308,7.308S94.626,67.797,90.596,67.797z M67.748,64.048
		c0.849,1.194,1.353,2.648,1.353,4.221c0,4.03-3.278,7.308-7.308,7.308s-7.308-3.278-7.308-7.308s3.278-7.308,7.308-7.308
		c0.685,0,1.345,0.101,1.974,0.278l9.123-12.946c0.084,0.089,0.159,0.184,0.246,0.271c1.092,1.092,2.358,1.943,3.732,2.544
		L67.748,64.048z M86.916,34.784c2.849,2.85,2.849,7.486,0,10.335c-1.381,1.381-3.216,2.141-5.168,2.141s-3.787-0.76-5.167-2.141
		c-1.381-1.38-2.141-3.215-2.141-5.168c0-1.952,0.76-3.787,2.141-5.168c1.38-1.38,3.215-2.14,5.167-2.14
		S85.535,33.404,86.916,34.784z M68.689,31.721c0,4.03-3.278,7.308-7.308,7.308s-7.308-3.278-7.308-7.308s3.278-7.308,7.308-7.308
		S68.689,27.691,68.689,31.721z"/>
	<path style="fill:#A5DBFF;" d="M61.381,96.672c-5.882,0-10.803-4.192-11.936-9.744H26.117
		c7.994,10.803,20.823,17.823,35.264,17.823c14.441,0,27.27-7.02,35.264-17.823H73.316C72.184,92.48,67.262,96.672,61.381,96.672z"
		/>
	<path style="fill:#305CB3;" d="M61.381,109.623c26.908,0,48.721-21.813,48.721-48.721c0-26.908-21.813-48.721-48.721-48.721
		S12.659,33.994,12.659,60.902C12.659,87.81,34.473,109.623,61.381,109.623z M105.23,60.902c0,7.667-1.983,14.877-5.455,21.154
		H68.689v2.436c0,4.03-3.278,7.308-7.308,7.308s-7.308-3.278-7.308-7.308v-2.436H22.987c-3.472-6.277-5.456-13.487-5.456-21.154
		c0-24.178,19.671-43.849,43.849-43.849C85.559,17.052,105.23,36.723,105.23,60.902z M96.645,86.928
		c-7.994,10.803-20.823,17.823-35.264,17.823c-14.441,0-27.269-7.02-35.264-17.823h23.328c1.132,5.553,6.054,9.744,11.936,9.744
		s10.803-4.192,11.936-9.744H96.645z"/>
	<circle style="fill:#A5DBFF;" cx="61.381" cy="31.721" r="2.436"/>
	<path style="fill:#305CB3;" d="M54.072,31.721c0,4.03,3.278,7.308,7.308,7.308s7.308-3.278,7.308-7.308s-3.278-7.308-7.308-7.308
		S54.072,27.691,54.072,31.721z M63.817,31.721c0,1.343-1.092,2.436-2.436,2.436s-2.436-1.093-2.436-2.436
		c0-1.343,1.092-2.436,2.436-2.436S63.817,30.378,63.817,31.721z"/>
	<path style="fill:#A5DBFF;" d="M40.747,37.832c-0.651,0-1.263,0.254-1.723,0.714c-0.95,0.949-0.95,2.495,0,3.445
		c0.921,0.919,2.525,0.92,3.446,0c0.95-0.95,0.95-2.496,0-3.445C42.009,38.085,41.398,37.832,40.747,37.832z"/>
	<path style="fill:#305CB3;" d="M40.747,32.96c-1.952,0-3.787,0.76-5.168,2.141c-2.849,2.85-2.849,7.485,0,10.335
		c1.381,1.38,3.216,2.14,5.168,2.14c1.952,0,3.787-0.76,5.167-2.141c2.849-2.85,2.849-7.485,0-10.335
		C44.535,33.72,42.699,32.96,40.747,32.96z M42.47,41.99c-0.921,0.92-2.525,0.919-3.446,0c-0.95-0.95-0.95-2.496,0-3.445
		c0.461-0.46,1.072-0.714,1.723-0.714c0.651,0,1.262,0.253,1.722,0.713C43.419,39.495,43.419,41.041,42.47,41.99z"/>
	<circle style="fill:#A5DBFF;" cx="32.328" cy="61.1" r="2.436"/>
	<path style="fill:#305CB3;" d="M32.328,53.791c-4.03,0-7.308,3.278-7.308,7.308s3.278,7.308,7.308,7.308s7.308-3.278,7.308-7.308
		S36.358,53.791,32.328,53.791z M32.328,63.536c-1.344,0-2.436-1.093-2.436-2.436c0-1.343,1.092-2.436,2.436-2.436
		c1.344,0,2.436,1.093,2.436,2.436C34.764,62.443,33.671,63.536,32.328,63.536z"/>
	<circle style="fill:#A5DBFF;" cx="90.596" cy="60.489" r="2.436"/>
	<path style="fill:#305CB3;" d="M90.596,53.181c-4.03,0-7.308,3.278-7.308,7.308s3.278,7.308,7.308,7.308
		c4.03,0,7.308-3.278,7.308-7.308S94.626,53.181,90.596,53.181z M90.596,62.925c-1.344,0-2.436-1.093-2.436-2.436
		c0-1.343,1.092-2.436,2.436-2.436c1.344,0,2.436,1.093,2.436,2.436C93.032,61.832,91.94,62.925,90.596,62.925z"/>
	<path style="fill:#305CB3;" d="M73.135,48.564c-0.087-0.087-0.162-0.182-0.246-0.271l-9.123,12.946
		c-0.629-0.177-1.289-0.278-1.974-0.278c-4.03,0-7.308,3.278-7.308,7.308s3.278,7.308,7.308,7.308s7.308-3.278,7.308-7.308
		c0-1.573-0.504-3.028-1.353-4.221l9.119-12.94C75.493,50.507,74.226,49.656,73.135,48.564z"/>
	<path style="fill:#A5DBFF;" d="M83.471,41.674c0.95-0.949,0.95-2.495,0-3.445c-0.461-0.46-1.072-0.713-1.723-0.713
		s-1.262,0.253-1.722,0.713c-0.461,0.461-0.714,1.072-0.714,1.722c0,0.651,0.253,1.262,0.714,1.722
		C80.946,42.595,82.55,42.594,83.471,41.674z"/>
	<path style="fill:#305CB3;" d="M76.58,34.784c-1.381,1.38-2.141,3.216-2.141,5.168c0,1.952,0.76,3.788,2.141,5.168
		c1.38,1.38,3.215,2.141,5.167,2.141s3.787-0.76,5.168-2.141c2.849-2.85,2.849-7.485,0-10.335c-1.381-1.38-3.216-2.14-5.168-2.14
		S77.96,33.404,76.58,34.784z M79.311,39.952c0-0.65,0.253-1.262,0.714-1.722c0.461-0.46,1.071-0.713,1.722-0.713
		s1.263,0.253,1.723,0.713c0.95,0.95,0.95,2.496,0,3.445c-0.921,0.92-2.525,0.921-3.446,0
		C79.565,41.214,79.311,40.602,79.311,39.952z"/>
</g>
</svg>
