<?xml version="1.0" encoding="iso-8859-1"?>
<!-- Generator: Adobe Illustrator 18.0.0, SVG Export Plug-In . SVG Version: 6.00 Build 0)  -->
<!DOCTYPE svg PUBLIC "-//W3C//DTD SVG 1.1//EN" "http://www.w3.org/Graphics/SVG/1.1/DTD/svg11.dtd">
<svg version="1.1" id="Layer_1" xmlns="http://www.w3.org/2000/svg" xmlns:xlink="http://www.w3.org/1999/xlink" x="0px" y="0px"
	 viewBox="0 0 228 160" style="enable-background:new 0 0 228 160;" xml:space="preserve">
<g>
	<polygon style="fill:#F9D5C2;" points="202.794,124.207 202.935,124.477 202.935,124.19 	"/>
	<path style="fill:#F9D5C2;" d="M5.27,24.105v130.17h197.557l-12.441-23.942l-9.692,10.831c-1.391,1.617-3.369,2.631-5.54,2.821
		c-1.105,0.099-2.224-0.03-3.286-0.374c-3.194-1.037-5.435-3.868-5.712-7.213l-0.916-11.059l-48.734,0v-4.821l48.335,0l-0.799-9.642
		l-47.536,0v-4.821l47.136,0l-0.799-9.642l-46.337,0v-4.821l45.938,0l-0.781-9.429h-45.164V33.626h76.771v48.103l9.666,7.959V24.104
		L5.27,24.105z M106.586,144.913H14.646V33.626h91.941V144.913z"/>
	<rect x="5.27" y="4.821" style="fill:#F9D5C2;" width="197.665" height="14.463"/>
	<polygon style="fill:#FF833D;" points="207.756,159.096 207.756,159.004 207.575,159.096 	"/>
	<path style="fill:#FF833D;" d="M202.826,154.275H5.27V24.105l197.665-0.001v65.584l4.821,3.97V0H0.449v159.096h204.882
		L202.826,154.275z M5.27,19.284V4.821h197.665v14.462L5.27,19.284z"/>
	<polygon style="fill:#FF833D;" points="202.935,124.19 202.935,124.477 207.756,133.755 207.756,123.611 	"/>
	<rect x="19.467" y="38.447" style="fill:#F9D5C2;" width="82.298" height="101.645"/>
	<path style="fill:#FF833D;" d="M14.646,144.913h91.941V33.626H14.646V144.913z M19.467,38.447h82.298v101.645H19.467V38.447z"/>
	<path style="fill:#FF833D;" d="M116.497,33.626v48.537h45.164l-0.73-8.806c-0.277-3.333,1.46-6.49,4.424-8.041
		c1.183-0.62,2.514-0.947,3.85-0.947c1.921,0,3.796,0.672,5.279,1.894l18.784,15.467V33.626H116.497z"/>
	<polygon style="fill:#FF833D;" points="116.505,96.413 162.842,96.413 162.443,91.592 116.505,91.592 	"/>
	<polygon style="fill:#FF833D;" points="116.505,110.876 164.041,110.876 163.641,106.055 116.505,106.055 	"/>
	<polygon style="fill:#FF833D;" points="116.505,125.34 165.239,125.34 164.839,120.518 116.505,120.519 	"/>
	<path style="fill:#A5DBFF;" d="M219.637,117.331c1.869-0.209,3.245-1.88,3.08-3.765c-0.086-0.977-0.585-1.879-1.369-2.474
		l-0.075-0.06L171.42,69.983c-1.055-0.869-2.618-1.03-3.829-0.396c-1.244,0.651-1.972,1.975-1.856,3.372l5.223,63.042
		c0.117,1.403,1.057,2.589,2.395,3.024c0.444,0.144,0.916,0.195,1.377,0.157c0.911-0.08,1.742-0.506,2.339-1.199l14.376-16.065
		l16.428,31.614l3.736-1.904l-16.304-31.377L219.637,117.331z"/>
	<path style="fill:#305CB3;" d="M227.519,113.145c-0.203-2.315-1.375-4.448-3.217-5.863l-16.547-13.625l-4.821-3.97l-9.666-7.959
		l-18.784-15.467c-1.483-1.221-3.358-1.894-5.279-1.894c-1.336,0-2.668,0.328-3.85,0.947c-2.964,1.552-4.701,4.708-4.424,8.041
		l0.73,8.806l0.781,9.429l0.399,4.821l0.799,9.642l0.4,4.821l0.799,9.642l0.399,4.821l0.916,11.059
		c0.277,3.345,2.518,6.176,5.712,7.213c1.062,0.344,2.181,0.473,3.286,0.374c2.171-0.19,4.15-1.204,5.54-2.821l9.692-10.831
		l12.441,23.942l2.505,4.821l0.47,0.904l1.774-0.904l0.181-0.092l10.373-5.286l-10.373-19.962l-4.821-9.278l-0.14-0.27l0.14-0.017
		l4.821-0.58l12.137-1.459l0.141-0.016C224.564,121.706,227.917,117.686,227.519,113.145z M211.611,151.629l-3.736,1.904
		l-16.428-31.614l-14.376,16.065c-0.597,0.693-1.427,1.119-2.339,1.199c-0.46,0.038-0.933-0.013-1.377-0.157
		c-1.339-0.435-2.279-1.621-2.395-3.024l-5.223-63.042c-0.116-1.397,0.612-2.721,1.856-3.372c1.211-0.634,2.774-0.473,3.829,0.396
		l49.852,41.049l0.075,0.06c0.784,0.594,1.283,1.496,1.369,2.474c0.165,1.884-1.211,3.556-3.08,3.765l-24.331,2.922L211.611,151.629
		z"/>
</g>
</svg>
