<?xml version="1.0" encoding="utf-8"?>
<!-- Generator: Adobe Illustrator 16.0.0, SVG Export Plug-In . SVG Version: 6.00 Build 0)  -->
<!DOCTYPE svg PUBLIC "-//W3C//DTD SVG 1.1//EN" "http://www.w3.org/Graphics/SVG/1.1/DTD/svg11.dtd">
<svg version="1.1" xmlns="http://www.w3.org/2000/svg" xmlns:xlink="http://www.w3.org/1999/xlink" x="0px" y="0px" width="281px"
	 height="169px" viewBox="0 0 281 169" enable-background="new 0 0 281 169" xml:space="preserve">
<g id="Layer_1">
	<g>
		<defs>
			<rect id="SVGID_1_" x="-1505" y="-2040" width="2024" height="3212"/>
		</defs>
		<clipPath id="SVGID_2_">
			<use xlink:href="#SVGID_1_"  overflow="visible"/>
		</clipPath>
	</g>
	<g>
		<defs>
			<rect id="SVGID_3_" x="-1505" y="-2040" width="2024" height="3212"/>
		</defs>
		<clipPath id="SVGID_4_">
			<use xlink:href="#SVGID_3_"  overflow="visible"/>
		</clipPath>
	</g>
	<g>
		<defs>
			<rect id="SVGID_5_" x="-1505" y="-2040" width="2024" height="3212"/>
		</defs>
		<clipPath id="SVGID_6_">
			<use xlink:href="#SVGID_5_"  overflow="visible"/>
		</clipPath>
	</g>
	<g>
		<defs>
			<rect id="SVGID_7_" x="-1505" y="-2040" width="2024" height="3212"/>
		</defs>
		<clipPath id="SVGID_8_">
			<use xlink:href="#SVGID_7_"  overflow="visible"/>
		</clipPath>
		<path clip-path="url(#SVGID_8_)" fill="#F9D5C2" d="M37.92,68.458H18.808c-4.003,0-7.356,0.912-9.963,2.717
			c-2.867,1.974-4.316,4.999-4.316,9v31.022c0,2.219,1.091,3.973,3.061,4.965c0.92,0.456,1.868,0.697,2.801,0.697
			c0.954,0,1.896-0.246,2.788-0.725c0.332-0.175,0.633-0.371,0.913-0.598v42.079c0,4.49,2.524,7.059,6.922,7.059
			c4.41,0,7.231-2.86,7.231-7.35l-0.004-41.634l0.004,41.634c0,4.489,2.814,7.35,7.221,7.35c4.41,0,6.935-2.568,6.935-7.059v-43.09
			c0.255,0.226,0.494,0.41,0.731,0.569c0.935,0.62,1.938,0.941,2.963,0.941c1.012,0,2.011-0.302,2.98-0.905
			c1.319-0.831,2.879-2.458,2.879-5.563V80.416c0-3.774-1.32-6.77-3.933-8.902C45.539,69.489,42.137,68.458,37.92,68.458"/>
		<path clip-path="url(#SVGID_8_)" fill="none" stroke="#FF833D" stroke-width="5" stroke-miterlimit="10" d="M37.92,68.458H18.808
			c-4.003,0-7.356,0.912-9.963,2.717c-2.867,1.974-4.316,4.999-4.316,9v31.022c0,2.219,1.091,3.973,3.061,4.965
			c0.92,0.456,1.868,0.697,2.801,0.697c0.954,0,1.896-0.246,2.788-0.725c0.332-0.175,0.633-0.371,0.913-0.598v42.079
			c0,4.49,2.524,7.059,6.922,7.059c4.41,0,7.231-2.86,7.231-7.35l-0.004-41.634l0.004,41.634c0,4.489,2.814,7.35,7.221,7.35
			c4.41,0,6.935-2.568,6.935-7.059v-43.09c0.255,0.226,0.494,0.41,0.731,0.569c0.935,0.62,1.938,0.941,2.963,0.941
			c1.012,0,2.011-0.302,2.98-0.905c1.319-0.831,2.879-2.458,2.879-5.563V80.416c0-3.774-1.32-6.77-3.933-8.902
			C45.539,69.489,42.137,68.458,37.92,68.458z"/>
		<path clip-path="url(#SVGID_8_)" fill="#F9D5C2" d="M30.629,34.309c-3.284,0-6.151,1.195-8.508,3.541
			c-2.358,2.357-3.546,5.225-3.546,8.522c0,3.308,1.186,6.18,3.536,8.523c2.366,2.36,5.233,3.555,8.518,3.555
			c3.293,0,6.164-1.192,8.525-3.555c2.352-2.351,3.537-5.259,3.537-8.636c0-3.222-1.186-6.053-3.537-8.403
			C36.793,35.497,33.924,34.309,30.629,34.309"/>
		<path clip-path="url(#SVGID_8_)" fill="none" stroke="#FF833D" stroke-width="5" stroke-miterlimit="10" d="M30.629,34.309
			c-3.284,0-6.151,1.195-8.508,3.541c-2.358,2.357-3.546,5.225-3.546,8.522c0,3.308,1.186,6.18,3.536,8.523
			c2.366,2.36,5.233,3.555,8.518,3.555c3.293,0,6.164-1.192,8.525-3.555c2.352-2.351,3.537-5.259,3.537-8.636
			c0-3.222-1.186-6.053-3.537-8.403C36.793,35.497,33.924,34.309,30.629,34.309z"/>
		<path clip-path="url(#SVGID_8_)" fill="#F9D5C2" d="M113.721,68.458H94.609c-4.004,0-7.357,0.912-9.964,2.717
			c-2.866,1.974-4.315,4.999-4.315,9v29.022c0,2.219,1.09,3.973,3.06,4.965c0.92,0.456,1.869,0.697,2.802,0.697
			c0.953,0,1.896-0.246,2.787-0.725c0.332-0.175,0.634-0.371,0.913-0.598v44.079c0,4.49,2.525,7.059,6.922,7.059
			c4.41,0,7.231-2.86,7.231-7.35l-0.003-41.634l0.003,41.634c0,4.489,2.814,7.35,7.221,7.35c4.41,0,6.937-2.568,6.937-7.059v-43.09
			c0.254,0.226,0.493,0.41,0.729,0.569c0.936,0.62,1.939,0.941,2.963,0.941c1.013,0,2.012-0.302,2.981-0.905
			c1.319-0.831,2.878-2.458,2.878-5.563V80.416c0-3.774-1.32-6.77-3.932-8.902C121.34,69.489,117.938,68.458,113.721,68.458"/>
		<path clip-path="url(#SVGID_8_)" fill="none" stroke="#FF833D" stroke-width="5" stroke-miterlimit="10" d="M113.721,68.458
			H94.609c-4.004,0-7.357,0.912-9.964,2.717c-2.866,1.974-4.315,4.999-4.315,9v29.022c0,2.219,1.09,3.973,3.06,4.965
			c0.92,0.456,1.869,0.697,2.802,0.697c0.953,0,1.896-0.246,2.787-0.725c0.332-0.175,0.634-0.371,0.913-0.598v44.079
			c0,4.49,2.525,7.059,6.922,7.059c4.41,0,7.231-2.86,7.231-7.35l-0.003-41.634l0.003,41.634c0,4.489,2.814,7.35,7.221,7.35
			c4.41,0,6.937-2.568,6.937-7.059v-43.09c0.254,0.226,0.493,0.41,0.729,0.569c0.936,0.62,1.939,0.941,2.963,0.941
			c1.013,0,2.012-0.302,2.981-0.905c1.319-0.831,2.878-2.458,2.878-5.563V80.416c0-3.774-1.32-6.77-3.932-8.902
			C121.34,69.489,117.938,68.458,113.721,68.458z"/>
		<path clip-path="url(#SVGID_8_)" fill="#F9D5C2" d="M75.808,68.458H56.696c-4.003,0-7.357,0.912-9.964,2.717
			c-2.866,1.974-4.315,4.999-4.315,9v31.022c0,2.219,1.09,3.973,3.06,4.965c0.92,0.456,1.869,0.697,2.803,0.697
			c0.953,0,1.895-0.246,2.787-0.725c0.332-0.175,0.633-0.371,0.912-0.598v42.079c0,4.49,2.525,7.059,6.922,7.059
			c4.41,0,7.231-2.86,7.231-7.35l-0.003-41.634l0.003,41.634c0,4.489,2.815,7.35,7.221,7.35c4.41,0,6.937-2.568,6.937-7.059v-43.09
			c0.254,0.226,0.493,0.41,0.729,0.569c0.936,0.62,1.939,0.941,2.964,0.941c1.012,0,2.011-0.302,2.98-0.905
			c1.319-0.831,2.878-2.458,2.878-5.563V80.416c0-3.774-1.32-6.77-3.932-8.902C83.427,69.489,80.025,68.458,75.808,68.458"/>
		<path clip-path="url(#SVGID_8_)" fill="none" stroke="#FF833D" stroke-width="5" stroke-miterlimit="10" d="M75.808,68.458H56.696
			c-4.003,0-7.357,0.912-9.964,2.717c-2.866,1.974-4.315,4.999-4.315,9v31.022c0,2.219,1.09,3.973,3.06,4.965
			c0.92,0.456,1.869,0.697,2.803,0.697c0.953,0,1.895-0.246,2.787-0.725c0.332-0.175,0.633-0.371,0.912-0.598v42.079
			c0,4.49,2.525,7.059,6.922,7.059c4.41,0,7.231-2.86,7.231-7.35l-0.003-41.634l0.003,41.634c0,4.489,2.815,7.35,7.221,7.35
			c4.41,0,6.937-2.568,6.937-7.059v-43.09c0.254,0.226,0.493,0.41,0.729,0.569c0.936,0.62,1.939,0.941,2.964,0.941
			c1.012,0,2.011-0.302,2.98-0.905c1.319-0.831,2.878-2.458,2.878-5.563V80.416c0-3.774-1.32-6.77-3.932-8.902
			C83.427,69.489,80.025,68.458,75.808,68.458z"/>
		<path clip-path="url(#SVGID_8_)" fill="#F9D5C2" d="M101.755,34.309c-3.284,0-6.151,1.195-8.508,3.541
			c-2.358,2.357-3.546,5.225-3.546,8.522c0,3.308,1.186,6.18,3.537,8.523c2.365,2.36,5.232,3.555,8.517,3.555
			c3.293,0,6.164-1.192,8.526-3.555c2.351-2.351,3.537-5.259,3.537-8.636c0-3.222-1.187-6.053-3.537-8.403
			C107.919,35.497,105.05,34.309,101.755,34.309"/>
		<path clip-path="url(#SVGID_8_)" fill="none" stroke="#FF833D" stroke-width="5" stroke-miterlimit="10" d="M101.755,34.309
			c-3.284,0-6.151,1.195-8.508,3.541c-2.358,2.357-3.546,5.225-3.546,8.522c0,3.308,1.186,6.18,3.537,8.523
			c2.365,2.36,5.232,3.555,8.517,3.555c3.293,0,6.164-1.192,8.526-3.555c2.351-2.351,3.537-5.259,3.537-8.636
			c0-3.222-1.187-6.053-3.537-8.403C107.919,35.497,105.05,34.309,101.755,34.309z"/>
		<path clip-path="url(#SVGID_8_)" fill="#F9D5C2" d="M66.09,34.309c-3.284,0-6.151,1.195-8.508,3.541
			c-2.358,2.357-3.547,5.225-3.547,8.522c0,3.308,1.187,6.18,3.537,8.523c2.366,2.36,5.233,3.555,8.518,3.555
			c3.293,0,6.164-1.192,8.525-3.555c2.352-2.351,3.537-5.259,3.537-8.636c0-3.222-1.186-6.053-3.537-8.403
			C72.254,35.497,69.385,34.309,66.09,34.309"/>
		<path clip-path="url(#SVGID_8_)" fill="none" stroke="#FF833D" stroke-width="5" stroke-miterlimit="10" d="M66.09,34.309
			c-3.284,0-6.151,1.195-8.508,3.541c-2.358,2.357-3.547,5.225-3.547,8.522c0,3.308,1.187,6.18,3.537,8.523
			c2.366,2.36,5.233,3.555,8.518,3.555c3.293,0,6.164-1.192,8.525-3.555c2.352-2.351,3.537-5.259,3.537-8.636
			c0-3.222-1.186-6.053-3.537-8.403C72.254,35.497,69.385,34.309,66.09,34.309z"/>
		<path clip-path="url(#SVGID_8_)" fill="#A5DBFF" d="M206.415,5.557c-38.118,0-69.019,30.9-69.019,69.018
			c0,21.751,10.073,41.141,25.797,53.791L133.3,143.594h73.115c38.118,0,69.02-30.9,69.02-69.02
			C275.435,36.457,244.529,5.557,206.415,5.557"/>
		
			<path clip-path="url(#SVGID_8_)" fill="none" stroke="#305CB3" stroke-width="5" stroke-linecap="round" stroke-linejoin="round" stroke-miterlimit="10" d="
			M206.415,5.557c-38.118,0-69.019,30.9-69.019,69.018c0,21.751,10.073,41.141,25.797,53.791L133.3,143.594h73.115
			c38.118,0,69.02-30.9,69.02-69.02C275.435,36.457,244.529,5.557,206.415,5.557z"/>
		<path clip-path="url(#SVGID_8_)" fill="#A5DBFF" d="M218.934,101.436h-25.036c-1.059,0-1.929-0.829-1.982-1.884l-0.04-0.837
			c-0.004-0.086-0.055-0.954-0.204-2.221c-0.419-3.539-1.168-6.498-2.11-8.333c-1.373-2.67-2.834-6.075-3.82-8.466
			c-0.381-0.797-0.754-1.727-1.067-2.666c-0.016-0.049-0.032-0.103-0.046-0.158l-0.003,0.002l-0.604-2.195
			c-0.434-1.918-0.64-3.783-0.64-5.636c0-13.34,10.334-24.193,23.037-24.193c12.704,0,23.039,10.854,23.039,24.193
			c0,1.847-0.207,3.709-0.617,5.54l-0.627,2.291v-0.002c-0.026,0.089-0.054,0.176-0.089,0.26c-0.274,0.834-0.646,1.764-1.073,2.658
			c-0.942,2.292-2.401,5.702-3.774,8.374c-1.855,3.601-2.275,9.849-2.317,10.55l-0.041,0.836
			C220.861,100.604,219.99,101.436,218.934,101.436"/>
		
			<path clip-path="url(#SVGID_8_)" fill="none" stroke="#305CB3" stroke-width="5" stroke-linecap="round" stroke-linejoin="round" stroke-miterlimit="10" d="
			M218.934,101.436h-25.036c-1.059,0-1.929-0.829-1.982-1.884l-0.04-0.837c-0.004-0.086-0.055-0.954-0.204-2.221
			c-0.419-3.539-1.168-6.498-2.11-8.333c-1.373-2.67-2.834-6.075-3.82-8.466c-0.381-0.797-0.754-1.727-1.067-2.666
			c-0.016-0.049-0.032-0.103-0.046-0.158l-0.003,0.002l-0.604-2.195c-0.434-1.918-0.64-3.783-0.64-5.636
			c0-13.34,10.334-24.193,23.037-24.193c12.704,0,23.039,10.854,23.039,24.193c0,1.847-0.207,3.709-0.617,5.54l-0.627,2.291v-0.002
			c-0.026,0.089-0.054,0.176-0.089,0.26c-0.274,0.834-0.646,1.764-1.073,2.658c-0.942,2.292-2.401,5.702-3.774,8.374
			c-1.855,3.601-2.275,9.849-2.317,10.55l-0.041,0.836C220.861,100.604,219.99,101.436,218.934,101.436z"/>
		
			<path clip-path="url(#SVGID_8_)" fill="none" stroke="#305CB3" stroke-width="5" stroke-linecap="round" stroke-linejoin="round" stroke-miterlimit="10" d="
			M194.985,75.884c-0.069-0.168-0.144-0.334-0.221-0.498c-0.184-0.383-0.38-0.867-0.548-1.351c-0.011-0.036-0.021-0.073-0.032-0.109
			l-0.455-1.652c-0.235-1.102-0.35-2.16-0.35-3.231c0-7.826,5.849-14.193,13.037-14.193"/>
		<path clip-path="url(#SVGID_8_)" fill="#305CB3" d="M220.104,113.98h-27.375c-1.38,0-2.5-1.117-2.5-2.5s1.12-2.5,2.5-2.5h27.375
			c1.382,0,2.5,1.117,2.5,2.5S221.484,113.98,220.104,113.98"/>
		<path clip-path="url(#SVGID_8_)" fill="#305CB3" d="M220.104,123.98h-27.375c-1.38,0-2.5-1.117-2.5-2.5s1.12-2.5,2.5-2.5h27.375
			c1.382,0,2.5,1.117,2.5,2.5S221.484,123.98,220.104,123.98"/>
		<path clip-path="url(#SVGID_8_)" fill="#305CB3" d="M253.85,71.286h-14.303c-1.383,0-2.5-1.12-2.5-2.5s1.117-2.5,2.5-2.5h14.303
			c1.383,0,2.5,1.12,2.5,2.5S255.232,71.286,253.85,71.286"/>
		<path clip-path="url(#SVGID_8_)" fill="#305CB3" d="M173.437,71.286h-14.302c-1.38,0-2.5-1.12-2.5-2.5s1.12-2.5,2.5-2.5h14.302
			c1.38,0,2.5,1.12,2.5,2.5S174.816,71.286,173.437,71.286"/>
		<path clip-path="url(#SVGID_8_)" fill="#305CB3" d="M206.415,37.422c-1.38,0-2.5-1.12-2.5-2.5V20.62c0-1.38,1.12-2.5,2.5-2.5
			c1.382,0,2.5,1.12,2.5,2.5v14.302C208.915,36.302,207.797,37.422,206.415,37.422"/>
		<path clip-path="url(#SVGID_8_)" fill="#305CB3" d="M241.013,105.717c-0.64,0-1.28-0.245-1.768-0.732l-10.116-10.116
			c-0.979-0.978-0.979-2.558,0-3.536c0.978-0.977,2.558-0.977,3.535,0l10.117,10.117c0.977,0.977,0.977,2.558,0,3.535
			C242.293,105.472,241.652,105.717,241.013,105.717"/>
		<path clip-path="url(#SVGID_8_)" fill="#305CB3" d="M169.15,103.216c0-0.64,0.245-1.279,0.733-1.768L180,91.332
			c0.978-0.978,2.558-0.978,3.535,0c0.978,0.977,0.978,2.559,0,3.535l-10.116,10.117c-0.978,0.977-2.559,0.977-3.535,0
			C169.396,104.496,169.15,103.856,169.15,103.216"/>
		<path clip-path="url(#SVGID_8_)" fill="#305CB3" d="M172.919,32.182c0.64,0,1.28,0.245,1.769,0.733l10.115,10.116
			c0.979,0.978,0.979,2.558,0,3.535c-0.977,0.978-2.558,0.978-3.535,0l-10.116-10.117c-0.978-0.977-0.978-2.558,0-3.534
			C171.639,32.427,172.279,32.182,172.919,32.182"/>
		<path clip-path="url(#SVGID_8_)" fill="#305CB3" d="M242.105,34.683c0,0.64-0.245,1.28-0.732,1.769l-10.116,10.115
			c-0.979,0.979-2.559,0.979-3.536,0c-0.977-0.977-0.977-2.558,0-3.535l10.117-10.116c0.977-0.978,2.558-0.978,3.535,0
			C241.86,33.402,242.105,34.043,242.105,34.683"/>
	</g>
	<rect id="_x3C_Slice_x3E_" y="-2" fill="none" width="281" height="176"/>
</g>
<g id="Layer_2">
</g>
</svg>
