<?xml version="1.0" encoding="iso-8859-1"?>
<!-- Generator: Adobe Illustrator 18.0.0, SVG Export Plug-In . SVG Version: 6.00 Build 0)  -->
<!DOCTYPE svg PUBLIC "-//W3C//DTD SVG 1.1//EN" "http://www.w3.org/Graphics/SVG/1.1/DTD/svg11.dtd">
<svg version="1.1" id="Layer_1" xmlns="http://www.w3.org/2000/svg" xmlns:xlink="http://www.w3.org/1999/xlink" x="0px" y="0px"
	 viewBox="0 0 272 160" style="enable-background:new 0 0 272 160;" xml:space="preserve">
<g>
	<path style="fill:#F9D5C2;" d="M214.058,114.82v-0.49c-2.597-2.833-4.014-6.459-4.014-10.321c0-8.472,6.891-15.365,15.362-15.365
		c8.473,0,15.365,6.893,15.365,15.365c0,3.85-1.418,7.475-4.014,10.318v0.492h30.582V84.124h-0.866
		c-2.839,2.597-6.465,4.015-10.321,4.015c-8.473,0-15.365-6.892-15.365-15.362c0-8.472,6.892-15.365,15.365-15.365
		c3.855,0,7.481,1.419,10.321,4.017h0.863V30.43h-35.695v-6.769l0.751-0.716c2.105-2.009,3.265-4.701,3.265-7.58
		c0-5.799-4.717-10.516-10.515-10.516s-10.516,4.717-10.516,10.516c0,2.872,1.161,5.565,3.269,7.584l0.747,0.716v6.768h-13.572
		v84.387H214.058z"/>
	<path style="fill:#FF833D;" d="M264.449,79.275l-0.716,0.749c-2.014,2.106-4.706,3.266-7.582,3.266
		c-5.798,0-10.516-4.716-10.516-10.514c0-5.799,4.718-10.516,10.516-10.516c2.874,0,5.567,1.161,7.582,3.268l0.716,0.749h7.734
		V25.582h-35.599c2.537-2.82,3.92-6.404,3.92-10.217C240.504,6.893,233.612,0,225.14,0c-8.472,0-15.365,6.893-15.365,15.365
		c0,3.806,1.384,7.392,3.924,10.219h-8.632v4.848h13.572v-6.768l-0.747-0.716c-2.108-2.018-3.269-4.712-3.269-7.584
		c0-5.799,4.718-10.516,10.516-10.516s10.515,4.717,10.515,10.516c0,2.88-1.16,5.572-3.265,7.58l-0.751,0.716v6.769h35.695v30.998
		h-0.863c-2.84-2.598-6.466-4.017-10.321-4.017c-8.473,0-15.365,6.893-15.365,15.365c0,8.471,6.892,15.362,15.365,15.362
		c3.856,0,7.482-1.418,10.321-4.015h0.866v30.696h-30.582v-0.492c2.597-2.843,4.014-6.468,4.014-10.318
		c0-8.472-6.892-15.365-15.365-15.365c-8.471,0-15.362,6.893-15.362,15.365c0,3.862,1.418,7.488,4.014,10.321v0.49h-8.99v4.848
		h13.838v-7.364l-0.751-0.716c-2.104-2.007-3.263-4.698-3.263-7.579c0-5.799,4.716-10.516,10.513-10.516
		c5.798,0,10.516,4.717,10.516,10.516c0,2.87-1.16,5.563-3.267,7.583l-0.747,0.715v7.361h40.279V79.275H264.449z"/>
	<path style="fill:#A5DBFF;" d="M51.577,25.573h32.864l6.164-10.675h50.266l6.163,10.675h53.187V10.098H51.577V25.573z
		 M78.316,14.903c1.336,0,2.419,1.083,2.419,2.419s-1.083,2.419-2.419,2.419c-1.336,0-2.419-1.083-2.419-2.419
		S76.98,14.903,78.316,14.903z M68.639,14.903c1.336,0,2.419,1.083,2.419,2.419s-1.083,2.419-2.419,2.419
		c-1.336,0-2.419-1.083-2.419-2.419S67.303,14.903,68.639,14.903z M58.963,14.903c1.336,0,2.419,1.083,2.419,2.419
		s-1.083,2.419-2.419,2.419s-2.419-1.083-2.419-2.419S57.627,14.903,58.963,14.903z"/>
	<path style="fill:#A5DBFF;" d="M200.22,30.421h-55.986l-6.163-10.675H93.404L87.24,30.421H51.577v124.73H200.22V30.421z
		 M56.538,150.235V35.415h138.936v114.82H56.538z"/>
	<path style="fill:#305CB3;" d="M205.068,114.82V30.432v-4.848V5.249H46.729V160h158.34v-40.332V114.82z M200.22,25.573h-53.187
		l-6.163-10.675H90.604l-6.164,10.675H51.577V10.098H200.22V25.573z M51.577,155.152V30.421H87.24l6.164-10.675h44.668l6.163,10.675
		h55.986v124.73H51.577z"/>
	<circle style="fill:#305CB3;" cx="58.963" cy="17.322" r="2.419"/>
	<circle style="fill:#305CB3;" cx="68.639" cy="17.322" r="2.419"/>
	<circle style="fill:#305CB3;" cx="78.316" cy="17.322" r="2.419"/>
	<rect x="61.387" y="40.264" style="fill:#A5DBFF;" width="129.239" height="105.123"/>
	<path style="fill:#305CB3;" d="M195.474,35.415H56.538v114.82h138.936V35.415z M61.387,145.387V40.264h129.239v105.123H61.387z"/>
	<rect x="-0.187" y="79.985" style="fill:#FF833D;" width="42.322" height="4.838"/>
	<rect x="-0.187" y="89.661" style="fill:#FF833D;" width="42.322" height="4.838"/>
	<rect x="-0.187" y="99.338" style="fill:#FF833D;" width="42.322" height="4.838"/>
</g>
</svg>
