<?xml version="1.0" encoding="iso-8859-1"?>
<!-- Generator: Adobe Illustrator 18.0.0, SVG Export Plug-In . SVG Version: 6.00 Build 0)  -->
<!DOCTYPE svg PUBLIC "-//W3C//DTD SVG 1.1//EN" "http://www.w3.org/Graphics/SVG/1.1/DTD/svg11.dtd">
<svg version="1.1" id="Layer_1" xmlns="http://www.w3.org/2000/svg" xmlns:xlink="http://www.w3.org/1999/xlink" x="0px" y="0px"
	 viewBox="0 0 136.678 160" style="enable-background:new 0 0 136.678 160;" xml:space="preserve">
<g>
	<polygon style="fill:#F9D5C2;" points="131.748,155.116 131.748,87.23 126.91,87.23 126.87,87.23 126.87,155.116 	"/>
	<polygon style="fill:#FF833D;" points="131.748,155.116 126.87,155.116 126.87,87.23 121.986,87.23 121.986,155.116 117.1,155.116 
		117.1,87.23 112.216,87.23 112.216,155.116 20.993,155.116 17.252,155.116 4.884,155.116 4.884,87.23 0.043,87.23 0,160 
		12.368,160 16.109,160 117.1,160 126.87,160 136.632,160 136.632,87.23 131.748,87.23 	"/>
	<rect x="126.91" y="4.884" style="fill:#A5DBFF;" width="4.884" height="77.463"/>
	<path style="fill:#305CB3;" d="M126.91,0h-9.768H16.149h-3.735H0.043v71.333V87.23h4.841h7.53h3.735h96.067h4.884h0.043h4.844
		h4.884h0.04h4.838h4.884h0.046V0H126.91z M112.259,82.347H21.033h-3.735H4.927V4.884h12.371h3.735h91.226V82.347z M122.026,82.347
		h-4.884V4.884h4.884V82.347z M131.794,82.347h-4.884V4.884h4.884V82.347z"/>
	<polygon style="fill:#F9D5C2;" points="121.986,155.116 121.986,87.23 117.143,87.23 117.1,87.23 117.1,155.116 	"/>
	<rect x="117.143" y="4.884" style="fill:#A5DBFF;" width="4.884" height="77.463"/>
	<path style="fill:#F9D5C2;" d="M17.252,155.116h3.741h91.223V87.23H16.149h-3.735h-7.53v67.886H17.252z M107.436,135.948H9.761
		v-4.884h97.675V135.948z M107.436,126.181H9.761v-4.884h97.675V126.181z M107.436,116.413H9.761v-4.884h97.675V116.413z
		 M9.761,97.638c3.79,0,5.829,1.294,7.468,2.334c1.44,0.913,2.481,1.573,4.851,1.573c2.369,0,3.41-0.66,4.85-1.573
		c1.638-1.04,3.677-2.334,7.466-2.334c3.79,0,5.83,1.293,7.47,2.333c1.441,0.914,2.482,1.574,4.854,1.574s3.413-0.66,4.854-1.574
		c1.64-1.04,3.68-2.333,7.47-2.333v4.884c-2.372,0-3.413,0.66-4.854,1.574c-1.64,1.04-3.68,2.333-7.47,2.333s-5.83-1.293-7.47-2.333
		c-1.441-0.914-2.482-1.574-4.854-1.574c-2.369,0-3.41,0.66-4.85,1.573c-1.638,1.04-3.677,2.334-7.466,2.334
		c-3.789,0-5.828-1.294-7.467-2.333c-1.44-0.914-2.481-1.574-4.852-1.574V97.638z"/>
	<path style="fill:#A5DBFF;" d="M17.297,4.884H4.927v77.463h12.371h3.735h91.226V4.884H21.033H17.297z M33.182,18.109
		c5.184-5.185,12.077-8.04,19.409-8.04c7.331,0,14.225,2.855,19.409,8.039c10.12,10.121,10.665,26.238,1.646,37.011l18.585,18.585
		l-1.727,1.726l-1.727,1.727L70.195,58.575c-4.93,4.136-11.092,6.392-17.604,6.392c-7.332,0-14.225-2.855-19.409-8.04
		c-5.185-5.184-8.04-12.077-8.04-19.409C25.142,30.186,27.997,23.293,33.182,18.109z"/>
	<path style="fill:#FF833D;" d="M22.08,106.428c3.789,0,5.828-1.294,7.466-2.334c1.44-0.913,2.481-1.573,4.85-1.573
		c2.372,0,3.413,0.66,4.854,1.574c1.64,1.04,3.68,2.333,7.47,2.333s5.83-1.293,7.47-2.333c1.441-0.914,2.482-1.574,4.854-1.574
		v-4.884c-3.79,0-5.83,1.293-7.47,2.333c-1.441,0.914-2.482,1.574-4.854,1.574s-3.413-0.66-4.854-1.574
		c-1.64-1.04-3.68-2.333-7.47-2.333c-3.789,0-5.828,1.294-7.466,2.334c-1.44,0.913-2.481,1.573-4.85,1.573
		c-2.37,0-3.411-0.66-4.851-1.573c-1.639-1.04-3.678-2.334-7.468-2.334v4.884c2.371,0,3.412,0.66,4.852,1.574
		C16.252,105.134,18.291,106.428,22.08,106.428z"/>
	<rect x="9.761" y="121.297" style="fill:#FF833D;" width="97.675" height="4.884"/>
	<rect x="9.761" y="111.53" style="fill:#FF833D;" width="97.675" height="4.884"/>
	<rect x="9.761" y="131.065" style="fill:#FF833D;" width="97.675" height="4.884"/>
	<path style="fill:#A5DBFF;" d="M52.591,60.083c6.026,0,11.693-2.347,15.956-6.609c8.797-8.798,8.797-23.113,0-31.912
		c-4.263-4.262-9.93-6.609-15.956-6.609c-6.027,0-11.694,2.347-15.956,6.609c-4.262,4.262-6.609,9.929-6.609,15.956
		c0,6.027,2.347,11.694,6.609,15.956C40.897,57.736,46.564,60.083,52.591,60.083z"/>
	<path style="fill:#305CB3;" d="M52.591,64.967c6.511,0,12.674-2.256,17.604-6.392l18.583,18.583l1.727-1.727l1.727-1.726
		L73.646,55.12C82.665,44.347,82.12,28.229,72,18.109c-5.184-5.184-12.078-8.039-19.409-8.039c-7.332,0-14.225,2.855-19.409,8.04
		c-5.185,5.184-8.04,12.077-8.04,19.409c0,7.332,2.855,14.225,8.04,19.409C38.366,62.112,45.259,64.967,52.591,64.967z
		 M36.635,21.562c4.262-4.262,9.929-6.609,15.956-6.609c6.026,0,11.693,2.347,15.956,6.609c8.797,8.798,8.797,23.114,0,31.912
		c-4.263,4.262-9.93,6.609-15.956,6.609c-6.027,0-11.694-2.347-15.956-6.609c-4.262-4.262-6.609-9.929-6.609-15.956
		C30.026,31.491,32.373,25.824,36.635,21.562z"/>
</g>
</svg>
