<?xml version="1.0" encoding="iso-8859-1"?>
<!-- Generator: Adobe Illustrator 18.0.0, SVG Export Plug-In . SVG Version: 6.00 Build 0)  -->
<!DOCTYPE svg PUBLIC "-//W3C//DTD SVG 1.1//EN" "http://www.w3.org/Graphics/SVG/1.1/DTD/svg11.dtd">
<svg version="1.1" id="Layer_1" xmlns="http://www.w3.org/2000/svg" xmlns:xlink="http://www.w3.org/1999/xlink" x="0px" y="0px"
	 viewBox="0 0 241 160" style="enable-background:new 0 0 241 160;" xml:space="preserve">
<g>
	<rect x="101.884" y="131.178" style="fill:#F9D5C2;" width="3.875" height="23.978"/>
	<path style="fill:#FF833D;" d="M105.759,131.178v23.978h-3.875v-23.978H97.04v23.978H13.733H5.014v-25.71h41.511
		c-0.349-0.553-0.561-1.198-0.561-1.892v-2.951H5.014V98.867h40.951v-4.843H5.014V67.507h40.951v-4.843H5.014V37.674h8.718h32.232
		v-4.843H8.889H0.171V160h8.718h92.995h8.718v-28.822H105.759z M2.971,96.446L2.971,96.446L2.971,96.446z M2.971,127.025
		L2.971,127.025L2.971,127.025z M2.971,65.085L2.971,65.085L2.971,65.085z"/>
	<path style="fill:#F9D5C2;" d="M5.014,98.867v25.736h40.951V98.867H5.014z M19.961,106.948c2.675,0,4.843,2.169,4.843,4.843
		s-2.168,4.843-4.843,4.843s-4.843-2.169-4.843-4.843S17.286,106.948,19.961,106.948z"/>
	<path style="fill:#F9D5C2;" d="M5.014,37.674v24.989h40.951V37.674H13.733H5.014z M19.961,45.755c2.675,0,4.843,2.169,4.843,4.843
		s-2.168,4.843-4.843,4.843s-4.843-2.169-4.843-4.843S17.286,45.755,19.961,45.755z"/>
	<path style="fill:#F9D5C2;" d="M5.014,67.507v26.517h40.951V67.507H5.014z M19.961,76.349c2.675,0,4.843,2.168,4.843,4.843
		c0,2.675-2.168,4.843-4.843,4.843s-4.843-2.169-4.843-4.843C15.118,78.518,17.286,76.349,19.961,76.349z"/>
	<path style="fill:#F9D5C2;" d="M5.014,129.447v25.71h8.718H97.04v-23.978H49.656c-1.322,0-2.478-0.698-3.13-1.731H5.014z
		 M19.961,137.528c2.675,0,4.843,2.169,4.843,4.843c0,2.675-2.168,4.843-4.843,4.843s-4.843-2.169-4.843-4.843
		C15.118,139.696,17.286,137.528,19.961,137.528z"/>
	<circle style="fill:#FF833D;" cx="19.961" cy="142.371" r="4.843"/>
	
		<line style="fill:none;stroke:#F9D5C2;stroke-width:0;stroke-linecap:round;stroke-linejoin:round;" x1="2.971" y1="127.025" x2="2.971" y2="127.025"/>
	<circle style="fill:#FF833D;" cx="19.961" cy="111.792" r="4.843"/>
	
		<line style="fill:none;stroke:#F9D5C2;stroke-width:0;stroke-linecap:round;stroke-linejoin:round;" x1="2.971" y1="96.446" x2="2.971" y2="96.446"/>
	<circle style="fill:#FF833D;" cx="19.961" cy="81.193" r="4.843"/>
	
		<line style="fill:none;stroke:#F9D5C2;stroke-width:0;stroke-linecap:round;stroke-linejoin:round;" x1="2.971" y1="65.085" x2="2.971" y2="65.085"/>
	<circle style="fill:#FF833D;" cx="19.961" cy="50.598" r="4.843"/>
	<path style="fill:#A5DBFF;" d="M50.809,126.335h185.177V4.843H50.809V126.335z M56.535,9.717h173.882
		c0.399,0,0.726,0.321,0.726,0.712v95.929c0,0.392-0.326,0.712-0.726,0.712H56.535c-0.399,0-0.726-0.321-0.726-0.712V10.429
		C55.81,10.037,56.136,9.717,56.535,9.717z"/>
	<path style="fill:#305CB3;" d="M237.138,0H49.656c-2.03,0-3.691,1.631-3.691,3.624v29.207v4.843v24.989v4.843v26.517v4.843v25.736
		v2.951c0,0.695,0.212,1.339,0.561,1.892c0.652,1.033,1.808,1.731,3.13,1.731H97.04h4.843h3.875h4.843h13.456l-2.079,18.323
		c-0.229,2.02-1.154,3.871-2.59,5.186l-3.455,3.162c-0.355,0.325-0.484,0.854-0.324,1.326c0.16,0.472,0.575,0.786,1.04,0.786
		c6.591,0,46.777,0,53.497,0c0.464,0,0.88-0.314,1.04-0.786c0.16-0.472,0.03-1.001-0.324-1.326l-3.455-3.162
		c-1.436-1.314-2.361-3.166-2.59-5.186l-2.079-18.323h74.402c2.03,0,3.691-1.631,3.691-3.624V3.624
		C240.829,1.631,239.168,0,237.138,0z M161.639,155.117h-36.484c0.869-1.537,1.431-3.259,1.636-5.07l1.616-14.248h29.978
		l1.617,14.249C160.208,151.857,160.77,153.58,161.639,155.117z M235.986,126.335H50.809V4.843h185.177V126.335z"/>
	<path style="fill:#A5DBFF;" d="M60.653,102.227H226.3V14.56H60.653V102.227z M92.092,48.034v-3.835h9.604v3.835H92.092z
		 M88.543,37.607v4.5l-7.193,4.5l7.193,4.31v4.754L75.17,47.748v-2.06L88.543,37.607z M75.199,87.987v-4.843h126.882v4.843H75.199z
		 M205.729,93.848v-3.957c0.375,0,1.375-0.167,1.375-1.291v-5.456h4.581v6.455C211.685,92.932,208.27,93.848,205.729,93.848z
		 M204.549,52.407h1.743v-6.813c0-0.824,0.445-1.616,1.111-2.187c-0.666-0.602-1.111-1.331-1.111-2.187v-6.465h-1.743v-3.391h4.849
		c0.221,0,0.728,0.158,0.728,0.951v7.511c0,0.887,0.698,2.06,1.585,2.06v2.979c-0.857,0.158-1.585,1.014-1.585,2.123v7.859
		c0,0.761-0.475,0.951-0.728,0.951h-4.849V52.407z M202.081,78.171H75.199v-4.843h126.882V78.171z M197.483,40.428
		c1.837,0,3.296,1.489,3.296,3.296c0,1.838-1.459,3.328-3.296,3.328c-1.807,0-3.328-1.489-3.328-3.328
		C194.155,41.917,195.676,40.428,197.483,40.428z M185.98,40.428c1.837,0,3.296,1.489,3.296,3.296c0,1.838-1.459,3.328-3.296,3.328
		c-1.807,0-3.328-1.489-3.328-3.328C182.652,41.917,184.173,40.428,185.98,40.428z M174.474,40.428c1.839,0,3.296,1.489,3.296,3.296
		c0,1.838-1.457,3.328-3.296,3.328c-1.807,0-3.328-1.489-3.328-3.328C171.146,41.917,172.668,40.428,174.474,40.428z
		 M160.245,41.886c0.887,0,1.585-1.173,1.585-2.06v-7.511c0-0.792,0.507-0.951,0.728-0.951h4.849v3.391h-1.743v6.465
		c0,0.856-0.445,1.585-1.111,2.187c0.634,0.57,1.111,1.363,1.111,2.187v6.813h1.743v3.391h-4.849c-0.286,0-0.728-0.19-0.728-0.951
		v-7.859c0-1.109-0.761-1.965-1.585-2.123V41.886z M148.023,55.508c0.348,0,1.271-0.154,1.271-1.192v-5.041h4.232v5.964
		c0,3.078-3.156,3.924-5.504,3.924V55.508z M127.364,50.917l7.195-4.31l-7.195-4.5v-4.5l13.374,8.081v2.06l-13.374,7.923V50.917z
		 M124.797,32.315l-15.719,22.5h-4.69l15.686-22.5H124.797z"/>
	<path style="fill:#305CB3;" d="M55.81,106.358c0,0.392,0.327,0.712,0.726,0.712h173.882c0.399,0,0.726-0.321,0.726-0.712V10.429
		c0-0.392-0.326-0.712-0.726-0.712H56.535c-0.399,0-0.726,0.321-0.726,0.712V106.358z M226.3,14.56v87.667H60.653V14.56H226.3z"/>
	<path style="fill:#A5DBFF;" d="M158.386,135.799h-29.978l-1.616,14.248c-0.205,1.81-0.767,3.533-1.636,5.07h36.484
		c-0.869-1.537-1.431-3.26-1.636-5.07L158.386,135.799z"/>
	<polygon style="fill:#305CB3;" points="75.17,47.748 88.543,55.671 88.543,50.917 81.349,46.607 88.543,42.107 88.543,37.607 
		75.17,45.688 	"/>
	<rect x="92.092" y="44.199" style="fill:#305CB3;" width="9.604" height="3.835"/>
	<polygon style="fill:#305CB3;" points="104.388,54.815 109.078,54.815 124.797,32.315 120.074,32.315 	"/>
	<polygon style="fill:#305CB3;" points="140.739,45.688 127.364,37.607 127.364,42.107 134.559,46.607 127.364,50.917 
		127.364,55.671 140.739,47.748 	"/>
	<path style="fill:#305CB3;" d="M153.526,55.239v-5.964h-4.232v5.041c0,1.039-0.923,1.192-1.271,1.192v3.655
		C150.371,59.163,153.526,58.316,153.526,55.239z"/>
	<path style="fill:#305CB3;" d="M161.83,46.988v7.859c0,0.761,0.443,0.951,0.728,0.951h4.849v-3.391h-1.743v-6.813
		c0-0.824-0.477-1.616-1.111-2.187c0.666-0.602,1.111-1.331,1.111-2.187v-6.465h1.743v-3.391h-4.849
		c-0.221,0-0.728,0.158-0.728,0.951v7.511c0,0.887-0.698,2.06-1.585,2.06v2.979C161.07,45.023,161.83,45.879,161.83,46.988z"/>
	<path style="fill:#305CB3;" d="M174.474,47.051c1.839,0,3.296-1.489,3.296-3.328c0-1.806-1.457-3.296-3.296-3.296
		c-1.807,0-3.328,1.489-3.328,3.296C171.146,45.562,172.668,47.051,174.474,47.051z"/>
	<path style="fill:#305CB3;" d="M185.98,47.051c1.837,0,3.296-1.489,3.296-3.328c0-1.806-1.459-3.296-3.296-3.296
		c-1.807,0-3.328,1.489-3.328,3.296C182.652,45.562,184.173,47.051,185.98,47.051z"/>
	<path style="fill:#305CB3;" d="M197.483,47.051c1.837,0,3.296-1.489,3.296-3.328c0-1.806-1.459-3.296-3.296-3.296
		c-1.807,0-3.328,1.489-3.328,3.296C194.155,45.562,195.676,47.051,197.483,47.051z"/>
	<path style="fill:#305CB3;" d="M210.127,54.847v-7.859c0-1.109,0.728-1.965,1.585-2.123v-2.979c-0.887,0-1.585-1.173-1.585-2.06
		v-7.511c0-0.792-0.507-0.951-0.728-0.951h-4.849v3.391h1.743v6.465c0,0.856,0.445,1.585,1.111,2.187
		c-0.666,0.57-1.111,1.363-1.111,2.187v6.813h-1.743v3.391h4.849C209.652,55.798,210.127,55.608,210.127,54.847z"/>
	<rect x="75.199" y="83.143" style="fill:#305CB3;" width="126.882" height="4.843"/>
	<rect x="75.199" y="73.328" style="fill:#305CB3;" width="126.882" height="4.843"/>
	<path style="fill:#305CB3;" d="M211.685,83.143h-4.581V88.6c0,1.124-1,1.291-1.375,1.291v3.957c2.541,0,5.956-0.917,5.956-4.249
		V83.143z"/>
</g>
</svg>
