<?xml version="1.0" encoding="iso-8859-1"?>
<!-- Generator: Adobe Illustrator 18.0.0, SVG Export Plug-In . SVG Version: 6.00 Build 0)  -->
<!DOCTYPE svg PUBLIC "-//W3C//DTD SVG 1.1//EN" "http://www.w3.org/Graphics/SVG/1.1/DTD/svg11.dtd">
<svg version="1.1" id="Layer_1" xmlns="http://www.w3.org/2000/svg" xmlns:xlink="http://www.w3.org/1999/xlink" x="0px" y="0px"
	 viewBox="0 0 238 160" style="enable-background:new 0 0 238 160;" xml:space="preserve">
<g>
	<polygon style="fill:none;" points="129.199,113.402 124.334,113.402 113.666,113.402 113.666,124.07 124.334,124.07 
		129.199,124.07 139.866,124.07 139.866,113.402 	"/>
	<rect x="20.47" y="113.402" style="fill:none;" width="10.668" height="10.668"/>
	<rect x="206.862" y="97.869" style="fill:none;" width="10.668" height="10.668"/>
	<rect x="36.003" y="128.934" style="fill:none;" width="10.668" height="10.668"/>
	<polygon style="fill:none;" points="82.601,97.869 77.736,97.869 67.069,97.869 67.069,108.537 77.736,108.537 82.601,108.537 
		93.269,108.537 93.269,97.869 	"/>
	<rect x="98.134" y="128.934" style="fill:none;" width="10.668" height="10.668"/>
	<rect x="175.796" y="113.402" style="fill:none;" width="10.669" height="10.668"/>
	<polygon style="fill:none;" points="155.399,139.603 160.264,139.603 170.931,139.603 170.931,128.934 160.264,128.934 
		155.399,128.934 144.731,128.934 144.731,139.603 	"/>
	<rect x="191.33" y="82.337" style="fill:#F9D5C2;" width="10.668" height="10.668"/>
	<rect x="191.33" y="77.472" style="fill:#FF833D;" width="10.668" height="4.865"/>
	<rect x="82.601" y="144.467" style="fill:#F9D5C2;" width="10.668" height="10.668"/>
	<rect x="98.134" y="144.467" style="fill:#F9D5C2;" width="10.668" height="10.668"/>
	<rect x="98.134" y="139.603" style="fill:#FF833D;" width="10.668" height="4.865"/>
	<rect x="113.666" y="144.467" style="fill:#F9D5C2;" width="10.668" height="10.668"/>
	<polygon style="fill:#FF833D;" points="124.334,155.135 113.666,155.135 113.666,144.467 108.801,144.467 108.801,155.135 
		98.134,155.135 98.134,144.467 93.269,144.467 93.269,155.135 82.601,155.135 82.601,160 93.269,160 98.134,160 108.801,160 
		113.666,160 124.334,160 	"/>
	<rect x="206.862" y="66.804" style="fill:#A5DBFF;" width="10.668" height="10.668"/>
	<rect x="222.395" y="51.271" style="fill:#A5DBFF;" width="10.668" height="10.668"/>
	<path style="fill:#305CB3;" d="M237.927,66.804V46.407h-15.533h-4.865h-15.533v15.533v4.865v10.668v4.865v10.668H191.33V82.337
		v-4.865h-4.865h-10.669h-4.865h-15.533v15.533v4.865v10.668v4.865h4.865h10.668h4.865h10.669v10.668v4.865v10.668v4.865v10.668V160
		h4.865h10.668h4.865v-4.865v-10.668h10.668v10.668V160h4.865h15.533v-15.533v-4.865h-4.865h-10.668v-10.668v-4.865v-10.668h10.668
		h4.865v-4.865V97.869v-4.865h-4.865h-10.668V82.337v-4.865V66.804H237.927z M217.53,77.472h-10.668V66.804h10.668V77.472z
		 M233.062,108.537h-10.668V97.869h10.668V108.537z M217.53,124.07h-10.668v-10.668h10.668V124.07z M233.062,155.135h-10.668
		v-10.668h10.668V155.135z M217.53,139.603h-10.668v-10.668h10.668V139.603z M201.997,155.135H191.33v-10.668h10.668V155.135z
		 M191.33,128.934h10.668v10.668H191.33V128.934z M160.264,97.869h10.668v10.668h-10.668V97.869z M160.264,82.337h10.668v10.668
		h-10.668V82.337z M175.796,82.337h10.669v10.668h-10.669V82.337z M217.53,108.537h-10.668V97.869h10.668V108.537z M201.997,108.537
		H191.33V97.869h10.668V108.537z M175.796,97.869h10.669v10.668h-10.669V97.869z M191.33,113.402h10.668v10.668H191.33V113.402z
		 M217.53,93.005h-10.668V82.337h10.668V93.005z M206.862,51.271h10.668v10.668h-10.668V51.271z M222.395,51.271h10.668v10.668
		h-10.668V51.271z"/>
	<rect x="206.862" y="51.271" style="fill:#A5DBFF;" width="10.668" height="10.668"/>
	<rect x="113.666" y="97.869" style="fill:#F9D5C2;" width="10.668" height="10.668"/>
	<rect x="98.134" y="97.869" style="fill:#F9D5C2;" width="10.668" height="10.668"/>
	<rect x="93.269" y="97.869" style="fill:#FF833D;" width="4.865" height="10.668"/>
	<rect x="98.134" y="82.337" style="fill:#F9D5C2;" width="10.668" height="10.668"/>
	<path style="fill:#FF833D;" d="M98.134,82.337h10.668v10.668H98.134v4.865h10.668v10.668H98.134v4.865h10.668v10.668h4.865v-10.668
		h10.668h4.865h10.668v10.668h4.865v-10.668h10.668v-4.865h-10.668V97.869h10.668v-4.865h-10.668h-4.865h-10.668h-4.865h-10.668
		V77.472H98.134V82.337z M124.334,108.537h-10.668V97.869h10.668V108.537z M129.199,97.869h10.668v10.668h-10.668V97.869z"/>
	<rect x="98.134" y="113.402" style="fill:#F9D5C2;" width="10.668" height="10.668"/>
	<rect x="98.134" y="124.07" style="fill:#FF833D;" width="10.668" height="4.865"/>
	<rect x="175.796" y="128.934" style="fill:#F9D5C2;" width="10.669" height="10.668"/>
	<rect x="175.796" y="144.467" style="fill:#F9D5C2;" width="10.669" height="10.668"/>
	<polygon style="fill:#FF833D;" points="186.465,155.135 175.796,155.135 175.796,144.467 186.465,144.467 186.465,139.603 
		175.796,139.603 175.796,128.934 186.465,128.934 186.465,124.07 175.796,124.07 175.796,113.402 170.931,113.402 170.931,124.07 
		160.264,124.07 160.264,113.402 155.399,113.402 155.399,124.07 144.731,124.07 144.731,128.934 155.399,128.934 160.264,128.934 
		170.931,128.934 170.931,139.603 160.264,139.603 160.264,144.467 170.931,144.467 170.931,155.135 160.264,155.135 160.264,160 
		170.931,160 175.796,160 186.465,160 	"/>
	<rect x="160.264" y="144.467" style="fill:#F9D5C2;" width="10.668" height="10.668"/>
	<rect x="20.47" y="128.934" style="fill:#F9D5C2;" width="10.668" height="10.668"/>
	<rect x="20.47" y="144.467" style="fill:#F9D5C2;" width="10.668" height="10.668"/>
	<rect x="36.003" y="144.467" style="fill:#F9D5C2;" width="10.668" height="10.668"/>
	<polygon style="fill:#FF833D;" points="46.67,155.135 36.003,155.135 36.003,144.467 46.67,144.467 46.67,139.603 36.003,139.603 
		36.003,128.934 46.67,128.934 46.67,124.07 36.003,124.07 36.003,113.402 46.67,113.402 46.67,108.537 36.003,108.537 
		36.003,97.869 46.67,97.869 46.67,93.005 36.003,93.005 31.138,93.005 20.47,93.005 20.47,97.869 31.138,97.869 31.138,108.537 
		20.47,108.537 20.47,113.402 31.138,113.402 31.138,124.07 20.47,124.07 20.47,128.934 31.138,128.934 31.138,139.603 
		20.47,139.603 20.47,144.467 31.138,144.467 31.138,155.135 20.47,155.135 20.47,144.467 15.605,144.467 15.605,155.135 
		4.938,155.135 4.938,144.467 0.073,144.467 0.073,160 15.605,160 20.47,160 31.138,160 36.003,160 46.67,160 	"/>
	<rect x="20.47" y="52.319" style="fill:#F9D5C2;" width="10.668" height="10.668"/>
	<rect x="20.47" y="97.869" style="fill:#F9D5C2;" width="10.668" height="10.668"/>
	<rect x="36.003" y="97.869" style="fill:#F9D5C2;" width="10.668" height="10.668"/>
	<rect x="36.003" y="113.402" style="fill:#F9D5C2;" width="10.668" height="10.668"/>
	<rect x="51.535" y="82.337" style="fill:#F9D5C2;" width="10.669" height="10.668"/>
	<polygon style="fill:#FF833D;" points="51.535,93.005 51.535,82.337 62.204,82.337 62.204,77.472 46.67,77.472 46.67,93.005 	"/>
	<rect x="36.003" y="52.319" style="fill:#F9D5C2;" width="10.668" height="10.668"/>
	<path style="fill:#FF833D;" d="M36.003,67.852h15.533V52.319v-4.865V31.922H36.003h-4.865H15.605v15.533v4.865v15.533h15.533
		H36.003z M20.47,36.787h10.668v10.668H20.47V36.787z M36.003,36.787H46.67v10.668H36.003V36.787z M46.67,62.987H36.003V52.319
		H46.67V62.987z M20.47,52.319h10.668v10.668H20.47V52.319z"/>
	<rect x="36.003" y="36.787" style="fill:#F9D5C2;" width="10.668" height="10.668"/>
	<rect x="20.47" y="36.787" style="fill:#F9D5C2;" width="10.668" height="10.668"/>
	<rect x="160.264" y="36.712" style="fill:#F9D5C2;" width="10.668" height="10.668"/>
	<rect x="144.731" y="36.712" style="fill:#F9D5C2;" width="10.668" height="10.668"/>
	<path style="fill:#FF833D;" d="M139.866,47.38h-15.533v20.397h15.533h4.865h15.533V52.244h15.533V31.847h-15.533h-4.865h-15.533
		V47.38z M144.731,36.712h10.668V47.38h-10.668V36.712z M160.264,36.712h10.668V47.38h-10.668V36.712z M155.399,62.912h-10.668
		V52.244h10.668V62.912z M139.866,62.912h-10.668V52.244h10.668V62.912z"/>
	<rect x="144.731" y="52.244" style="fill:#F9D5C2;" width="10.668" height="10.668"/>
	<rect x="129.199" y="52.244" style="fill:#F9D5C2;" width="10.668" height="10.668"/>
	<rect x="129.199" y="97.869" style="fill:#F9D5C2;" width="10.668" height="10.668"/>
	<rect x="144.731" y="97.869" style="fill:#F9D5C2;" width="10.668" height="10.668"/>
	<rect x="144.731" y="113.402" style="fill:#F9D5C2;" width="10.668" height="10.668"/>
	<rect x="160.264" y="113.402" style="fill:#F9D5C2;" width="10.668" height="10.668"/>
	<rect x="206.862" y="144.467" style="fill:#F9D5C2;" width="10.668" height="10.668"/>
	<rect x="206.862" y="155.135" style="fill:#FF833D;" width="10.668" height="4.865"/>
	<rect x="222.395" y="128.934" style="fill:#F9D5C2;" width="10.668" height="10.668"/>
	<rect x="4.938" y="97.869" style="fill:#A5DBFF;" width="10.668" height="10.668"/>
	<rect x="4.938" y="82.337" style="fill:#A5DBFF;" width="10.668" height="10.668"/>
	<rect x="175.796" y="97.869" style="fill:#A5DBFF;" width="10.669" height="10.668"/>
	<rect x="160.264" y="97.869" style="fill:#A5DBFF;" width="10.668" height="10.668"/>
	<rect x="160.264" y="82.337" style="fill:#A5DBFF;" width="10.668" height="10.668"/>
	<rect x="175.796" y="82.337" style="fill:#A5DBFF;" width="10.669" height="10.668"/>
	<rect x="113.666" y="20.397" style="fill:#A5DBFF;" width="10.668" height="10.668"/>
	<path style="fill:#305CB3;" d="M108.801,35.93h20.397V20.397h15.533V0h-15.533h-4.865h-10.668h-4.865H93.269v20.397h15.533V35.93z
		 M98.134,4.865h10.668v10.668H98.134V4.865z M113.666,4.865h10.668v10.668h-10.668V4.865z M129.199,4.865h10.668v10.668h-10.668
		V4.865z M113.666,20.397h10.668v10.668h-10.668V20.397z"/>
	<rect x="113.666" y="4.865" style="fill:#A5DBFF;" width="10.668" height="10.668"/>
	<rect x="129.199" y="4.865" style="fill:#A5DBFF;" width="10.668" height="10.668"/>
	<rect x="98.134" y="4.865" style="fill:#A5DBFF;" width="10.668" height="10.668"/>
	<rect x="222.395" y="82.337" style="fill:#F9D5C2;" width="10.668" height="10.668"/>
	<polygon style="fill:#FF833D;" points="222.395,82.337 233.062,82.337 233.062,93.005 237.927,93.005 237.927,77.472 
		222.395,77.472 	"/>
	<rect x="222.395" y="113.402" style="fill:#F9D5C2;" width="10.668" height="10.668"/>
	<polygon style="fill:#FF833D;" points="233.062,113.402 233.062,124.07 222.395,124.07 222.395,128.934 233.062,128.934 
		233.062,139.603 237.927,139.603 237.927,128.934 237.927,124.07 237.927,113.402 	"/>
	<rect x="113.666" y="128.934" style="fill:#A5DBFF;" width="10.668" height="10.668"/>
	<rect x="129.199" y="128.934" style="fill:#A5DBFF;" width="10.668" height="10.668"/>
	<rect x="129.199" y="144.467" style="fill:#A5DBFF;" width="10.668" height="10.668"/>
	<rect x="144.731" y="144.467" style="fill:#A5DBFF;" width="10.668" height="10.668"/>
	<path style="fill:#305CB3;" d="M160.264,155.135v-10.668v-4.865h-4.865h-10.668v-10.668v-4.865h-4.865h-10.668h-4.865h-10.668
		h-4.865v4.865v10.668v4.865h4.865h10.668v10.668V160h4.865h10.668h4.865h10.668h4.865V155.135z M155.399,155.135h-10.668v-10.668
		h10.668V155.135z M139.866,155.135h-10.668v-10.668h10.668V155.135z M113.666,128.934h10.668v10.668h-10.668V128.934z
		 M129.199,128.934h10.668v10.668h-10.668V128.934z"/>
	<rect x="4.938" y="144.467" style="fill:#F9D5C2;" width="10.668" height="10.668"/>
	<rect x="67.069" y="51.271" style="fill:#A5DBFF;" width="10.668" height="10.668"/>
	<rect x="67.069" y="66.804" style="fill:#A5DBFF;" width="10.668" height="10.668"/>
	<rect x="82.601" y="82.337" style="fill:#A5DBFF;" width="10.668" height="10.668"/>
	<rect x="67.069" y="128.934" style="fill:#F9D5C2;" width="10.668" height="10.668"/>
	<rect x="51.535" y="128.934" style="fill:#F9D5C2;" width="10.669" height="10.668"/>
	<rect x="46.67" y="128.934" style="fill:#FF833D;" width="4.865" height="10.668"/>
	<rect x="62.204" y="128.934" style="fill:#FF833D;" width="4.865" height="10.668"/>
	<rect x="4.938" y="113.402" style="fill:#A5DBFF;" width="10.668" height="10.668"/>
	<rect x="67.069" y="144.467" style="fill:#A5DBFF;" width="10.668" height="10.668"/>
	<path style="fill:#305CB3;" d="M82.601,155.135v-10.668h10.668h4.865v-4.865v-10.668v-4.865v-10.668v-4.865h-4.865H82.601h-4.865
		H67.069V97.869h10.668h4.865h10.668h4.865v-4.865V82.337v-4.865h-4.865H82.601V66.804v-4.865V46.407H62.204v15.533v4.865v10.668
		v4.865v10.668H51.535H46.67v4.865v10.668v4.865v10.668v4.865h4.865h10.669h4.865h10.668v10.668H67.069h-4.865H51.535H46.67v4.865
		v10.668V160h4.865h10.669h4.865h10.668h4.865V155.135z M77.736,155.135H67.069v-10.668h10.668V155.135z M62.204,155.135H51.535
		v-10.668h10.669V155.135z M51.535,113.402h10.669v10.668H51.535V113.402z M51.535,97.869h10.669v10.668H51.535V97.869z
		 M67.069,113.402h10.668v10.668H67.069V113.402z M82.601,113.402h10.668v10.668H82.601V113.402z M82.601,128.934h10.668v10.668
		H82.601V128.934z M67.069,82.337h10.668v10.668H67.069V82.337z M67.069,51.271h10.668v10.668H67.069V51.271z M67.069,66.804h10.668
		v10.668H67.069V66.804z M93.269,93.005H82.601V82.337h10.668V93.005z"/>
	<rect x="82.601" y="113.402" style="fill:#A5DBFF;" width="10.668" height="10.668"/>
	<rect x="67.069" y="113.402" style="fill:#A5DBFF;" width="10.668" height="10.668"/>
	<rect x="51.535" y="97.869" style="fill:#A5DBFF;" width="10.669" height="10.668"/>
	<rect x="67.069" y="82.337" style="fill:#A5DBFF;" width="10.668" height="10.668"/>
	<rect x="82.601" y="128.934" style="fill:#A5DBFF;" width="10.668" height="10.668"/>
	<rect x="51.535" y="144.467" style="fill:#A5DBFF;" width="10.669" height="10.668"/>
	<rect x="51.535" y="113.402" style="fill:#A5DBFF;" width="10.669" height="10.668"/>
	<rect x="206.862" y="82.337" style="fill:#A5DBFF;" width="10.668" height="10.668"/>
	<rect x="4.938" y="128.934" style="fill:#A5DBFF;" width="10.668" height="10.668"/>
	<path style="fill:#305CB3;" d="M4.938,144.467h10.668h4.865v-4.865v-10.668v-4.865v-10.668v-4.865V97.869v-4.865V77.472H0.073
		v15.533v4.865v10.668v4.865v10.668v4.865v10.668v4.865H4.938z M4.938,82.337h10.668v10.668H4.938V82.337z M4.938,97.869h10.668
		v10.668H4.938V97.869z M4.938,113.402h10.668v10.668H4.938V113.402z M4.938,128.934h10.668v10.668H4.938V128.934z"/>
	<rect x="191.33" y="128.934" style="fill:#A5DBFF;" width="10.668" height="10.668"/>
	<rect x="191.33" y="113.402" style="fill:#A5DBFF;" width="10.668" height="10.668"/>
	<rect x="191.33" y="97.869" style="fill:#A5DBFF;" width="10.668" height="10.668"/>
	<rect x="191.33" y="144.467" style="fill:#A5DBFF;" width="10.668" height="10.668"/>
	<rect x="222.395" y="144.467" style="fill:#A5DBFF;" width="10.668" height="10.668"/>
	<rect x="206.862" y="128.934" style="fill:#A5DBFF;" width="10.668" height="10.668"/>
	<rect x="222.395" y="97.869" style="fill:#A5DBFF;" width="10.668" height="10.668"/>
	<rect x="206.862" y="113.402" style="fill:#A5DBFF;" width="10.668" height="10.668"/>
</g>
</svg>
