<?xml version="1.0" encoding="iso-8859-1"?>
<!-- Generator: Adobe Illustrator 18.0.0, SVG Export Plug-In . SVG Version: 6.00 Build 0)  -->
<!DOCTYPE svg PUBLIC "-//W3C//DTD SVG 1.1//EN" "http://www.w3.org/Graphics/SVG/1.1/DTD/svg11.dtd">
<svg version="1.1" id="Layer_1" xmlns="http://www.w3.org/2000/svg" xmlns:xlink="http://www.w3.org/1999/xlink" x="0px" y="0px"
	 viewBox="0 0 167 160" style="enable-background:new 0 0 167 160;" xml:space="preserve">
<g>
	<polygon style="fill:#FF833D;" points="22.585,103.247 17.74,103.247 17.74,123.495 17.738,123.495 17.738,128.339 17.74,128.339 
		17.74,128.339 22.585,128.339 22.585,128.339 37.116,128.339 37.116,123.495 22.585,123.495 	"/>
	<polygon style="fill:#FF833D;" points="138.778,26.354 143.622,26.354 143.622,10.383 141.978,10.383 141.978,10.382 80,10.382 
		80,15.226 138.778,15.226 	"/>
	<polygon style="fill:#F9D5C2;" points="6.949,17.649 17.739,17.649 17.739,6.033 	"/>
	<polygon style="fill:#F9D5C2;" points="22.583,4.844 22.583,22.493 4.935,22.493 4.935,93.566 41.892,93.566 41.892,55.501 
		11.39,55.501 11.39,50.656 41.892,50.656 41.892,45.812 11.39,45.812 11.39,40.968 41.892,40.968 41.892,36.123 11.39,36.123 
		11.39,31.279 41.892,31.279 50.611,31.279 63.874,31.279 70.265,31.279 70.265,4.844 	"/>
	<path style="fill:#FF833D;" d="M41.892,93.566H4.935V22.493h17.649V4.844h47.682v26.435h4.844V0H16.731L0.09,17.915V98.41h41.801
		V93.566z M6.949,17.649l10.79-11.616v11.616H6.949z"/>
	<rect x="11.39" y="31.279" style="fill:#FF833D;" width="30.502" height="4.844"/>
	<rect x="11.39" y="40.968" style="fill:#FF833D;" width="30.502" height="4.844"/>
	<rect x="11.39" y="50.656" style="fill:#FF833D;" width="30.502" height="4.844"/>
	<rect x="143.623" y="36.123" style="fill:#A5DBFF;" width="3.875" height="25.466"/>
	<path style="fill:#A5DBFF;" d="M63.874,36.123h-8.418h-8.72V61.59h61.796h30.247V36.123H63.874z M61.685,55.423
		c-2.675,0-4.844-2.169-4.844-4.844c0-2.675,2.169-4.844,4.844-4.844c2.675,0,4.844,2.169,4.844,4.844
		C66.529,53.254,64.36,55.423,61.685,55.423z"/>
	<path style="fill:#A5DBFF;" d="M46.736,97.777v26.498h45.155V97.777H46.736z M61.685,115.87c-2.675,0-4.844-2.169-4.844-4.844
		c0-2.675,2.169-4.844,4.844-4.844c2.675,0,4.844,2.169,4.844,4.844C66.529,113.701,64.36,115.87,61.685,115.87z"/>
	<path style="fill:#A5DBFF;" d="M46.736,66.434v26.498h45.155V79.504l12.141-13.07H46.736z M61.685,84.527
		c-2.675,0-4.844-2.169-4.844-4.844c0-2.675,2.169-4.844,4.844-4.844c2.675,0,4.844,2.169,4.844,4.844
		C66.529,82.359,64.36,84.527,61.685,84.527z"/>
	<path style="fill:#A5DBFF;" d="M46.736,129.119v26.037h8.72h36.435v-26.037H46.736z M61.685,137.524
		c2.675,0,4.844,2.169,4.844,4.844c0,2.675-2.169,4.844-4.844,4.844c-2.675,0-4.844-2.169-4.844-4.844
		C56.84,139.693,59.009,137.524,61.685,137.524z"/>
	<polygon style="fill:#305CB3;" points="91.891,155.156 55.456,155.156 46.736,155.156 46.736,129.119 91.891,129.119 
		91.891,124.274 46.736,124.274 46.736,97.777 91.891,97.777 91.891,92.932 46.736,92.932 46.736,66.434 104.032,66.434 
		108.532,61.59 46.736,61.59 46.736,36.123 55.456,36.123 63.874,36.123 138.778,36.123 138.778,61.59 141.201,61.59 143.623,61.59 
		143.623,36.123 147.498,36.123 147.498,61.59 152.343,61.59 152.343,31.279 143.623,31.279 75.109,31.279 70.265,31.279 
		63.874,31.279 50.611,31.279 41.892,31.279 41.892,36.123 41.892,40.968 41.892,45.812 41.892,50.656 41.892,55.501 41.892,93.566 
		41.892,98.41 41.892,160 50.611,160 91.891,160 	"/>
	<circle style="fill:#305CB3;" cx="61.685" cy="142.368" r="4.844"/>
	<circle style="fill:#305CB3;" cx="61.685" cy="111.026" r="4.844"/>
	<circle style="fill:#305CB3;" cx="61.685" cy="79.683" r="4.844"/>
	<circle style="fill:#305CB3;" cx="61.685" cy="50.578" r="4.844"/>
	<path style="fill:#F9D5C2;" d="M141.201,66.434h-26.817v17.649H96.735v71.073h42.044h8.72h14.567V66.434H141.201z M103.19,107.402
		v-4.844h52.485v4.844H103.19z M155.675,112.246v4.844H103.19v-4.844H155.675z M115.592,144.878l-4.774-6.564l-4.773,6.564h-3.622
		l6.61-8.933l-6.805-9.174h3.623l4.967,6.808l4.968-6.808h3.597l-6.804,9.174l6.61,8.933H115.592z M136.548,144.878v-11.882
		l-4.929,8.792h-1.798l-4.953-8.799v11.889h-3.141v-18.107h3.062l5.92,10.619l5.943-10.619h3.037v18.107H136.548z M156.249,144.878
		h-12.7v-18.107h3.141v15.208h9.559V144.878z M155.675,97.713H103.19v-4.844h52.485V97.713z"/>
	<polygon style="fill:#F9D5C2;" points="98.749,79.239 109.539,79.239 109.539,67.623 	"/>
	<path style="fill:#FF833D;" d="M152.343,61.59h-4.844h-3.875h-2.422h-2.422h-30.247l-4.5,4.844l-12.141,13.07v13.428v4.844v26.498
		v4.844v26.037V160h51.732h8.72h14.567V61.59H152.343z M162.065,155.156h-14.567h-8.72H96.735V84.083h17.649V66.434h26.817h20.865
		V155.156z M98.749,79.239l10.79-11.616v11.616H98.749z"/>
	<rect x="103.19" y="92.869" style="fill:#FF833D;" width="52.485" height="4.844"/>
	<rect x="103.19" y="102.558" style="fill:#FF833D;" width="52.485" height="4.844"/>
	<rect x="103.19" y="112.246" style="fill:#FF833D;" width="52.485" height="4.844"/>
	<polygon style="fill:#FF833D;" points="119.383,126.771 115.786,126.771 110.818,133.579 105.85,126.771 102.227,126.771 
		109.032,135.946 102.422,144.878 106.044,144.878 110.818,138.314 115.592,144.878 119.189,144.878 112.579,135.946 	"/>
	<polygon style="fill:#FF833D;" points="139.69,126.771 136.652,126.771 130.71,137.391 124.789,126.771 121.728,126.771 
		121.728,144.878 124.869,144.878 124.869,132.99 129.822,141.789 131.62,141.789 136.548,132.997 136.548,144.878 139.69,144.878 	
		"/>
	<polygon style="fill:#FF833D;" points="146.69,141.979 146.69,126.771 143.549,126.771 143.549,144.878 156.249,144.878 
		156.249,141.979 	"/>
</g>
</svg>
