<?xml version="1.0" encoding="iso-8859-1"?>
<!-- Generator: Adobe Illustrator 18.0.0, SVG Export Plug-In . SVG Version: 6.00 Build 0)  -->
<!DOCTYPE svg PUBLIC "-//W3C//DTD SVG 1.1//EN" "http://www.w3.org/Graphics/SVG/1.1/DTD/svg11.dtd">
<svg version="1.1" id="Layer_1" xmlns="http://www.w3.org/2000/svg" xmlns:xlink="http://www.w3.org/1999/xlink" x="0px" y="0px"
	 viewBox="0 0 265 160" style="enable-background:new 0 0 265 160;" xml:space="preserve">
<g>
	<rect x="0.047" y="82.512" style="fill:#305CB3;" width="42.378" height="4.845"/>
	<rect x="0.047" y="63.04" style="fill:#305CB3;" width="42.378" height="4.845"/>
	<rect x="0.047" y="72.729" style="fill:#305CB3;" width="42.378" height="4.845"/>
	<path style="fill:#F9D5C2;" d="M52.114,4.845v121.521h123.661c-1.854-4.985-2.871-10.373-2.871-15.995
		c0-1.102,0.053-2.191,0.13-3.274H57.842c-0.399,0-0.726-0.321-0.726-0.713V10.432c0-0.392,0.326-0.713,0.726-0.713h173.926
		c0.399,0,0.726,0.321,0.726,0.713v55.958c1.657,0.512,3.271,1.122,4.843,1.811V4.845H52.114z"/>
	<path style="fill:#FF833D;" d="M175.775,126.366H52.114V4.845h185.223v63.356c1.669,0.731,3.285,1.56,4.845,2.477V3.625
		c0-1.994-1.661-3.625-3.692-3.625H50.961c-2.031,0-3.692,1.631-3.692,3.625v123.962c0,1.994,1.661,3.625,3.692,3.625h74.42
		l-2.079,18.327c-0.229,2.02-1.154,3.872-2.591,5.187l-3.456,3.163c-0.355,0.325-0.484,0.854-0.325,1.326
		c0.16,0.472,0.575,0.786,1.04,0.786c6.593,0,46.788,0,53.51,0c0.465,0,0.88-0.314,1.04-0.786c0.159-0.472,0.03-1.002-0.325-1.326
		l-3.456-3.163c-1.436-1.315-2.362-3.167-2.591-5.187l-2.08-18.327h13.844C177.114,129.644,176.394,128.03,175.775,126.366z
		 M162.972,155.155h-36.493c0.869-1.537,1.431-3.26,1.637-5.071l1.617-14.252h29.985l1.617,14.252
		C161.541,151.895,162.103,153.618,162.972,155.155z"/>
	<path style="fill:#F9D5C2;" d="M128.784,72.65c-1.616,0-3.456,1.172-4.025,2.789v3.898c0.761,1.871,2.472,3.297,4.279,3.297
		c2.568,0,4.343-2.409,4.343-5.04C133.38,74.805,131.414,72.65,128.784,72.65z"/>
	<path style="fill:#F9D5C2;" d="M61.961,14.564v87.689h111.675c3.847-21.517,22.686-37.906,45.293-37.906
		c2.982,0,5.895,0.295,8.72,0.839V14.564H61.961z M174.842,37.531c1.838,0,3.297,1.49,3.297,3.297c0,1.839-1.459,3.329-3.297,3.329
		c-1.807,0-3.329-1.49-3.329-3.329C171.513,39.021,173.035,37.531,174.842,37.531z M160.609,38.989c0.888,0,1.586-1.172,1.586-2.06
		v-7.513c0-0.792,0.507-0.951,0.729-0.951h4.85v3.392h-1.745v6.467c0,0.855-0.443,1.585-1.109,2.187
		c0.634,0.571,1.109,1.364,1.109,2.188v6.815h1.745v3.392h-4.85c-0.286,0-0.729-0.19-0.729-0.951v-7.861
		c0-1.11-0.761-1.965-1.586-2.124V38.989z M148.384,52.615c0.346,0,1.27-0.153,1.27-1.192V46.38h4.233v5.966
		c0,3.078-3.157,3.925-5.503,3.925V52.615z M127.72,48.024l7.195-4.311l-7.195-4.501V34.71l13.378,8.083v2.061l-13.378,7.925V48.024
		z M120.429,29.416h4.724L109.43,51.922h-4.691L120.429,29.416z M92.439,41.303h9.604v3.835h-9.604V41.303z M75.511,42.793
		l13.378-8.083v4.501l-7.195,4.501l7.195,4.311v4.755l-13.378-7.925V42.793z M92.806,85.931h-4.249v-9.319
		c0-2.599-1.047-3.835-2.789-3.835c-1.554,0-3.518,1.426-4.152,3.455v9.7h-4.249v-23.14h4.249v9.605
		c1.236-2.124,3.456-3.36,5.959-3.36c4.279,0,5.231,3.264,5.231,6.53V85.931z M101.65,86.217c-2.347,0-4.311-1.141-4.311-4.09
		v-9.541h-2.156v-3.265h2.156v-5.389h4.247v5.389h3.52v3.265h-3.52v8.115c0,1.172,0.73,1.616,1.618,1.616
		c0.888,0,1.805-0.38,2.313-0.602l0.857,3.36C105.232,85.583,103.457,86.217,101.65,86.217z M113.663,86.217
		c-2.345,0-4.311-1.141-4.311-4.09v-9.541h-2.156v-3.265h2.156v-5.389h4.249v5.389h3.518v3.265h-3.518v8.115
		c0,1.172,0.729,1.616,1.616,1.616c0.888,0,1.807-0.38,2.314-0.602l0.855,3.36C117.245,85.583,115.47,86.217,113.663,86.217z
		 M130.432,86.248c-2.568,0-4.597-1.268-5.674-3.233v9.669h-4.249V69.321h3.709v2.853c1.236-1.933,3.234-3.138,5.738-3.138
		c4.47,0,7.767,3.867,7.767,8.559C137.724,82.444,134.681,86.248,130.432,86.248z M144.222,85.931h-3.456v-4.565h3.456V85.931z
		 M144.222,74.076h-3.456v-4.565h3.456V74.076z M147.233,85.931l15.69-22.506h4.724l-15.723,22.506H147.233z M165.683,85.931h-4.691
		l15.69-22.506h4.724L165.683,85.931z M186.348,44.156c-1.805,0-3.327-1.49-3.327-3.329c0-1.806,1.522-3.297,3.327-3.297
		c1.839,0,3.297,1.49,3.297,3.297C189.645,42.666,188.188,44.156,186.348,44.156z M197.854,44.156c-1.805,0-3.327-1.49-3.327-3.329
		c0-1.806,1.522-3.297,3.327-3.297c1.839,0,3.297,1.49,3.297,3.297C201.151,42.666,199.694,44.156,197.854,44.156z M212.088,41.969
		c-0.855,0.159-1.584,1.014-1.584,2.124v7.861c0,0.761-0.475,0.951-0.729,0.951h-4.85v-3.392h1.743v-6.815
		c0-0.824,0.445-1.617,1.109-2.188c-0.664-0.602-1.109-1.331-1.109-2.187v-6.467h-1.743v-3.392h4.85
		c0.221,0,0.729,0.159,0.729,0.951v7.513c0,0.888,0.696,2.06,1.584,2.06V41.969z"/>
	<path style="fill:#FF833D;" d="M231.768,9.719H57.842c-0.399,0-0.726,0.321-0.726,0.713v95.953c0,0.392,0.326,0.713,0.726,0.713
		h115.192c0.116-1.64,0.318-3.256,0.602-4.845H61.961V14.564h165.688v50.622c1.647,0.317,3.265,0.715,4.845,1.203V10.432
		C232.494,10.04,232.167,9.719,231.768,9.719z"/>
	<path style="fill:#F9D5C2;" d="M159.718,135.832h-29.985l-1.617,14.252c-0.206,1.811-0.768,3.534-1.637,5.071h36.493
		c-0.87-1.537-1.432-3.261-1.637-5.071L159.718,135.832z"/>
	<polygon style="fill:#FF833D;" points="88.889,48.024 81.694,43.713 88.889,39.211 88.889,34.71 75.511,42.793 75.511,44.854 
		88.889,52.778 	"/>
	<rect x="92.439" y="41.303" style="fill:#FF833D;" width="9.604" height="3.835"/>
	<polygon style="fill:#FF833D;" points="125.152,29.416 120.429,29.416 104.738,51.922 109.43,51.922 	"/>
	<polygon style="fill:#FF833D;" points="141.098,42.793 127.72,34.71 127.72,39.211 134.915,43.713 127.72,48.024 127.72,52.778 
		141.098,44.854 	"/>
	<path style="fill:#FF833D;" d="M153.887,52.346V46.38h-4.233v5.042c0,1.039-0.924,1.192-1.27,1.192v3.656
		C150.73,56.271,153.887,55.424,153.887,52.346z"/>
	<path style="fill:#FF833D;" d="M162.195,44.093v7.861c0,0.761,0.443,0.951,0.729,0.951h4.85v-3.392h-1.745v-6.815
		c0-0.824-0.475-1.617-1.109-2.188c0.666-0.602,1.109-1.331,1.109-2.187v-6.467h1.745v-3.392h-4.85
		c-0.221,0-0.729,0.159-0.729,0.951v7.513c0,0.888-0.698,2.06-1.586,2.06v2.98C161.434,42.128,162.195,42.983,162.195,44.093z"/>
	<path style="fill:#FF833D;" d="M174.842,44.156c1.838,0,3.297-1.49,3.297-3.329c0-1.806-1.459-3.297-3.297-3.297
		c-1.807,0-3.329,1.49-3.329,3.297C171.513,42.666,173.035,44.156,174.842,44.156z"/>
	<path style="fill:#FF833D;" d="M186.348,37.531c-1.805,0-3.327,1.49-3.327,3.297c0,1.839,1.522,3.329,3.327,3.329
		c1.839,0,3.297-1.49,3.297-3.329C189.645,39.021,188.188,37.531,186.348,37.531z"/>
	<path style="fill:#FF833D;" d="M197.854,37.531c-1.805,0-3.327,1.49-3.327,3.297c0,1.839,1.522,3.329,3.327,3.329
		c1.839,0,3.297-1.49,3.297-3.329C201.151,39.021,199.694,37.531,197.854,37.531z"/>
	<path style="fill:#FF833D;" d="M210.504,36.929v-7.513c0-0.792-0.507-0.951-0.729-0.951h-4.85v3.392h1.743v6.467
		c0,0.855,0.445,1.585,1.109,2.187c-0.664,0.571-1.109,1.364-1.109,2.188v6.815h-1.743v3.392h4.85c0.254,0,0.729-0.19,0.729-0.951
		v-7.861c0-1.11,0.729-1.965,1.584-2.124v-2.98C211.2,38.989,210.504,37.817,210.504,36.929z"/>
	<path style="fill:#FF833D;" d="M87.576,69.036c-2.504,0-4.724,1.236-5.959,3.36v-9.605h-4.249v23.14h4.249v-9.7
		c0.634-2.029,2.598-3.455,4.152-3.455c1.743,0,2.789,1.236,2.789,3.835v9.319h4.249V75.566
		C92.806,72.301,91.854,69.036,87.576,69.036z"/>
	<path style="fill:#FF833D;" d="M103.203,82.318c-0.888,0-1.618-0.444-1.618-1.616v-8.115h3.52v-3.265h-3.52v-5.389h-4.247v5.389
		h-2.156v3.265h2.156v9.541c0,2.948,1.964,4.09,4.311,4.09c1.807,0,3.582-0.634,4.724-1.141l-0.857-3.36
		C105.009,81.937,104.091,82.318,103.203,82.318z"/>
	<path style="fill:#FF833D;" d="M115.217,82.318c-0.888,0-1.616-0.444-1.616-1.616v-8.115h3.518v-3.265h-3.518v-5.389h-4.249v5.389
		h-2.156v3.265h2.156v9.541c0,2.948,1.966,4.09,4.311,4.09c1.807,0,3.582-0.634,4.724-1.141l-0.855-3.36
		C117.024,81.937,116.104,82.318,115.217,82.318z"/>
	<path style="fill:#FF833D;" d="M129.957,69.036c-2.504,0-4.502,1.205-5.738,3.138v-2.853h-3.709v23.362h4.249v-9.669
		c1.077,1.965,3.106,3.233,5.674,3.233c4.249,0,7.292-3.804,7.292-8.653C137.724,72.904,134.427,69.036,129.957,69.036z
		 M129.037,82.635c-1.807,0-3.518-1.426-4.279-3.297v-3.898c0.57-1.617,2.409-2.789,4.025-2.789c2.631,0,4.597,2.156,4.597,4.945
		C133.38,80.225,131.605,82.635,129.037,82.635z"/>
	<rect x="140.767" y="69.511" style="fill:#FF833D;" width="3.456" height="4.565"/>
	<rect x="140.767" y="81.367" style="fill:#FF833D;" width="3.456" height="4.565"/>
	<polygon style="fill:#FF833D;" points="162.924,63.425 147.233,85.931 151.925,85.931 167.647,63.425 	"/>
	<polygon style="fill:#FF833D;" points="160.991,85.931 165.683,85.931 181.405,63.425 176.682,63.425 	"/>
	<path style="fill:#A5DBFF;" d="M218.929,69.192c-22.707,0-41.18,18.473-41.18,41.18s18.473,41.18,41.18,41.18
		s41.18-18.473,41.18-41.18S241.635,69.192,218.929,69.192z M208.762,78.339l2.35,4.3c2.535-0.709,5.154-1.088,7.817-1.088
		c9.208,0,17.678,4.233,23.24,11.614l-3.87,2.915c-4.637-6.154-11.697-9.685-19.37-9.685c-1.839,0-3.651,0.222-5.42,0.628
		l2.204,4.033l-14.489-0.341L208.762,78.339z M194.753,134.31l2.765-4.024c-4.961-5.377-7.678-12.286-7.678-19.646
		c0-2.613,0.357-5.226,1.061-7.765l4.669,1.294c-0.587,2.118-0.885,4.294-0.885,6.47c0,5.755,1.995,11.181,5.66,15.532l2.616-3.808
		l6.241,13.08L194.753,134.31z M224.74,139.144l-0.967-4.748c7.309-1.488,13.57-6.381,16.874-13.016l-4.533-0.858l9.455-10.983
		l4.786,13.679l-4.786-0.906C241.787,130.889,233.953,137.268,224.74,139.144z"/>
	<path style="fill:#305CB3;" d="M242.182,70.677c-1.559-0.917-3.176-1.745-4.845-2.477c-1.572-0.689-3.186-1.299-4.843-1.811
		c-1.58-0.488-3.198-0.886-4.845-1.203c-2.825-0.544-5.738-0.839-8.72-0.839c-22.607,0-41.445,16.389-45.293,37.906
		c-0.284,1.589-0.486,3.205-0.602,4.845c-0.077,1.083-0.13,2.172-0.13,3.274c0,5.622,1.017,11.01,2.871,15.995
		c0.619,1.664,1.338,3.278,2.138,4.845c7.618,14.93,23.137,25.185,41.016,25.185c25.378,0,46.024-20.647,46.024-46.024
		C264.953,93.473,255.792,78.681,242.182,70.677z M218.929,151.551c-22.707,0-41.18-18.473-41.18-41.18s18.473-41.18,41.18-41.18
		s41.18,18.473,41.18,41.18S241.635,151.551,218.929,151.551z"/>
	<path style="fill:#305CB3;" d="M202.96,122.364l-2.616,3.808c-3.665-4.351-5.66-9.777-5.66-15.532c0-2.176,0.298-4.353,0.885-6.47
		l-4.669-1.294c-0.704,2.539-1.061,5.151-1.061,7.765c0,7.36,2.717,14.269,7.678,19.646l-2.765,4.024l14.448,1.133L202.96,122.364z"
		/>
	<path style="fill:#305CB3;" d="M245.568,109.539l-9.455,10.983l4.533,0.858c-3.304,6.634-9.565,11.528-16.874,13.016l0.967,4.748
		c9.213-1.876,17.048-8.255,20.828-16.832l4.786,0.906L245.568,109.539z"/>
	<path style="fill:#305CB3;" d="M213.509,87.024c1.769-0.406,3.581-0.628,5.42-0.628c7.673,0,14.733,3.53,19.37,9.685l3.87-2.915
		c-5.562-7.381-14.033-11.614-23.24-11.614c-2.663,0-5.281,0.378-7.817,1.088l-2.35-4.3l-7.538,12.378l14.489,0.341L213.509,87.024z
		"/>
</g>
</svg>
