<?xml version="1.0" encoding="iso-8859-1"?>
<!-- Generator: Adobe Illustrator 18.0.0, SVG Export Plug-In . SVG Version: 6.00 Build 0)  -->
<!DOCTYPE svg PUBLIC "-//W3C//DTD SVG 1.1//EN" "http://www.w3.org/Graphics/SVG/1.1/DTD/svg11.dtd">
<svg version="1.1" id="Layer_1" xmlns="http://www.w3.org/2000/svg" xmlns:xlink="http://www.w3.org/1999/xlink" x="0px" y="0px"
	 viewBox="0 0 228 160" style="enable-background:new 0 0 228 160;" xml:space="preserve">
<g>
	<path style="fill:#A5DBFF;" d="M5,140.6h33.9V131h-6.7v-4.8h6.7v-9.6H14.8v-4.8h24.1V87.4H14.8v-4.8h24.1v-9.7H14.8V58.3h24.1v-9.8
		H5V140.6z M14.8,126.2h7.7v4.8h-7.7V126.2z M14.8,97.2h17.4v4.8H14.8V97.2z"/>
	<polygon style="fill:#305CB3;" points="38.9,140.6 5,140.6 5,48.5 38.9,48.5 38.9,43.6 0.2,43.6 0.2,145.5 38.9,145.5 	"/>
	<rect x="14.8" y="58.3" style="fill:#305CB3;" width="24.1" height="14.5"/>
	<rect x="14.8" y="82.5" style="fill:#305CB3;" width="24.1" height="4.8"/>
	<rect x="14.8" y="97.2" style="fill:#305CB3;" width="17.4" height="4.8"/>
	<rect x="14.8" y="111.7" style="fill:#305CB3;" width="24.1" height="4.8"/>
	<rect x="14.8" y="126.2" style="fill:#305CB3;" width="7.7" height="4.8"/>
	<rect x="32.2" y="126.2" style="fill:#305CB3;" width="6.7" height="4.8"/>
	<path style="fill:#A5DBFF;" d="M213.5,58.3v14.5h-24.3v9.7h24.3v4.8h-24.3v9.8h24.4v4.8h-24.4v9.7h4.4v4.8h-4.4v9.6h24.3v4.8h-24.3
		v9.6H223V48.5h-33.8v9.8H213.5z M213.5,116.6h-15.1v-4.8h15.1V116.6z"/>
	<polygon style="fill:#305CB3;" points="227.8,43.6 189.2,43.6 189.2,48.5 223,48.5 223,140.6 189.2,140.6 189.2,145.5 227.8,145.5 
			"/>
	<rect x="189.2" y="58.3" style="fill:#305CB3;" width="24.3" height="14.5"/>
	<rect x="189.2" y="82.5" style="fill:#305CB3;" width="24.3" height="4.8"/>
	<rect x="189.2" y="97.2" style="fill:#305CB3;" width="24.4" height="4.8"/>
	<rect x="189.2" y="111.7" style="fill:#305CB3;" width="4.4" height="4.8"/>
	<rect x="198.4" y="111.7" style="fill:#305CB3;" width="15.1" height="4.8"/>
	<rect x="189.2" y="126.2" style="fill:#305CB3;" width="24.3" height="4.8"/>
	<path style="fill:#F9D5C2;" d="M184.3,4.8H43.7v150.3h140.6V4.8z M174.6,145.4h-58.1v-4.8h58.1V145.4z M174.6,130.9H77.7v-4.8h96.9
		V130.9z M53.5,101.8V97h29.1v4.8H53.5z M121.3,82.4v4.8H77.7v-4.8H121.3z M150.4,58.2v-4.8h24.1v4.8H150.4z M135.9,58.2H53.5v-4.8
		h82.4V58.2z M174.6,67.9v4.8H53.5v-4.8H174.6z M102,97h72.6v4.8H102V97z M174.6,116.4h-33.8v-4.8h33.8V116.4z M174.6,87.3h-48.4
		v-4.8h48.4V87.3z M51,12h124.3v34L51,46.1V12z M53.5,82.4h19.4v4.8H53.5V82.4z M53.5,111.5h82.4v4.8H53.5V111.5z M53.5,126.1h19.4
		v4.8H53.5V126.1z M53.5,140.6h43.7v4.8H53.5V140.6z"/>
	<path style="fill:#FF833D;" d="M189.2,140.6V131v-4.8v-9.6v-4.8V102v-4.8v-9.8v-4.8v-9.7V58.3v-9.8v-4.8V0H38.9v43.6v4.8v9.8v14.5
		v9.7v4.8v24.4v4.8v9.6v4.8v9.6v4.8V160h150.3v-14.5L189.2,140.6L189.2,140.6z M43.7,155.2V4.8h140.6v150.3H43.7V155.2z"/>
	<path style="fill:#FF833D;" d="M78.5,32c0,1.9,1.2,3.2,2.8,3.2s2.8-1.4,2.8-3.3c0-1.9-1.2-3.2-2.8-3.2S78.5,30.1,78.5,32z"/>
	<path style="fill:#FF833D;" d="M175.3,46.1V12H51v34L175.3,46.1z M107.8,21.4v18.7h-2.4V21.4H107.8z M102.5,26.4c0.3,0,0.4,0,0.6,0
		V29c-1.7,0-3.1,0.7-3.7,1.9v6.6h-2.8V26.6h2.5v2.3C99.9,27.4,101.2,26.4,102.5,26.4z M93.3,35.1c0.3,0,0.7-0.1,1.1-0.3l0.4,2.2
		c-0.7,0.4-1.8,0.6-2.6,0.6c-1.7,0-2.7-1-2.7-2.7V22.3h2.8v11.5C92.2,34.6,92.6,35.1,93.3,35.1z M87,32c0,3-2.1,5.6-5.7,5.6
		c-3.5,0-5.7-2.6-5.7-5.6s2.2-5.6,5.7-5.6C84.8,26.4,87,29,87,32z M66.9,31.2c-2.8-0.8-4.2-1.7-4.2-4c0-3,2.4-4.6,5.4-4.6
		c2,0,3.8,0.8,5.1,1.6L72,26.6c-0.4-0.4-2.2-1.4-4-1.4c-1.6,0-2.3,0.6-2.3,1.7c0,1.2,1.1,1.5,3.4,2.1c2.9,0.7,4.7,1.7,4.7,4.3
		c0,3.2-2.5,4.4-5.4,4.4c-2.2,0-4.5-0.7-6.2-1.9l1.3-2.5c0.5,0.5,2.7,1.8,4.9,1.8c1.6,0,2.4-0.5,2.4-1.5
		C70.7,32.2,69.2,31.8,66.9,31.2z"/>
	<rect x="53.5" y="53.3" style="fill:#305CB3;" width="82.4" height="4.8"/>
	<rect x="150.4" y="53.3" style="fill:#305CB3;" width="24.1" height="4.8"/>
	<rect x="53.5" y="67.9" style="fill:#305CB3;" width="121.1" height="4.8"/>
	<rect x="53.5" y="82.4" style="fill:#305CB3;" width="19.4" height="4.8"/>
	<rect x="77.7" y="82.4" style="fill:#305CB3;" width="43.6" height="4.8"/>
	<rect x="126.2" y="82.4" style="fill:#305CB3;" width="48.4" height="4.8"/>
	<rect x="53.5" y="97" style="fill:#FF833D;" width="29.1" height="4.8"/>
	<rect x="102" y="97" style="fill:#FF833D;" width="72.6" height="4.8"/>
	<rect x="53.5" y="111.5" style="fill:#305CB3;" width="82.4" height="4.8"/>
	<rect x="140.7" y="111.5" style="fill:#305CB3;" width="33.8" height="4.8"/>
	<rect x="53.5" y="126.1" style="fill:#305CB3;" width="19.4" height="4.8"/>
	<rect x="77.7" y="126.1" style="fill:#305CB3;" width="96.9" height="4.8"/>
	<rect x="53.5" y="140.6" style="fill:#FF833D;" width="43.7" height="4.8"/>
	<rect x="116.5" y="140.6" style="fill:#FF833D;" width="58.1" height="4.8"/>
	<path style="fill:#F9D5C2;" d="M68.4,35c-2.2,0-4.4-1.3-4.9-1.8l-1.3,2.5c1.7,1.2,4,1.9,6.2,1.9c2.9,0,5.4-1.2,5.4-4.4
		c0-2.7-1.8-3.6-4.7-4.3c-2.2-0.6-3.4-0.9-3.4-2.1c0-1.1,0.8-1.7,2.3-1.7c1.8,0,3.6,1,4,1.4l1.3-2.3c-1.3-0.9-3.1-1.6-5.1-1.6
		c-3,0-5.4,1.6-5.4,4.6c0,2.3,1.4,3.2,4.2,4c2.3,0.6,3.8,1,3.8,2.3C70.7,34.5,69.9,35,68.4,35z"/>
	<path style="fill:#F9D5C2;" d="M75.6,32c0,3,2.2,5.6,5.7,5.6S87,35,87,32s-2.2-5.6-5.7-5.6C77.8,26.4,75.6,29,75.6,32z M84.1,32
		c0,1.9-1.2,3.3-2.8,3.3s-2.8-1.3-2.8-3.2c0-1.9,1.2-3.3,2.8-3.3S84.1,30.1,84.1,32z"/>
	<path style="fill:#F9D5C2;" d="M89.4,22.3v12.6c0,1.7,1,2.7,2.7,2.7c0.8,0,1.9-0.2,2.6-0.6l-0.4-2.2c-0.4,0.1-0.8,0.3-1.1,0.3
		c-0.7,0-1.1-0.5-1.1-1.3V22.3H89.4z"/>
	<path style="fill:#F9D5C2;" d="M96.6,26.6v10.8h2.8v-6.6c0.6-1.2,2-1.9,3.7-1.9v-2.5c-0.1,0-0.3,0-0.6,0c-1.3,0-2.6,1-3.4,2.5v-2.3
		L96.6,26.6z"/>
	<rect x="105.4" y="21.4" style="fill:#F9D5C2;" width="2.4" height="18.7"/>
</g>
</svg>
