<?xml version="1.0" encoding="iso-8859-1"?>
<!-- Generator: Adobe Illustrator 18.0.0, SVG Export Plug-In . SVG Version: 6.00 Build 0)  -->
<!DOCTYPE svg PUBLIC "-//W3C//DTD SVG 1.1//EN" "http://www.w3.org/Graphics/SVG/1.1/DTD/svg11.dtd">
<svg version="1.1" id="Layer_1" xmlns="http://www.w3.org/2000/svg" xmlns:xlink="http://www.w3.org/1999/xlink" x="0px" y="0px"
	 viewBox="0 0 224 160" style="enable-background:new 0 0 224 160;" xml:space="preserve">
<g>
	<path style="fill:#F9D5C2;" d="M98.497,24.484l-6.225-10.782H47.15l-6.225,10.782H4.902v130.629h150.145v-11.664
		c-1.638-0.07-3.275-0.152-4.913-0.252v6.871H9.814V29.24h140.319v10.744c1.637-0.1,3.275-0.183,4.913-0.253V24.484H98.497z"/>
	<path style="fill:#F9D5C2;" d="M4.902,19.597h33.202l6.225-10.782h50.765l6.225,10.782h53.728V4.887H4.902V19.597z M31.805,9.713
		c1.35,0,2.443,1.094,2.443,2.443c0,1.349-1.094,2.443-2.443,2.443c-1.349,0-2.443-1.094-2.443-2.443
		C29.362,10.807,30.456,9.713,31.805,9.713z M22.031,9.713c1.35,0,2.443,1.094,2.443,2.443c0,1.349-1.094,2.443-2.443,2.443
		c-1.349,0-2.443-1.094-2.443-2.443C19.588,10.807,20.682,9.713,22.031,9.713z M12.258,9.713c1.35,0,2.443,1.094,2.443,2.443
		c0,1.349-1.094,2.443-2.443,2.443c-1.349,0-2.443-1.094-2.443-2.443C9.814,10.807,10.908,9.713,12.258,9.713z"/>
	<path style="fill:#FF833D;" d="M155.046,143.449v11.664H4.902V24.484h36.023l6.225-10.782h45.122l6.225,10.782h56.549v15.248
		c1.629-0.069,3.258-0.138,4.887-0.178V0H0.015v160h159.918v-16.374c-0.774-0.019-1.548-0.05-2.322-0.075
		C156.756,143.523,155.901,143.485,155.046,143.449z M155.046,19.597h-53.728L95.094,8.815H44.329l-6.225,10.782H4.902V4.887
		h150.145V19.597z M2.458,22.041L2.458,22.041L2.458,22.041z"/>
	<path style="fill:#F9D5C2;" d="M14.701,145.181h130.546v-2.309c-11.663-0.929-23.282-2.628-34.729-5.084l-1.931-0.414v-16.646
		l-93.886,0V145.181z"/>
	<path style="fill:#F9D5C2;" d="M14.701,34.127v81.714l93.886,0v-5.295v-4.261V79.458v-4.176v-2.648V50.917v-2.463v-2.646
		l1.931-0.414c11.448-2.456,23.067-4.155,34.729-5.085v-6.182H14.701z M35.723,53.101h-4.08v19.361c0,1.187-0.445,3.19-2.003,4.599
		c1.558,1.336,2.003,3.487,2.003,4.599v20.177h4.08v4.228H28.75c-0.816,0-1.706-0.519-1.706-2.225V82.996
		c0-1.929-1.039-3.858-2.894-4.08v-3.857c2.077,0,2.894-2.671,2.894-3.931V51.098c0-1.854,1.186-2.225,1.706-2.225h6.973V53.101z
		 M45.497,83.31c-2.699,0-4.887-2.188-4.887-4.887s2.188-4.887,4.887-4.887s4.887,2.188,4.887,4.887S48.196,83.31,45.497,83.31z
		 M60.464,83.31c-2.699,0-4.887-2.188-4.887-4.887s2.188-4.887,4.887-4.887s4.887,2.188,4.887,4.887S63.163,83.31,60.464,83.31z
		 M75.43,83.31c-2.699,0-4.887-2.188-4.887-4.887s2.188-4.887,4.887-4.887c2.699,0,4.887,2.188,4.887,4.887
		S78.129,83.31,75.43,83.31z M96.702,78.915c-1.855,0.223-2.819,2.152-2.819,4.08v20.845c0,1.706-0.964,2.225-1.705,2.225h-6.974
		v-4.228h4.08V81.66c0-1.112,0.371-3.264,1.929-4.599c-1.558-1.409-1.929-3.412-1.929-4.599V53.101h-4.08v-4.228h6.974
		c0.445,0,1.705,0.371,1.705,2.225v20.029c0,1.261,0.742,3.931,2.819,3.931V78.915z"/>
	<path style="fill:#FF833D;" d="M9.814,29.24v120.827h140.319v-6.871c-1.629-0.1-3.259-0.195-4.887-0.325v2.309H14.701v-24.453
		l93.886,0v-4.887l-93.886,0V34.127h130.546v6.182c1.628-0.13,3.258-0.225,4.887-0.325V29.24H9.814z"/>
	
		<line style="fill:none;stroke:#F9D5C2;stroke-width:0;stroke-linecap:round;stroke-linejoin:round;" x1="2.458" y1="22.041" x2="2.458" y2="22.041"/>
	<circle style="fill:#FF833D;" cx="12.258" cy="12.156" r="2.443"/>
	<circle style="fill:#FF833D;" cx="22.031" cy="12.156" r="2.443"/>
	<circle style="fill:#FF833D;" cx="31.805" cy="12.156" r="2.443"/>
	<path style="fill:#FF833D;" d="M93.883,71.127V51.098c0-1.854-1.26-2.225-1.705-2.225h-6.974v4.228h4.08v19.361
		c0,1.187,0.371,3.19,1.929,4.599c-1.558,1.336-1.929,3.487-1.929,4.599v20.177h-4.08v4.228h6.974c0.742,0,1.705-0.519,1.705-2.225
		V82.996c0-1.929,0.965-3.858,2.819-4.08v-3.857C94.625,75.058,93.883,72.388,93.883,71.127z"/>
	<path style="fill:#FF833D;" d="M27.044,51.098v20.029c0,1.261-0.816,3.931-2.894,3.931v3.857c1.855,0.223,2.894,2.152,2.894,4.08
		v20.845c0,1.706,0.889,2.225,1.706,2.225h6.973v-4.228h-4.08V81.66c0-1.112-0.445-3.264-2.003-4.599
		c1.558-1.409,2.003-3.412,2.003-4.599V53.101h4.08v-4.228H28.75C28.23,48.873,27.044,49.244,27.044,51.098z"/>
	<circle style="fill:#FF833D;" cx="75.43" cy="78.423" r="4.887"/>
	<circle style="fill:#FF833D;" cx="60.464" cy="78.423" r="4.887"/>
	<circle style="fill:#FF833D;" cx="45.497" cy="78.423" r="4.887"/>
	<path style="fill:#A5DBFF;" d="M113.474,107.293v4.369c34.675,7.826,70.946,7.827,105.625,0v-4.371
		c-17.387,3.524-35.137,5.331-52.817,5.331C148.604,112.622,130.857,110.816,113.474,107.293z"/>
	<path style="fill:#A5DBFF;" d="M113.474,76.289v4.285c34.677,7.827,70.948,7.826,105.625-0.001v-4.286
		c-17.387,3.524-35.137,5.331-52.817,5.331C148.604,81.619,130.857,79.812,113.474,76.289z"/>
	<path style="fill:#A5DBFF;" d="M113.947,49.674c34.376,7.686,70.303,7.685,104.682-0.001
		C184.181,42.623,148.395,42.624,113.947,49.674z"/>
	<path style="fill:#305CB3;" d="M222.054,45.392c-18.324-3.93-37.086-5.923-55.764-5.923c-2.118,0-4.237,0.033-6.357,0.085
		c-1.629,0.039-3.258,0.108-4.887,0.178c-1.638,0.07-3.275,0.152-4.913,0.253c-1.629,0.1-3.259,0.195-4.887,0.325
		c-11.662,0.93-23.281,2.629-34.729,5.085l-1.931,0.414v2.646v2.463v21.717v2.648v4.176v26.827v4.261v5.295v4.887v16.646
		l1.931,0.414c11.447,2.456,23.066,4.155,34.729,5.084c1.628,0.13,3.258,0.225,4.887,0.325c1.637,0.1,3.275,0.183,4.913,0.252
		c0.855,0.036,1.71,0.074,2.565,0.102c0.774,0.025,1.548,0.056,2.322,0.075c2.117,0.051,4.233,0.085,6.348,0.085
		c0.001,0,0.002,0,0.003,0c1.301,0,2.604-0.033,3.906-0.052c1.034-0.015,2.067-0.014,3.101-0.041
		c3.496-0.093,6.992-0.279,10.485-0.51c12.853-0.852,25.67-2.616,38.278-5.321l1.931-0.414v-26.826v-4.262V79.458V75.28v-2.646
		V50.917v-2.463v-2.648L222.054,45.392z M113.474,116.69c34.699,7.671,70.924,7.671,105.625,0v16.725
		c-34.751,7.179-70.879,7.179-105.625,0.001V116.69z M113.947,49.674c34.448-7.05,70.234-7.051,104.682-0.001
		C184.25,57.359,148.323,57.359,113.947,49.674z M113.474,102.328V85.602c34.699,7.671,70.924,7.67,105.625,0v16.725
		C184.347,109.505,148.219,109.506,113.474,102.328z M219.098,111.662c-34.679,7.827-70.949,7.826-105.625,0v-4.369
		c17.383,3.523,35.13,5.33,52.808,5.33c17.68,0,35.43-1.807,52.817-5.331V111.662z M219.098,80.574
		c-34.677,7.826-70.948,7.828-105.625,0.001v-4.285c17.383,3.523,35.13,5.33,52.808,5.33c17.68,0,35.43-1.807,52.817-5.331V80.574z
		 M219.098,71.323c-34.751,7.179-70.879,7.179-105.625,0.001V66.49v-9.429v-2.463c34.699,7.671,70.924,7.671,105.625,0v2.463v9.429
		V71.323z"/>
	<path style="fill:#A5DBFF;" d="M219.098,102.327V85.602c-34.7,7.67-70.926,7.671-105.625,0v16.726
		C148.219,109.506,184.347,109.505,219.098,102.327z"/>
	<path style="fill:#A5DBFF;" d="M219.098,57.061v-2.463c-34.7,7.671-70.926,7.671-105.625,0v2.463v9.429v4.835
		c34.745,7.178,70.874,7.177,105.625-0.001V66.49V57.061z"/>
	<path style="fill:#A5DBFF;" d="M219.098,133.415V116.69c-34.7,7.671-70.926,7.671-105.625,0v16.726
		C148.219,140.594,184.347,140.593,219.098,133.415z"/>
</g>
</svg>
