<?xml version="1.0" encoding="iso-8859-1"?>
<!-- Generator: Adobe Illustrator 18.0.0, SVG Export Plug-In . SVG Version: 6.00 Build 0)  -->
<!DOCTYPE svg PUBLIC "-//W3C//DTD SVG 1.1//EN" "http://www.w3.org/Graphics/SVG/1.1/DTD/svg11.dtd">
<svg version="1.1" id="Layer_1" xmlns="http://www.w3.org/2000/svg" xmlns:xlink="http://www.w3.org/1999/xlink" x="0px" y="0px"
	 viewBox="0 0 169.074 160" style="enable-background:new 0 0 169.074 160;" xml:space="preserve">
<g>
	<path style="fill:#F9D5C2;" d="M50.168,30.309c0-0.528,0.448-0.96,0.996-0.96h59.579c0.548,0,0.996,0.432,0.996,0.96v101.606
		c0,0.528-0.448,0.96-0.996,0.96H51.164c-0.548,0-0.996-0.432-0.996-0.96v-8.882c-1.712,2.582-3.361,4.977-4.878,7.123v14.174
		c0,5.96,4.832,10.792,10.792,10.792h49.744c5.96,0,10.792-4.832,10.792-10.792V15.67c0-5.96-4.832-10.792-10.792-10.792H56.082
		c-5.96,0-10.792,4.832-10.792,10.792v24.955c1.671,0.478,3.3,1.077,4.878,1.795V30.309z M80.954,150.063
		c-3.399,0-6.155-2.756-6.155-6.155c0-3.399,2.756-6.155,6.155-6.155c3.399,0,6.155,2.756,6.155,6.155
		C87.109,147.307,84.353,150.063,80.954,150.063z M82.044,9.841c1.347,0,2.439,1.092,2.439,2.439c0,1.347-1.092,2.439-2.439,2.439
		c-1.347,0-2.439-1.092-2.439-2.439C79.605,10.933,80.697,9.841,82.044,9.841z M72.481,19.592h20.326v4.878H72.481V19.592z
		 M65.163,19.592c1.347,0,2.439,1.092,2.439,2.439c0,1.347-1.092,2.439-2.439,2.439c-1.347,0-2.439-1.092-2.439-2.439
		C62.724,20.684,63.816,19.592,65.163,19.592z"/>
	<path style="fill:#FF833D;" d="M105.826,0H56.082c-8.641,0-15.67,7.03-15.67,15.67v23.925c1.657,0.229,3.286,0.575,4.878,1.03
		V15.67c0-5.96,4.832-10.792,10.792-10.792h49.744c5.96,0,10.792,4.832,10.792,10.792V144.33c0,5.96-4.832,10.792-10.792,10.792
		H56.082c-5.96,0-10.792-4.832-10.792-10.792v-14.174c-1.886,2.668-3.559,4.942-4.878,6.698v7.475c0,8.641,7.03,15.67,15.67,15.67
		h49.744c8.641,0,15.67-7.03,15.67-15.67V15.67C121.496,7.03,114.466,0,105.826,0z"/>
	<path style="fill:#F9D5C2;" d="M106.861,127.996V34.227H55.047V45.12c1.969,1.306,3.823,2.817,5.532,4.526
		c6.703,6.703,10.394,15.614,10.393,25.092c0,0.43-0.012,0.866-0.033,1.307c-0.128,3.617-0.805,7.185-2.012,10.578
		c-2.848,9.331-8.299,19.652-13.88,28.766v12.609H106.861z M79.605,67.804h22.456v4.878H79.605V67.804z M79.605,77.561h22.456v4.878
		H79.605V77.561z M79.605,87.318h22.456v4.878H79.605V87.318z"/>
	<path style="fill:#FF833D;" d="M51.164,132.875h59.579c0.548,0,0.996-0.432,0.996-0.96V30.309c0-0.528-0.448-0.96-0.996-0.96
		H51.164c-0.548,0-0.996,0.432-0.996,0.96v12.112c1.689,0.768,3.321,1.666,4.878,2.699V34.227h51.814v93.769H55.047v-12.609
		c-1.637,2.673-3.282,5.236-4.878,7.645v8.882C50.168,132.443,50.617,132.875,51.164,132.875z"/>
	<circle style="fill:#FF833D;" cx="65.163" cy="22.031" r="2.439"/>
	<circle style="fill:#FF833D;" cx="82.044" cy="12.28" r="2.439"/>
	<circle style="fill:#FF833D;" cx="80.954" cy="143.908" r="6.155"/>
	<rect x="72.481" y="19.592" style="fill:#FF833D;" width="20.326" height="4.878"/>
	<path style="fill:#A5DBFF;" d="M64.277,85.147l0.037-0.111c1.05-2.936,1.639-6.029,1.751-9.193
		c0.018-0.392,0.029-0.751,0.029-1.105c0-8.175-3.183-15.861-8.964-21.642c-5.782-5.781-13.468-8.965-21.643-8.965
		c-16.877,0-30.608,13.731-30.608,30.607c0,0.355,0.01,0.717,0.027,1.081C5.019,79,5.608,82.093,6.657,85.034l0.036,0.11
		c5.685,18.685,23.001,42.484,28.793,50.122C41.278,127.628,58.591,103.831,64.277,85.147z M16.862,74.738
		c0-10.269,8.355-18.624,18.625-18.624s18.625,8.355,18.625,18.624c0,10.269-8.355,18.625-18.625,18.625
		S16.862,85.007,16.862,74.738z"/>
	<path style="fill:#305CB3;" d="M45.29,130.156c1.517-2.146,3.167-4.541,4.878-7.123c1.597-2.409,3.242-4.972,4.878-7.645
		c5.581-9.113,11.032-19.435,13.88-28.766c1.207-3.392,1.885-6.961,2.012-10.578c0.021-0.441,0.033-0.877,0.033-1.307
		c0.001-9.478-3.69-18.389-10.393-25.092c-1.709-1.709-3.563-3.22-5.532-4.526c-1.557-1.033-3.189-1.931-4.878-2.699
		c-1.578-0.718-3.208-1.317-4.878-1.795c-1.593-0.455-3.221-0.801-4.878-1.03c-1.619-0.223-3.262-0.344-4.925-0.344
		C15.92,39.252,0,55.171,0,74.738c0,0.427,0.012,0.862,0.031,1.278c0.13,3.639,0.806,7.206,2.011,10.603
		c7.125,23.342,30.541,52.912,31.535,54.16l1.908,2.396l1.908-2.396c0.2-0.251,1.317-1.663,3.016-3.925
		C41.731,135.098,43.404,132.824,45.29,130.156z M6.657,85.034C5.608,82.093,5.019,79,4.905,75.819
		c-0.016-0.364-0.027-0.726-0.027-1.081c0-16.877,13.731-30.607,30.608-30.607c8.175,0,15.861,3.184,21.643,8.965
		c5.781,5.781,8.964,13.467,8.964,21.642c0,0.354-0.01,0.713-0.029,1.105c-0.112,3.164-0.701,6.257-1.751,9.193l-0.037,0.111
		c-5.685,18.685-22.999,42.482-28.79,50.119c-5.792-7.638-23.108-31.437-28.793-50.122L6.657,85.034z"/>
	<path style="fill:#A5DBFF;" d="M49.233,74.738c0-7.579-6.167-13.745-13.746-13.745S21.74,67.158,21.74,74.738
		c0,7.58,6.167,13.746,13.746,13.746S49.233,82.317,49.233,74.738z"/>
	<path style="fill:#305CB3;" d="M54.111,74.738c0-10.269-8.355-18.624-18.625-18.624s-18.625,8.355-18.625,18.624
		c0,10.269,8.355,18.625,18.625,18.625S54.111,85.007,54.111,74.738z M35.487,88.484c-7.58,0-13.746-6.167-13.746-13.746
		c0-7.579,6.167-13.745,13.746-13.745s13.746,6.166,13.746,13.745C49.233,82.317,43.066,88.484,35.487,88.484z"/>
	<rect x="79.605" y="67.804" style="fill:#FF833D;" width="22.456" height="4.878"/>
	<rect x="79.605" y="77.561" style="fill:#FF833D;" width="22.456" height="4.878"/>
	<rect x="79.605" y="87.318" style="fill:#FF833D;" width="22.456" height="4.878"/>
	<rect x="126.401" y="67.804" style="fill:#FF833D;" width="42.673" height="4.878"/>
	<rect x="126.401" y="77.561" style="fill:#FF833D;" width="42.673" height="4.878"/>
	<rect x="126.401" y="87.318" style="fill:#FF833D;" width="42.673" height="4.878"/>
</g>
</svg>
