<?xml version="1.0" encoding="iso-8859-1"?>
<!-- Generator: Adobe Illustrator 18.0.0, SVG Export Plug-In . SVG Version: 6.00 Build 0)  -->
<!DOCTYPE svg PUBLIC "-//W3C//DTD SVG 1.1//EN" "http://www.w3.org/Graphics/SVG/1.1/DTD/svg11.dtd">
<svg version="1.1" id="Layer_1" xmlns="http://www.w3.org/2000/svg" xmlns:xlink="http://www.w3.org/1999/xlink" x="0px" y="0px"
	 viewBox="0 0 222 160" style="enable-background:new 0 0 222 160;" xml:space="preserve">
<g>
	<path style="fill:#A5DBFF;" d="M180.968,148.089c19.771,0,35.855-16.084,35.855-35.855c0-19.77-16.085-35.855-35.855-35.855
		c-7.174,0-13.857,2.126-19.468,5.77v60.17C167.11,145.963,173.793,148.089,180.968,148.089z M168.752,138.278
		c-0.675,1.168-2.169,1.569-3.337,0.894c-1.168-0.675-1.569-2.169-0.894-3.337s2.169-1.569,3.337-0.894
		C169.027,135.615,169.427,137.109,168.752,138.278z M196.521,139.172c-1.168,0.675-2.662,0.274-3.337-0.894
		c-0.675-1.168-0.274-2.662,0.894-3.337c1.168-0.675,2.662-0.274,3.337,0.894C198.089,137.003,197.689,138.497,196.521,139.172z
		 M207.906,127.786c-0.675,1.168-2.169,1.569-3.337,0.894c-1.168-0.675-1.569-2.169-0.894-3.337
		c0.675-1.168,2.169-1.569,3.337-0.894C208.18,125.124,208.58,126.618,207.906,127.786z M204.569,95.787
		c1.168-0.675,2.663-0.274,3.337,0.894c0.675,1.168,0.274,2.662-0.894,3.337c-1.168,0.675-2.662,0.274-3.337-0.894
		C203,97.956,203.401,96.462,204.569,95.787z M193.184,86.19c0.675-1.168,2.168-1.569,3.337-0.894
		c1.168,0.675,1.569,2.169,0.894,3.337c-0.675,1.168-2.168,1.569-3.337,0.894C192.909,88.853,192.509,87.359,193.184,86.19z
		 M178.526,81.129h2.441l0.001,0l0,0h2.443l0,28.662l26.218,0l0.001,0l0.001,0h2.442v4.886l-33.547,0v-4.886h0l0-26.212
		c0-0.003-0.001-0.005-0.001-0.008s0.001-0.005,0.001-0.008V81.129z M180.968,138.453c1.349,0,2.443,1.094,2.443,2.443
		c0,1.349-1.094,2.443-2.443,2.443c-1.349,0-2.443-1.094-2.443-2.443C178.525,139.547,179.619,138.453,180.968,138.453z
		 M165.415,85.296c1.168-0.675,2.662-0.274,3.337,0.894c0.675,1.168,0.274,2.662-0.894,3.337c-1.168,0.675-2.662,0.274-3.337-0.894
		C163.847,87.465,164.247,85.971,165.415,85.296z"/>
	<path style="fill:#305CB3;" d="M203.409,78.255l5.041-8.731l2.114,1.221l2.443-4.231l-8.462-4.885l-2.443,4.231l2.117,1.222
		l-5.038,8.726c-4.797-2.408-10.128-3.898-15.768-4.234V61.505l2.441,0v-4.886l-9.771,0v4.886l2.444,0v10.068
		c-6.137,0.365-11.914,2.088-17.028,4.882v5.694c5.611-3.644,12.294-5.77,19.468-5.77c19.771,0,35.855,16.084,35.855,35.855
		c0,19.771-16.085,35.855-35.855,35.855c-7.174,0-13.857-2.126-19.468-5.77v5.694c5.788,3.162,12.421,4.962,19.468,4.962
		c22.464,0,40.741-18.276,40.741-40.741C221.708,98.057,214.426,85.555,203.409,78.255z"/>
	<polygon style="fill:#FF833D;" points="178.526,83.579 178.526,83.564 178.525,83.572 	"/>
	<polygon style="fill:#FF833D;" points="180.968,81.129 180.967,81.129 180.969,81.129 	"/>
	<circle style="fill:#305CB3;" cx="166.637" cy="87.412" r="2.443"/>
	<circle style="fill:#305CB3;" cx="166.637" cy="137.056" r="2.443"/>
	<circle style="fill:#305CB3;" cx="180.968" cy="140.896" r="2.443"/>
	<circle style="fill:#305CB3;" cx="195.299" cy="137.056" r="2.443"/>
	<circle style="fill:#305CB3;" cx="205.79" cy="126.565" r="2.443"/>
	<polygon style="fill:#FF833D;" points="209.63,109.791 209.63,109.791 209.631,109.791 	"/>
	<circle style="fill:#305CB3;" cx="205.79" cy="97.903" r="2.443"/>
	<circle style="fill:#305CB3;" cx="195.299" cy="87.412" r="2.443"/>
	<polygon style="fill:#305CB3;" points="178.526,109.791 178.526,109.791 178.526,114.677 212.073,114.677 212.073,109.791 
		209.631,109.791 209.63,109.791 183.412,109.791 183.412,81.129 180.969,81.129 180.967,81.129 178.526,81.129 178.526,83.564 
		178.526,83.579 	"/>
	<polygon style="fill:#F9D5C2;" points="156.614,15.621 124.292,15.621 124.292,20.394 151.638,20.394 151.638,150.19 
		57.492,150.19 57.492,20.394 86.439,20.394 86.439,15.621 52.731,15.621 52.731,155.114 156.614,155.114 	"/>
	<path style="fill:#FF833D;" d="M161.499,142.319v-60.17v-5.694V10.736h-37.207V0H86.439v10.736H47.845V160h113.654v-11.987V142.319
		z M52.731,155.114V15.621h33.708v4.773H57.492V150.19h94.146V20.394h-27.346v-4.773h32.322v139.493H52.731z M119.406,4.886v20.394
		h27.346v24.5H62.378v-24.5h28.947V4.886H119.406z M146.753,145.304H62.378V54.665h84.375V145.304z"/>
	<path style="fill:#F9D5C2;" d="M62.378,145.304h84.375V54.665H62.378V145.304z M77.137,59.551h64.736v4.886H77.137V59.551z
		 M77.137,69.322h64.736v4.886H77.137V69.322z M77.137,79.093h64.736v4.886H77.137V79.093z M67.365,59.551h4.886v4.886h-4.886
		V59.551z M67.365,69.322h4.886v4.886h-4.886V69.322z M72.251,79.093v4.886h-4.886v-4.886H72.251z"/>
	<polygon style="fill:#F9D5C2;" points="91.324,25.279 62.378,25.279 62.378,49.779 146.753,49.779 146.753,25.279 119.406,25.279 
		119.406,4.886 91.324,4.886 	"/>
	<rect x="77.137" y="79.093" style="fill:#FF833D;" width="64.736" height="4.886"/>
	<rect x="67.365" y="79.093" style="fill:#FF833D;" width="4.886" height="4.886"/>
	<rect x="77.137" y="69.322" style="fill:#FF833D;" width="64.736" height="4.886"/>
	<rect x="67.365" y="69.322" style="fill:#FF833D;" width="4.886" height="4.886"/>
	<rect x="77.137" y="59.551" style="fill:#FF833D;" width="64.736" height="4.886"/>
	<rect x="67.365" y="59.551" style="fill:#FF833D;" width="4.886" height="4.886"/>
	<rect x="0.292" y="88.865" style="fill:#305CB3;" width="42.736" height="4.886"/>
	<rect x="0.292" y="98.636" style="fill:#305CB3;" width="42.736" height="4.886"/>
	<rect x="0.292" y="108.407" style="fill:#305CB3;" width="42.736" height="4.886"/>
</g>
</svg>
