<?xml version="1.0" encoding="iso-8859-1"?>
<!-- Generator: Adobe Illustrator 18.0.0, SVG Export Plug-In . SVG Version: 6.00 Build 0)  -->
<!DOCTYPE svg PUBLIC "-//W3C//DTD SVG 1.1//EN" "http://www.w3.org/Graphics/SVG/1.1/DTD/svg11.dtd">
<svg version="1.1" id="Layer_1" xmlns="http://www.w3.org/2000/svg" xmlns:xlink="http://www.w3.org/1999/xlink" x="0px" y="0px"
	 viewBox="0 0 160 160" style="enable-background:new 0 0 160 160;" xml:space="preserve">
<g>
	<path style="fill:#F9D5C2;" d="M154.61,68.903l-6.583-63.555l-63.668,6.595l6.583,63.555L154.61,68.903z M114.106,19.585
		l6.272-0.649l0.643,6.211l-6.272,0.649L114.106,19.585z M118.538,62.377l-3.125-30.169l6.272-0.649l3.125,30.169L118.538,62.377z"
		/>
	<path style="fill:#FF833D;" d="M159.958,73.247L152.372,0L79.011,7.599l7.586,73.247L159.958,73.247z M148.027,5.348l6.583,63.555
		l-63.668,6.595l-6.583-63.555L148.027,5.348z"/>
	
		<rect x="114.411" y="19.244" transform="matrix(0.9947 -0.103 0.103 0.9947 -1.6784 12.2279)" style="fill:#305CB3;" width="6.305" height="6.244"/>
	
		<rect x="104.946" y="43.815" transform="matrix(-0.103 -0.9947 0.9947 -0.103 85.7697 171.2789)" style="fill:#305CB3;" width="30.331" height="6.305"/>
	<path style="fill:#A5DBFF;" d="M68.923,12.4H4.914v64.009h64.009V12.4z M18.765,23.356h6.552v21.326
		c0,9.663,4.217,15.205,11.57,15.205c7.431,0,11.693-5.542,11.693-15.205V23.356h6.491v21.326c0,6.245-1.766,20.771-18.122,20.771
		c-16.412,0-18.184-14.526-18.184-20.771V23.356z"/>
	<path style="fill:#305CB3;" d="M0.042,81.281h73.753V7.528H0.042V81.281z M4.914,12.4h64.009v64.009H4.914V12.4z"/>
	<path style="fill:#305CB3;" d="M36.949,65.453c16.356,0,18.122-14.526,18.122-20.771V23.356H48.58v21.326
		c0,9.663-4.262,15.205-11.693,15.205c-7.353,0-11.57-5.542-11.57-15.205V23.356h-6.552v21.326
		C18.765,50.927,20.537,65.453,36.949,65.453z"/>
	<path style="fill:#F9D5C2;" d="M68.923,91.119H4.914v64.009h64.009V91.119z M38.638,136.626h-3.44L22.36,112.072v31.946h-6.553
		v-41.789h7.552l13.524,26.018l13.652-26.018h7.492v41.789h-6.552v-31.946L38.638,136.626z"/>
	<path style="fill:#FF833D;" d="M0.042,160h73.753V86.247H0.042V160z M4.914,91.119h64.009v64.009H4.914V91.119z"/>
	<polygon style="fill:#305CB3;" points="58.028,144.018 58.028,102.229 50.536,102.229 36.884,128.247 23.36,102.229 
		15.808,102.229 15.808,144.018 22.36,144.018 22.36,112.072 35.198,136.626 38.638,136.626 51.476,112.072 51.476,144.018 	"/>
	<path style="fill:#A5DBFF;" d="M147.718,91.119H83.709v64.009h64.009V91.119z M128.068,144.018l-4.004-10.903h-16.699
		l-4.004,10.903h-6.882l16.48-41.789h5.572l16.421,41.789H128.068z"/>
	<path style="fill:#305CB3;" d="M78.837,160h73.753V86.247H78.837V160z M83.709,91.119h64.009v64.009H83.709V91.119z"/>
	<path style="fill:#305CB3;" d="M112.957,102.229l-16.48,41.789h6.882l4.004-10.903h16.699l4.004,10.903h6.883l-16.421-41.789
		H112.957z M108.08,129.088l7.677-21.603l7.452,21.603H108.08z"/>
	<polygon style="fill:#A5DBFF;" points="108.08,129.088 123.21,129.088 115.758,107.485 	"/>
</g>
</svg>
