<?xml version="1.0" encoding="iso-8859-1"?>
<!-- Generator: Adobe Illustrator 18.0.0, SVG Export Plug-In . SVG Version: 6.00 Build 0)  -->
<!DOCTYPE svg PUBLIC "-//W3C//DTD SVG 1.1//EN" "http://www.w3.org/Graphics/SVG/1.1/DTD/svg11.dtd">
<svg version="1.1" id="Layer_1" xmlns="http://www.w3.org/2000/svg" xmlns:xlink="http://www.w3.org/1999/xlink" x="0px" y="0px"
	 viewBox="0 0 256 160" style="enable-background:new 0 0 256 160;" xml:space="preserve">
<g>
	<rect x="5.373" y="143.331" style="fill:#F9D5C2;" width="75.82" height="11.754"/>
	<polygon style="fill:#F9D5C2;" points="63.606,43.681 39.156,43.681 34.149,52.354 5.373,52.354 5.373,138.444 81.193,138.444 
		81.193,137.035 81.217,132.148 81.217,124.208 12.75,124.208 12.75,119.322 81.217,119.322 81.217,110.449 12.75,110.45 
		12.75,105.563 81.217,105.563 81.217,97.438 81.217,96.691 12.75,96.691 12.75,91.804 81.217,91.804 81.217,91.777 81.217,82.986 
		12.75,82.986 12.75,78.099 81.217,78.099 81.217,69.28 12.75,69.28 12.75,64.394 81.217,64.393 81.217,57.094 81.21,57.094 
		81.21,52.354 68.615,52.354 	"/>
	<path style="fill:#F9D5C2;" d="M5.373,43.776v3.691h25.955l5.007-8.673h30.093l5.008,8.673h9.774V33.989V33.93H5.373V43.776z
		 M26.624,38.87c1.085,0,1.965,0.88,1.965,1.965s-0.88,1.966-1.965,1.966c-1.086,0-1.966-0.88-1.966-1.966
		S25.539,38.87,26.624,38.87z M18.762,38.87c1.086,0,1.966,0.88,1.966,1.965s-0.88,1.966-1.966,1.966
		c-1.085,0-1.965-0.88-1.965-1.966S17.677,38.87,18.762,38.87z M10.9,38.87c1.086,0,1.966,0.88,1.966,1.965s-0.88,1.966-1.966,1.966
		s-1.966-0.88-1.966-1.966S9.815,38.87,10.9,38.87z"/>
	<polygon style="fill:#FF833D;" points="81.193,155.113 81.193,155.084 5.373,155.084 5.373,143.331 81.193,143.331 81.193,138.444 
		5.373,138.444 5.373,52.354 34.149,52.354 39.156,43.681 63.606,43.681 68.615,52.354 81.21,52.354 81.21,52.208 81.21,47.467 
		71.436,47.467 66.428,38.794 36.335,38.794 31.328,47.467 5.373,47.467 5.373,43.776 5.373,33.93 81.21,33.93 81.21,29.101 
		86.097,29.102 125.576,29.108 125.576,29.043 0.486,29.043 0.486,43.776 0.486,143.331 0.486,159.971 81.193,159.971 	"/>
	<circle style="fill:#FF833D;" cx="10.9" cy="40.836" r="1.965"/>
	<circle style="fill:#FF833D;" cx="18.762" cy="40.836" r="1.965"/>
	<circle style="fill:#FF833D;" cx="26.624" cy="40.836" r="1.965"/>
	<rect x="12.749" y="64.394" style="fill:#FF833D;" width="68.468" height="4.886"/>
	<rect x="12.749" y="78.099" style="fill:#FF833D;" width="68.468" height="4.886"/>
	<polygon style="fill:#FF833D;" points="12.75,96.691 81.217,96.691 81.217,96.663 81.217,92.551 81.217,91.804 12.75,91.804 	"/>
	<rect x="12.749" y="105.563" style="fill:#FF833D;" width="68.468" height="4.886"/>
	<rect x="12.749" y="119.322" style="fill:#FF833D;" width="68.468" height="4.886"/>
	<path style="fill:#A5DBFF;" d="M186.75,95.84c-1.657-1.393,1.029-3.423,1.029-7.656c0-4.681-3.801-8.475-8.48-8.475
		c-4.686,0-8.481,3.793-8.481,8.475c0,4.233,2.676,6.268,1.024,7.656c-0.853,0.71-1.92,0.819-5.129,0.819h-16.626l-0.007,14.148
		c0,0.801,0.416,1.305,1.1,1.624c0.518,0.047,1.122,0.078,1.826,0.078c1.26,0,2.476,0.187,3.633,0.515
		c6.177,0.472,11.004,7.046,11.004,12.851c0,5.814-4.599,12.394-11.008,12.848c-1.157,0.327-2.371,0.514-3.631,0.514
		c-0.709,0-1.316,0.031-1.836,0.079c-0.674,0.319-1.082,0.821-1.082,1.617v14.154h38.922v0.025h19.496v-7.796v-10.282V96.66H191.88
		C188.673,96.66,187.599,96.55,186.75,95.84z"/>
	<path style="fill:#305CB3;" d="M192.228,91.773c0.252-1.027,0.438-2.222,0.438-3.589c0-7.368-5.996-13.362-13.367-13.362
		c-7.371,0-13.368,5.994-13.368,13.362c0,1.367,0.185,2.561,0.436,3.589h-16.281h-0.679l0.005-13.368
		c0-2.501-1.423-5.544-5.418-6.59c-1.638-0.429-3.453-0.464-5.324-0.464c-3.608,0-6.818-4.482-6.818-8.015
		c0-3.623,3.041-7.998,6.818-7.998c1.87,0,3.685-0.036,5.329-0.468c3.992-1.049,5.414-4.091,5.414-6.589V33.997v-4.886l-4.886-0.001
		l-18.951-0.003l-39.478-0.006l-4.888-0.001v4.828v0.059v13.478v4.74v0.146v4.74h0.008v7.299v4.886v8.819v4.886v8.791v0.028v0.747
		v4.112v0.027v0.747v8.125v4.886v8.872v4.886v7.94l-0.024,4.887v1.409v4.887v11.754v0.029v4.858V160h4.887h19.496h4.887v-0.023
		h34.068h4.887v-0.002h0.669h34.035l4.887,0.025h19.496h4.887v-4.887v-7.796v-10.282V96.66v-4.887h-4.887H192.228z M86.08,137.035
		h0.024V96.663h14.153c2.077,0,2.369,0.204,2.541,0.604c0.356,0.819-0.375,2.166-0.375,5.25c0,6.775,6.868,11.71,12.892,11.71
		c6.028,0,12.896-5.196,12.896-11.71c0-3.089-0.723-4.43-0.369-5.25c0.17-0.405,0.465-0.604,2.539-0.604h14.151v16.626
		c0,3.209,4.246,4.107,8.476,4.107c4.683,0,8.481,3.798,8.481,8.474c0,4.683-3.798,8.481-8.483,8.481
		c-4.231,0-8.474,0.896-8.474,4.107v16.63v0.002h-38.954v0.023H86.08V137.035z M86.104,52.208h-0.008V33.989l58.429,0.009V48.28
		c0,2.073-2.766,2.169-5.856,2.169c-6.768,0-11.705,6.864-11.705,12.885c0,6.031,5.193,12.902,11.705,12.902
		c3.09,0,5.856,0.091,5.856,2.166l-0.005,13.373H130.38c-1.793,0-5.519,0-7.035,3.578c-0.732,1.715-0.47,3.301-0.277,4.46
		c0.12,0.724,0.256,1.545,0.256,2.704c0,3.611-4.479,6.823-8.009,6.823c-3.626,0-8.005-3.044-8.005-6.823
		c0-1.153,0.137-1.973,0.258-2.695c0.196-1.168,0.464-2.768-0.287-4.5c-1.523-3.546-5.239-3.546-7.024-3.546H86.104V52.208z
		 M208.504,137.035v10.282v7.796h-19.496v-0.025h-38.922v-14.154c0-0.796,0.408-1.298,1.082-1.617
		c0.52-0.048,1.127-0.079,1.836-0.079c1.26,0,2.474-0.187,3.631-0.514c6.409-0.454,11.008-7.034,11.008-12.848
		c0-5.805-4.828-12.38-11.004-12.851c-1.157-0.327-2.372-0.515-3.633-0.515c-0.704,0-1.308-0.031-1.826-0.078
		c-0.685-0.32-1.1-0.824-1.1-1.624l0.007-14.148h16.626c3.209,0,4.276-0.11,5.129-0.819c1.653-1.388-1.024-3.423-1.024-7.656
		c0-4.683,3.794-8.475,8.481-8.475c4.679,0,8.48,3.795,8.48,8.475c0,4.233-2.686,6.263-1.029,7.656
		c0.849,0.71,1.922,0.819,5.129,0.819h16.625V137.035z"/>
	<path style="fill:#A5DBFF;" d="M107.281,95.323c0.751,1.731,0.483,3.331,0.287,4.5c-0.121,0.723-0.258,1.542-0.258,2.695
		c0,3.78,4.379,6.823,8.005,6.823c3.53,0,8.009-3.213,8.009-6.823c0-1.159-0.136-1.979-0.256-2.704
		c-0.192-1.159-0.455-2.744,0.277-4.46c1.517-3.578,5.242-3.578,7.035-3.578h14.141l0.005-13.373c0-2.075-2.766-2.166-5.856-2.166
		c-6.512,0-11.705-6.871-11.705-12.902c0-6.021,4.937-12.885,11.705-12.885c3.09,0,5.856-0.096,5.856-2.169V33.997l-58.429-0.009
		v18.219h0.008v39.569h14.153C102.042,91.777,105.758,91.777,107.281,95.323z"/>
	<path style="fill:#A5DBFF;" d="M239.276,54.102l9.328-9.327L210.719,6.911l-10.026,10.027c-1.06,1.06-2.408,1.621-3.897,1.621
		c-2.482,0-5.325-1.583-8.452-4.707c-1.142-1.142-2.66-1.77-4.273-1.77c-1.61,0-3.123,0.628-4.259,1.767
		c-2.354,2.354-2.356,6.182-0.006,8.534c3.124,3.121,4.708,5.966,4.708,8.456c0,1.49-0.561,2.839-1.623,3.898l-10.027,10.029
		l8.28,8.278c0.493-0.679,1.189-1.58,2.214-2.605c2.36-2.363,5.721-3.664,9.461-3.664c4.312,0,8.572,1.684,11.394,4.505
		c5.126,5.132,6.729,14.956,0.834,20.85c-1.025,1.026-1.927,1.721-2.606,2.215c0.003,0.003,0.007,0.007,0.01,0.01l8.275,8.27
		l28.535-28.536L239.276,54.102z"/>
	<path style="fill:#305CB3;" d="M210.719,0l-13.481,13.483c-0.145,0.145-0.249,0.189-0.442,0.189c-0.83,0-2.579-0.861-4.998-3.277
		c-2.065-2.064-4.81-3.2-7.727-3.2c-2.918,0-5.66,1.138-7.717,3.201c-4.255,4.255-4.258,11.182-0.004,15.442
		c2.417,2.414,3.278,4.166,3.278,4.999c0,0.193-0.044,0.296-0.19,0.442l-13.483,13.487l11.739,11.737
		c1.217,1.215,2.26,2.145,3.663,2.145c0.407,0,0.8-0.08,1.178-0.233c1.083-0.426,1.67-1.249,2.292-2.12
		c0.457-0.641,1.026-1.438,1.989-2.401c1.438-1.439,3.571-2.232,6.005-2.232c3,0,6.043,1.178,7.939,3.073
		c3.414,3.418,4.522,10.252,0.834,13.94c-0.961,0.961-1.757,1.529-2.398,1.986c-0.869,0.62-1.688,1.205-2.14,2.33
		c-0.785,2.085,0.723,3.598,1.939,4.817l11.735,11.728L239.263,61l0.012,0.012l16.238-16.239L210.719,0z M202.454,74.355
		c-0.003-0.003-0.007-0.007-0.01-0.01c0.679-0.494,1.581-1.189,2.606-2.215c5.895-5.894,4.292-15.718-0.834-20.85
		c-2.822-2.82-7.082-4.505-11.394-4.505c-3.74,0-7.1,1.301-9.461,3.664c-1.025,1.025-1.721,1.926-2.214,2.605l-8.28-8.278
		l10.027-10.029c1.061-1.059,1.623-2.408,1.623-3.898c0-2.489-1.584-5.335-4.708-8.456c-2.35-2.353-2.348-6.18,0.006-8.534
		c1.136-1.14,2.649-1.767,4.259-1.767c1.613,0,3.131,0.629,4.273,1.77c3.127,3.123,5.97,4.707,8.452,4.707
		c1.489,0,2.837-0.561,3.897-1.621l10.026-10.027l37.884,37.863l-9.328,9.327l-0.012-0.012l-28.535,28.536L202.454,74.355z"/>
	<path style="fill:#A5DBFF;" d="M105.576,155.09h38.954v-0.002v-16.63c0-3.211,4.243-4.107,8.474-4.107
		c4.684,0,8.483-3.798,8.483-8.481c0-4.676-3.798-8.474-8.481-8.474c-4.229,0-8.476-0.898-8.476-4.107V96.663H130.38
		c-2.074,0-2.369,0.199-2.539,0.604c-0.354,0.819,0.369,2.161,0.369,5.25c0,6.514-6.868,11.71-12.896,11.71
		c-6.024,0-12.892-4.935-12.892-11.71c0-3.083,0.73-4.43,0.375-5.25c-0.172-0.4-0.464-0.604-2.541-0.604H86.104v40.372H86.08v18.078
		h19.496V155.09z"/>
</g>
</svg>
