<?xml version="1.0" encoding="iso-8859-1"?>
<!-- Generator: Adobe Illustrator 18.0.0, SVG Export Plug-In . SVG Version: 6.00 Build 0)  -->
<!DOCTYPE svg PUBLIC "-//W3C//DTD SVG 1.1//EN" "http://www.w3.org/Graphics/SVG/1.1/DTD/svg11.dtd">
<svg version="1.1" id="Layer_1" xmlns="http://www.w3.org/2000/svg" xmlns:xlink="http://www.w3.org/1999/xlink" x="0px" y="0px"
	 viewBox="0 0 239 160" style="enable-background:new 0 0 239 160;" xml:space="preserve">
<g>
	<path style="fill:#A5DBFF;" d="M119.037,88.439c-0.03-8.519-2.365-16.87-6.753-24.15l-1.104-1.833l14.807-11.62l-4.617-5.883
		l-14.807,11.62l-1.517-1.508c-6.029-5.992-13.585-10.246-21.852-12.299l-2.075-0.516l2.253-18.686l-7.425-0.895l-2.253,18.686
		l-2.139,0.008c-8.518,0.03-16.869,2.365-24.15,6.752l-1.832,1.104L33.952,34.413l-5.883,4.617l11.62,14.806l-1.508,1.517
		c-5.993,6.028-10.245,13.585-12.301,21.853l-0.515,2.075L6.679,77.028l-0.895,7.425l18.686,2.253l0.008,2.139
		c0.03,8.519,2.365,16.87,6.753,24.15l1.104,1.833l-14.807,11.62l4.617,5.883l14.807-11.62l1.517,1.508
		c6.029,5.992,13.585,10.245,21.852,12.299l2.075,0.516l-2.253,18.686l7.425,0.895l2.253-18.685l2.139-0.008
		c8.518-0.03,16.869-2.365,24.15-6.753l1.832-1.104l11.619,14.806l5.884-4.617l-11.62-14.806l1.508-1.517
		c5.992-6.029,10.245-13.586,12.3-21.854l0.515-2.075l18.686,2.253l0.895-7.425l-18.686-2.253L119.037,88.439z M88.74,110.283
		c-4.892,3.84-10.76,5.87-16.966,5.87c-8.513,0-16.408-3.837-21.658-10.527c-9.364-11.932-7.275-29.259,4.657-38.624
		c4.893-3.84,10.761-5.87,16.967-5.87c8.513,0,16.408,3.837,21.658,10.527C102.763,83.592,100.673,100.918,88.74,110.283z"/>
	<path style="fill:#305CB3;" d="M117.499,63.65l15.283-11.994l-10.594-13.499l-15.283,11.994
		c-5.847-5.35-12.856-9.294-20.475-11.524l2.326-19.29l-17.036-2.054l-2.326,19.29c-7.931,0.355-15.676,2.52-22.628,6.326
		L34.771,27.617L21.273,38.21l11.993,15.283c-5.349,5.847-9.293,12.855-11.524,20.476l-19.29-2.326L0.399,88.68l19.29,2.326
		c0.355,7.931,2.52,15.675,6.327,22.628l-15.283,11.994l10.594,13.499l15.283-11.994c5.847,5.35,12.856,9.294,20.475,11.524
		l-2.326,19.29L71.795,160l2.326-19.29c7.932-0.355,15.676-2.52,22.628-6.326l11.994,15.283l13.499-10.594l-11.993-15.283
		c5.349-5.849,9.292-12.856,11.523-20.476l19.29,2.326l2.054-17.036l-19.29-2.326C123.47,78.347,121.305,70.603,117.499,63.65z
		 M136.835,100.256l-18.686-2.253l-0.515,2.075c-2.054,8.268-6.308,15.825-12.3,21.854l-1.508,1.517l11.62,14.806l-5.884,4.617
		l-11.619-14.806l-1.832,1.104c-7.282,4.387-15.632,6.722-24.15,6.753l-2.139,0.008l-2.253,18.685l-7.425-0.895l2.253-18.686
		l-2.075-0.516c-8.267-2.054-15.823-6.307-21.852-12.299l-1.517-1.508l-14.807,11.62l-4.617-5.883l14.807-11.62l-1.104-1.833
		c-4.388-7.28-6.723-15.631-6.753-24.15l-0.008-2.139L5.784,84.454l0.895-7.425l18.686,2.253l0.515-2.075
		c2.055-8.268,6.308-15.825,12.301-21.853l1.508-1.517L28.069,39.03l5.883-4.617l11.619,14.806l1.832-1.104
		c7.282-4.387,15.632-6.722,24.15-6.752l2.139-0.008l2.253-18.686l7.425,0.895L81.117,42.25l2.075,0.516
		c8.267,2.053,15.823,6.307,21.852,12.299l1.517,1.508l14.807-11.62l4.617,5.883l-14.807,11.62l1.104,1.833
		c4.388,7.28,6.723,15.631,6.753,24.15l0.008,2.139l18.686,2.253L136.835,100.256z"/>
	<path style="fill:#305CB3;" d="M71.74,61.132c-6.207,0-12.074,2.03-16.967,5.87c-11.932,9.365-14.021,26.692-4.657,38.624
		c5.251,6.69,13.145,10.527,21.658,10.527c6.207,0,12.074-2.03,16.966-5.87c11.933-9.365,14.022-26.691,4.658-38.625
		C88.148,64.969,80.253,61.132,71.74,61.132z M53.924,102.637c-7.716-9.833-5.995-24.111,3.837-31.828
		c4.033-3.165,8.866-4.837,13.979-4.837c7.018,0,13.524,3.162,17.85,8.675c7.716,9.833,5.995,24.112-3.837,31.828
		c-4.033,3.164-8.866,4.837-13.979,4.837C64.756,111.312,58.25,108.15,53.924,102.637z"/>
	<path style="fill:#F9D5C2;" d="M229.841,76.632l-13.124-6.651l0.724-2.012c2.233-6.203,2.745-12.895,1.482-19.351l-0.411-2.099
		l13.984-4.577l-1.503-4.59l-13.983,4.577l-0.91-1.936c-2.798-5.953-7.168-11.047-12.637-14.729l-1.774-1.195l6.651-13.124
		l-4.308-2.183l-6.651,13.124l-2.012-0.724c-6.194-2.229-12.896-2.744-19.351-1.481l-2.1,0.411l-4.578-13.983l-4.591,1.502
		l4.578,13.983l-1.936,0.91c-5.953,2.798-11.047,7.169-14.728,12.637l-1.195,1.774l-13.124-6.651l-2.183,4.309l13.124,6.651
		l-0.724,2.012c-2.233,6.205-2.745,12.896-1.482,19.351l0.411,2.1l-13.984,4.577l1.503,4.59l13.983-4.577l0.91,1.936
		c2.798,5.953,7.168,11.047,12.637,14.729l1.774,1.195l-6.651,13.124l4.308,2.183l6.651-13.124l2.012,0.724
		c6.194,2.229,12.896,2.745,19.351,1.481l2.1-0.411l4.578,13.983l4.59-1.502l-4.578-13.984l1.936-0.91
		c5.953-2.798,11.047-7.168,14.73-12.637l1.194-1.774l13.124,6.651L229.841,76.632z M203.233,65.855
		c-2.739,5.404-7.418,9.419-13.176,11.303c-2.293,0.751-4.667,1.131-7.059,1.131c-9.831,0-18.493-6.282-21.553-15.632
		c-1.885-5.758-1.414-11.905,1.325-17.309c2.739-5.404,7.419-9.419,13.177-11.303c2.293-0.75,4.667-1.131,7.059-1.131
		c9.831,0,18.492,6.282,21.552,15.631C206.442,54.303,205.972,60.45,203.233,65.855z"/>
	<path style="fill:#FF833D;" d="M224.031,49.805l14.571-4.77l-4.513-13.791l-14.572,4.769c-2.833-5.292-6.795-9.91-11.602-13.522
		l6.932-13.677l-12.944-6.56l-6.932,13.677c-5.736-1.739-11.805-2.208-17.765-1.36L172.436,0l-13.792,4.514l4.77,14.571
		c-5.293,2.834-9.91,6.796-13.522,11.602l-13.677-6.931l-6.56,12.944l13.677,6.931c-1.74,5.757-2.205,11.823-1.36,17.766
		l-14.572,4.77l4.513,13.791l14.572-4.77c2.833,5.292,6.795,9.909,11.602,13.523l-6.932,13.678l12.944,6.559l6.932-13.676
		c5.736,1.739,11.803,2.209,17.765,1.36l4.77,14.571l13.791-4.514l-4.77-14.571c5.292-2.833,9.91-6.795,13.523-11.602l13.677,6.932
		l6.56-12.944l-13.677-6.932C224.41,61.815,224.875,55.75,224.031,49.805z M213.34,76.063c-3.683,5.469-8.777,9.839-14.73,12.637
		l-1.936,0.91l4.578,13.984l-4.59,1.502l-4.578-13.983l-2.1,0.411c-6.454,1.264-13.156,0.747-19.351-1.481l-2.012-0.724
		l-6.651,13.124l-4.308-2.183l6.651-13.124l-1.774-1.195c-5.469-3.683-9.839-8.776-12.637-14.729l-0.91-1.936l-13.983,4.577
		l-1.503-4.59l13.984-4.577l-0.411-2.1c-1.263-6.454-0.751-13.146,1.482-19.351l0.724-2.012l-13.124-6.651l2.183-4.309l13.124,6.651
		l1.195-1.774c3.681-5.469,8.775-9.839,14.728-12.637l1.936-0.91L164.75,7.609l4.591-1.502l4.578,13.983l2.1-0.411
		c6.454-1.262,13.156-0.748,19.351,1.481l2.012,0.724l6.651-13.124l4.308,2.183l-6.651,13.124l1.774,1.195
		c5.469,3.683,9.839,8.776,12.637,14.729l0.91,1.936l13.983-4.577l1.503,4.59l-13.984,4.577l0.411,2.099
		c1.263,6.456,0.751,13.148-1.482,19.351l-0.724,2.012l13.124,6.651l-2.183,4.308l-13.124-6.651L213.34,76.063z"/>
	<path style="fill:#FF833D;" d="M183.005,32.914c-2.392,0-4.767,0.381-7.059,1.131c-5.758,1.885-10.438,5.899-13.177,11.303
		c-2.739,5.404-3.21,11.551-1.325,17.309c3.06,9.35,11.722,15.632,21.553,15.632c2.392,0,4.767-0.381,7.059-1.131
		c5.758-1.885,10.437-5.899,13.176-11.303c2.74-5.404,3.21-11.551,1.325-17.309C201.497,39.196,192.836,32.914,183.005,32.914z
		 M166.044,61.151c-1.482-4.529-1.113-9.364,1.042-13.615c2.155-4.251,5.835-7.409,10.364-8.891
		c1.806-0.591,3.675-0.891,5.554-0.891c7.732,0,14.545,4.942,16.952,12.297c1.483,4.529,1.113,9.364-1.041,13.615
		c-2.155,4.251-5.836,7.409-10.364,8.891c-1.806,0.591-3.675,0.891-5.554,0.891C175.265,73.449,168.451,68.506,166.044,61.151z"/>
</g>
</svg>
