<?xml version="1.0" encoding="iso-8859-1"?>
<!-- Generator: Adobe Illustrator 18.0.0, SVG Export Plug-In . SVG Version: 6.00 Build 0)  -->
<!DOCTYPE svg PUBLIC "-//W3C//DTD SVG 1.1//EN" "http://www.w3.org/Graphics/SVG/1.1/DTD/svg11.dtd">
<svg version="1.1" id="Layer_1" xmlns="http://www.w3.org/2000/svg" xmlns:xlink="http://www.w3.org/1999/xlink" x="0px" y="0px"
	 viewBox="0 0 236.683 160" style="enable-background:new 0 0 236.683 160;" xml:space="preserve">
<g>
	<rect x="4.844" y="150.452" style="fill:#F9D5C2;" width="226.997" height="4.704"/>
	<path style="fill:#F9D5C2;" d="M55.68,131.289c0,1.562,1.322,2.763,3.093,2.763c1.593,0,3.154-0.63,3.935-1.652
		c0.39-0.33,0.63-0.781,0.63-1.141v-2.072c-1.111-0.421-2.432-0.691-3.634-0.691C57.362,128.496,55.68,129.638,55.68,131.289z"/>
	<path style="fill:#F9D5C2;" d="M117.241,122.639c-2.494,0-4.505,1.832-4.716,4.506h9.491
		C121.745,124.472,119.763,122.639,117.241,122.639z"/>
	<path style="fill:#F9D5C2;" d="M231.84,105.383H4.843v40.226H231.84V105.383z M23.249,136.396c-3.243,0-6.397-1.022-8.83-2.883
		l1.563-2.883c1.02,1.051,4.024,2.733,7.388,2.733c2.552,0,4.054-0.961,4.054-2.763c0-2.132-2.132-2.733-5.827-3.694
		c-4.204-1.112-6.336-2.373-6.336-5.707c0-4.205,3.364-6.488,7.689-6.488c2.942,0,5.405,1.051,7.238,2.403l-1.532,2.763
		c-0.812-0.871-3.093-2.163-5.888-2.163c-2.613,0-4.024,1.112-4.024,2.974c0,2.042,1.743,2.493,5.286,3.394
		c4.206,1.081,7.029,2.193,7.029,6.127C31.06,134.653,27.486,136.396,23.249,136.396z M50.008,129.428H37.422
		c0.211,2.763,2.314,4.625,4.747,4.625c1.771,0,3.513-0.961,4.114-2.403l2.824,0.811c-1.082,2.343-3.756,4.025-7.059,4.025
		c-4.895,0-8.139-3.724-8.139-8.109c0-4.445,3.244-8.17,8.17-8.17s8.02,3.784,8.02,8.02
		C50.098,128.707,50.038,129.157,50.008,129.428z M67.574,136.185c-0.632,0.12-1.201,0.15-1.622,0.15
		c-1.261-0.09-1.922-0.721-2.073-1.712l-0.09-0.991c-1.412,1.832-3.575,2.853-5.917,2.853c-3.033,0-5.316-2.132-5.316-4.926
		c0-2.943,2.734-4.956,6.639-4.956c1.471,0,3.003,0.271,4.143,0.721v-1.081c0-2.312-1.381-3.694-3.844-3.694
		c-1.652,0-3.273,0.631-4.985,1.802l-1.022-2.102c2.013-1.351,4.085-2.042,6.308-2.042c4.295,0,6.849,2.312,6.849,6.397v5.677
		c0,0.751,0.24,1.051,0.931,1.081V136.185z M95.623,136.185H92.32v-8.8c0-2.914-1.022-4.235-2.823-4.235
		c-1.864,0-3.604,1.532-4.266,3.724v9.311h-3.303v-8.8c0-2.944-0.961-4.235-2.793-4.235c-1.833,0-3.574,1.502-4.265,3.694v9.341
		h-3.304v-15.709h3.004v3.154c1.232-2.193,3.334-3.424,5.916-3.424c2.613,0,4.115,1.532,4.505,3.574
		c1.322-2.313,3.364-3.574,5.888-3.574c3.723,0,4.745,2.974,4.745,6.397V136.185z M103.878,136.426
		c-2.253,0-3.634-1.322-3.634-3.574V114.26h3.303v17.3c0,1.171,0.631,1.862,1.712,1.862c0.45,0,1.111-0.15,1.621-0.39l0.481,2.673
		C106.4,136.125,104.928,136.426,103.878,136.426z M125.2,129.428h-12.585c0.21,2.763,2.313,4.625,4.745,4.625
		c1.773,0,3.515-0.961,4.115-2.403l2.824,0.811c-1.081,2.343-3.755,4.025-7.058,4.025c-4.896,0-8.139-3.724-8.139-8.109
		c0-4.445,3.243-8.17,8.17-8.17c4.925,0,8.018,3.784,8.018,8.02C125.289,128.707,125.23,129.157,125.2,129.428z M134.717,136.486
		c-2.522,0-5.375-0.811-7.178-2.193l1.381-2.222c1.893,1.322,3.786,2.012,5.737,2.012c1.982,0,3.244-0.781,3.244-2.193
		c0-1.322-1.262-1.742-4.085-2.433c-3.935-0.991-5.496-1.802-5.496-4.235c0-3.184,2.704-5.016,6.156-5.016
		c2.284,0,4.506,0.781,6.158,2.013l-1.412,2.012c-1.532-1.141-3.153-1.682-4.806-1.682c-1.682,0-3.003,0.661-3.003,2.193
		c0,1.291,0.901,1.621,3.455,2.252c4.325,1.021,6.217,1.953,6.217,4.625C141.085,134.594,138.591,136.486,134.717,136.486z
		 M150.632,136.486c-2.522,0-5.375-0.811-7.178-2.193l1.381-2.222c1.893,1.322,3.786,2.012,5.737,2.012
		c1.982,0,3.244-0.781,3.244-2.193c0-1.322-1.262-1.742-4.085-2.433c-3.935-0.991-5.496-1.802-5.496-4.235
		c0-3.184,2.704-5.016,6.156-5.016c2.284,0,4.506,0.781,6.158,2.013l-1.412,2.012c-1.532-1.141-3.153-1.682-4.806-1.682
		c-1.682,0-3.004,0.661-3.004,2.193c0,1.291,0.901,1.621,3.455,2.252c4.325,1.021,6.217,1.953,6.217,4.625
		C157,134.594,154.507,136.486,150.632,136.486z"/>
	<path style="fill:#F9D5C2;" d="M55.68,85.807c0,1.562,1.322,2.763,3.093,2.763c1.593,0,3.154-0.631,3.935-1.652
		c0.39-0.331,0.63-0.781,0.63-1.141v-2.073c-1.111-0.42-2.432-0.691-3.634-0.691C57.362,83.014,55.68,84.155,55.68,85.807z"/>
	<path style="fill:#F9D5C2;" d="M154.836,88.18c2.614,0,4.686-2.313,4.686-5.316s-2.073-5.316-4.686-5.316
		c-2.583,0-4.685,2.343-4.685,5.346C150.151,85.928,152.223,88.18,154.836,88.18z"/>
	<path style="fill:#F9D5C2;" d="M42.048,77.157c-2.493,0-4.505,1.832-4.715,4.505h9.49C46.553,78.989,44.572,77.157,42.048,77.157z"
		/>
	<path style="fill:#F9D5C2;" d="M42.048,122.639c-2.493,0-4.505,1.832-4.715,4.506h9.49
		C46.553,124.472,44.572,122.639,42.048,122.639z"/>
	<path style="fill:#F9D5C2;" d="M231.84,100.54V55.209H4.843v45.331H231.84z M176.516,74.995h3.064v3.514
		c1.112-2.163,2.973-3.664,4.926-3.664c0.39,0,0.63,0,0.841,0.03v2.973c-2.553,0.06-4.655,1.232-5.526,3.244v9.611h-3.304V74.995z
		 M166.697,68.777H170v17.3c0,1.172,0.632,1.862,1.712,1.862c0.45,0,1.112-0.15,1.622-0.391l0.481,2.673
		c-0.961,0.42-2.432,0.721-3.484,0.721c-2.253,0-3.634-1.322-3.634-3.574V68.777z M154.836,74.724c4.896,0,8.081,3.784,8.081,8.139
		c0,4.355-3.184,8.14-8.081,8.14c-4.925,0-8.079-3.784-8.079-8.14C146.757,78.509,149.972,74.724,154.836,74.724z M134.446,81.422
		c-4.204-1.111-6.336-2.373-6.336-5.706c0-4.205,3.364-6.488,7.689-6.488c2.942,0,5.405,1.051,7.238,2.403l-1.532,2.763
		c-0.812-0.871-3.093-2.163-5.888-2.163c-2.613,0-4.024,1.111-4.024,2.973c0,2.042,1.743,2.493,5.286,3.394
		c4.206,1.081,7.029,2.192,7.029,6.127c0,4.445-3.574,6.187-7.81,6.187c-3.243,0-6.397-1.021-8.83-2.883l1.563-2.883
		c1.02,1.051,4.024,2.733,7.388,2.733c2.552,0,4.054-0.961,4.054-2.763C140.273,82.984,138.141,82.383,134.446,81.422z
		 M101.384,68.777h3.303v9.371c1.232-2.133,3.424-3.424,5.858-3.424c3.874,0,4.955,2.973,4.955,6.398v9.581h-3.303v-8.8
		c0-2.853-1.082-4.235-3.004-4.235c-1.771,0-3.844,1.532-4.505,3.695v9.341h-3.303V68.777z M90.874,74.724
		c3.245,0,5.648,1.562,6.819,3.905l-3.214,1.021c-0.75-1.322-2.102-2.102-3.663-2.102c-2.643,0-4.686,2.192-4.686,5.286
		c0,3.033,2.132,5.346,4.716,5.346c1.622,0,3.244-0.961,3.724-2.163l3.244,0.961c-1.021,2.343-3.634,4.025-6.939,4.025
		c-4.895,0-8.139-3.784-8.139-8.17C82.735,78.418,85.919,74.724,90.874,74.724z M71.565,74.995h3.064v3.514
		c1.112-2.163,2.973-3.664,4.926-3.664c0.39,0,0.63,0,0.841,0.03v2.973c-2.553,0.06-4.655,1.232-5.526,3.244v9.611h-3.304V74.995z
		 M59.494,77.067c-1.652,0-3.273,0.63-4.985,1.802l-1.022-2.102c2.013-1.352,4.085-2.042,6.308-2.042
		c4.295,0,6.849,2.313,6.849,6.398v5.676c0,0.751,0.24,1.051,0.931,1.081v2.823c-0.632,0.12-1.201,0.15-1.622,0.15
		c-1.261-0.09-1.922-0.721-2.073-1.712l-0.09-0.991c-1.412,1.832-3.575,2.854-5.917,2.854c-3.033,0-5.316-2.133-5.316-4.926
		c0-2.943,2.734-4.956,6.639-4.956c1.471,0,3.003,0.27,4.143,0.721v-1.081C63.338,78.449,61.957,77.067,59.494,77.067z
		 M42.078,74.724c4.926,0,8.02,3.784,8.02,8.019c0,0.481-0.061,0.931-0.091,1.201H37.422c0.211,2.763,2.314,4.626,4.747,4.626
		c1.771,0,3.513-0.961,4.114-2.403l2.824,0.811c-1.082,2.343-3.756,4.025-7.059,4.025c-4.895,0-8.139-3.724-8.139-8.109
		C33.909,78.449,37.153,74.724,42.078,74.724z M22.951,69.228c2.942,0,5.405,1.051,7.238,2.403l-1.532,2.763
		c-0.812-0.871-3.093-2.163-5.888-2.163c-2.613,0-4.024,1.111-4.024,2.973c0,2.042,1.743,2.493,5.286,3.394
		c4.206,1.081,7.029,2.192,7.029,6.127c0,4.445-3.574,6.187-7.81,6.187c-3.243,0-6.397-1.021-8.83-2.883l1.563-2.883
		c1.02,1.051,4.024,2.733,7.388,2.733c2.552,0,4.054-0.961,4.054-2.763c0-2.133-2.132-2.733-5.827-3.695
		c-4.204-1.111-6.336-2.373-6.336-5.706C15.262,71.511,18.625,69.228,22.951,69.228z"/>
	<path style="fill:#FF833D;" d="M231.84,55.209v45.331H4.843V55.209H0v95.243V160h236.683v-9.548V55.209H231.84z M4.843,155.157
		v-4.704H231.84v4.704H4.843z M4.843,105.383H231.84v40.226H4.843V105.383z"/>
	<path style="fill:#A5DBFF;" d="M4.843,14.001v36.365H231.84V14.001V4.843H4.843V14.001z M23.249,41.006
		c-3.243,0-6.397-1.021-8.83-2.883l1.563-2.883c1.02,1.051,4.024,2.733,7.388,2.733c2.552,0,4.054-0.961,4.054-2.763
		c0-2.133-2.132-2.733-5.827-3.695c-4.204-1.111-6.336-2.373-6.336-5.706c0-4.205,3.364-6.488,7.689-6.488
		c2.942,0,5.405,1.051,7.238,2.403l-1.532,2.763c-0.812-0.871-3.093-2.163-5.888-2.163c-2.613,0-4.024,1.111-4.024,2.973
		c0,2.042,1.743,2.493,5.286,3.394c4.206,1.081,7.029,2.192,7.029,6.127C31.06,39.264,27.486,41.006,23.249,41.006z M50.008,34.037
		H37.422c0.211,2.763,2.314,4.626,4.747,4.626c1.771,0,3.513-0.961,4.114-2.403l2.824,0.811c-1.082,2.343-3.756,4.025-7.059,4.025
		c-4.895,0-8.139-3.724-8.139-8.109c0-4.445,3.244-8.17,8.17-8.17s8.02,3.784,8.02,8.019C50.098,33.317,50.038,33.767,50.008,34.037
		z M67.574,40.796c-0.632,0.12-1.201,0.15-1.622,0.15c-1.261-0.09-1.922-0.721-2.073-1.712l-0.09-0.991
		c-1.412,1.832-3.575,2.854-5.917,2.854c-3.033,0-5.316-2.133-5.316-4.926c0-2.943,2.734-4.956,6.639-4.956
		c1.471,0,3.003,0.27,4.143,0.721v-1.081c0-2.313-1.381-3.695-3.844-3.695c-1.652,0-3.273,0.63-4.985,1.802l-1.022-2.102
		c2.013-1.352,4.085-2.042,6.308-2.042c4.295,0,6.849,2.313,6.849,6.398v5.676c0,0.751,0.24,1.051,0.931,1.081V40.796z M74.688,44.7
		h-2.823V17.519h2.823V44.7z M217.173,14.648c2.794,2.794,4.333,6.508,4.333,10.46c0,3.131-0.979,6.105-2.771,8.598l8.446,8.446
		l-3.424,3.424l-8.446-8.446c-2.493,1.791-5.467,2.77-8.599,2.77c-3.951,0-7.666-1.539-10.46-4.333
		c-5.768-5.768-5.768-15.152,0-20.92c2.793-2.794,6.508-4.333,10.46-4.333C210.665,10.315,214.38,11.853,217.173,14.648z"/>
	<path style="fill:#A5DBFF;" d="M206.713,15.158c-2.657,0-5.156,1.035-7.035,2.914c-3.879,3.879-3.879,10.192,0,14.071
		c1.88,1.879,4.378,2.914,7.035,2.914c2.658,0,5.157-1.035,7.036-2.914c1.879-1.879,2.914-4.378,2.914-7.035
		c0-2.658-1.035-5.157-2.914-7.036C211.869,16.193,209.371,15.158,206.713,15.158z"/>
	<path style="fill:#A5DBFF;" d="M55.68,35.9c0,1.562,1.322,2.763,3.093,2.763c1.593,0,3.154-0.631,3.935-1.652
		c0.39-0.331,0.63-0.781,0.63-1.141v-2.073c-1.111-0.42-2.432-0.691-3.634-0.691C57.362,33.107,55.68,34.248,55.68,35.9z"/>
	<path style="fill:#A5DBFF;" d="M42.048,27.25c-2.493,0-4.505,1.832-4.715,4.505h9.49C46.553,29.082,44.572,27.25,42.048,27.25z"/>
	<path style="fill:#305CB3;" d="M0,0v9.157v46.052h4.843H231.84h4.843V9.157V0H0z M231.84,14.001v36.365H4.843V14.001V4.843H231.84
		V14.001z"/>
	<path style="fill:#305CB3;" d="M24.031,28.692c-3.544-0.902-5.286-1.352-5.286-3.394c0-1.862,1.411-2.973,4.024-2.973
		c2.794,0,5.076,1.291,5.888,2.163l1.532-2.763c-1.832-1.352-4.296-2.403-7.238-2.403c-4.325,0-7.689,2.283-7.689,6.488
		c0,3.334,2.132,4.595,6.336,5.706c3.695,0.961,5.827,1.562,5.827,3.695c0,1.802-1.502,2.763-4.054,2.763
		c-3.364,0-6.368-1.682-7.388-2.733l-1.563,2.883c2.433,1.863,5.587,2.883,8.83,2.883c4.236,0,7.81-1.742,7.81-6.187
		C31.06,30.884,28.237,29.773,24.031,28.692z"/>
	<path style="fill:#305CB3;" d="M42.078,24.817c-4.926,0-8.17,3.724-8.17,8.17c0,4.385,3.244,8.109,8.139,8.109
		c3.303,0,5.977-1.682,7.059-4.025l-2.824-0.811c-0.601,1.442-2.343,2.403-4.114,2.403c-2.433,0-4.536-1.863-4.747-4.626h12.585
		c0.03-0.27,0.091-0.721,0.091-1.201C50.098,28.601,47.004,24.817,42.078,24.817z M37.333,31.755
		c0.21-2.673,2.222-4.505,4.715-4.505c2.524,0,4.505,1.832,4.775,4.505H37.333z"/>
	<path style="fill:#305CB3;" d="M66.644,36.891v-5.676c0-4.085-2.554-6.398-6.849-6.398c-2.223,0-4.295,0.691-6.308,2.042
		l1.022,2.102c1.712-1.172,3.334-1.802,4.985-1.802c2.463,0,3.844,1.382,3.844,3.695v1.081c-1.141-0.451-2.672-0.721-4.143-0.721
		c-3.905,0-6.639,2.012-6.639,4.956c0,2.793,2.284,4.926,5.316,4.926c2.342,0,4.505-1.021,5.917-2.854l0.09,0.991
		c0.15,0.991,0.812,1.622,2.073,1.712c0.421,0,0.99-0.03,1.622-0.15v-2.823C66.884,37.942,66.644,37.642,66.644,36.891z
		 M63.338,35.87c0,0.36-0.24,0.811-0.63,1.141c-0.781,1.021-2.342,1.652-3.935,1.652c-1.771,0-3.093-1.201-3.093-2.763
		c0-1.652,1.682-2.793,4.025-2.793c1.201,0,2.523,0.271,3.634,0.691V35.87z"/>
	<rect x="71.865" y="17.519" style="fill:#305CB3;" width="2.823" height="27.181"/>
	<path style="fill:#FF833D;" d="M21.598,81.422c3.695,0.961,5.827,1.562,5.827,3.695c0,1.802-1.502,2.763-4.054,2.763
		c-3.364,0-6.368-1.682-7.388-2.733L14.42,88.03c2.433,1.863,5.587,2.883,8.83,2.883c4.236,0,7.81-1.742,7.81-6.187
		c0-3.935-2.823-5.046-7.029-6.127c-3.544-0.902-5.286-1.352-5.286-3.394c0-1.862,1.411-2.973,4.024-2.973
		c2.794,0,5.076,1.291,5.888,2.163l1.532-2.763c-1.832-1.352-4.296-2.403-7.238-2.403c-4.325,0-7.689,2.283-7.689,6.488
		C15.262,79.049,17.394,80.311,21.598,81.422z"/>
	<path style="fill:#FF833D;" d="M42.048,91.003c3.303,0,5.977-1.682,7.059-4.025l-2.824-0.811c-0.601,1.442-2.343,2.403-4.114,2.403
		c-2.433,0-4.536-1.863-4.747-4.626h12.585c0.03-0.27,0.091-0.721,0.091-1.201c0-4.235-3.094-8.019-8.02-8.019
		s-8.17,3.724-8.17,8.17C33.909,87.279,37.153,91.003,42.048,91.003z M42.048,77.157c2.524,0,4.505,1.832,4.775,4.505h-9.49
		C37.543,78.989,39.555,77.157,42.048,77.157z"/>
	<path style="fill:#FF833D;" d="M59.195,81.122c-3.905,0-6.639,2.012-6.639,4.956c0,2.793,2.284,4.926,5.316,4.926
		c2.342,0,4.505-1.021,5.917-2.854l0.09,0.991c0.15,0.991,0.812,1.622,2.073,1.712c0.421,0,0.99-0.03,1.622-0.15V87.88
		c-0.691-0.03-0.931-0.331-0.931-1.081v-5.676c0-4.085-2.554-6.398-6.849-6.398c-2.223,0-4.295,0.691-6.308,2.042l1.022,2.102
		c1.712-1.172,3.334-1.802,4.985-1.802c2.463,0,3.844,1.382,3.844,3.695v1.081C62.198,81.392,60.666,81.122,59.195,81.122z
		 M63.338,85.777c0,0.36-0.24,0.811-0.63,1.141c-0.781,1.021-2.342,1.652-3.935,1.652c-1.771,0-3.093-1.201-3.093-2.763
		c0-1.652,1.682-2.793,4.025-2.793c1.201,0,2.523,0.271,3.634,0.691V85.777z"/>
	<path style="fill:#FF833D;" d="M74.869,81.092c0.871-2.012,2.973-3.184,5.526-3.244v-2.973c-0.211-0.03-0.451-0.03-0.841-0.03
		c-1.953,0-3.814,1.502-4.926,3.664v-3.514h-3.064v15.708h3.304V81.092z"/>
	<path style="fill:#FF833D;" d="M90.874,91.003c3.305,0,5.918-1.682,6.939-4.025l-3.244-0.961c-0.481,1.201-2.102,2.163-3.724,2.163
		c-2.583,0-4.716-2.313-4.716-5.346c0-3.094,2.043-5.286,4.686-5.286c1.561,0,2.913,0.781,3.663,2.102l3.214-1.021
		c-1.171-2.343-3.574-3.905-6.819-3.905c-4.955,0-8.139,3.694-8.139,8.109C82.735,87.219,85.98,91.003,90.874,91.003z"/>
	<path style="fill:#FF833D;" d="M104.687,81.362c0.66-2.163,2.734-3.695,4.505-3.695c1.922,0,3.004,1.382,3.004,4.235v8.8h3.303
		v-9.581c0-3.424-1.081-6.398-4.955-6.398c-2.433,0-4.626,1.291-5.858,3.424v-9.371h-3.303v21.926h3.303V81.362z"/>
	<path style="fill:#FF833D;" d="M136.219,87.88c-3.364,0-6.368-1.682-7.388-2.733l-1.563,2.883c2.433,1.863,5.587,2.883,8.83,2.883
		c4.236,0,7.81-1.742,7.81-6.187c0-3.935-2.823-5.046-7.029-6.127c-3.544-0.902-5.286-1.352-5.286-3.394
		c0-1.862,1.411-2.973,4.024-2.973c2.794,0,5.076,1.291,5.888,2.163l1.532-2.763c-1.832-1.352-4.296-2.403-7.238-2.403
		c-4.325,0-7.689,2.283-7.689,6.488c0,3.334,2.132,4.595,6.336,5.706c3.695,0.961,5.827,1.562,5.827,3.695
		C140.273,86.918,138.771,87.88,136.219,87.88z"/>
	<path style="fill:#FF833D;" d="M154.836,91.003c4.896,0,8.081-3.784,8.081-8.14c0-4.355-3.184-8.139-8.081-8.139
		c-4.864,0-8.079,3.784-8.079,8.139C146.757,87.219,149.911,91.003,154.836,91.003z M154.836,77.548
		c2.614,0,4.686,2.312,4.686,5.316s-2.073,5.316-4.686,5.316c-2.613,0-4.685-2.252-4.685-5.286
		C150.151,79.89,152.253,77.548,154.836,77.548z"/>
	<path style="fill:#FF833D;" d="M170.331,90.943c1.052,0,2.523-0.3,3.484-0.721l-0.481-2.673c-0.51,0.24-1.172,0.391-1.622,0.391
		c-1.08,0-1.712-0.691-1.712-1.862v-17.3h-3.303v18.592C166.697,89.622,168.078,90.943,170.331,90.943z"/>
	<path style="fill:#FF833D;" d="M179.82,81.092c0.871-2.012,2.973-3.184,5.526-3.244v-2.973c-0.211-0.03-0.451-0.03-0.841-0.03
		c-1.953,0-3.814,1.502-4.926,3.664v-3.514h-3.064v15.708h3.304V81.092z"/>
	<path style="fill:#FF833D;" d="M24.031,124.081c-3.544-0.901-5.286-1.351-5.286-3.394c0-1.862,1.411-2.974,4.024-2.974
		c2.794,0,5.076,1.292,5.888,2.163l1.532-2.763c-1.832-1.351-4.296-2.403-7.238-2.403c-4.325,0-7.689,2.283-7.689,6.488
		c0,3.334,2.132,4.596,6.336,5.707c3.695,0.961,5.827,1.562,5.827,3.694c0,1.802-1.502,2.763-4.054,2.763
		c-3.364,0-6.368-1.682-7.388-2.733l-1.563,2.883c2.433,1.862,5.587,2.883,8.83,2.883c4.236,0,7.81-1.743,7.81-6.188
		C31.06,126.274,28.237,125.162,24.031,124.081z"/>
	<path style="fill:#FF833D;" d="M42.078,120.207c-4.926,0-8.17,3.724-8.17,8.17c0,4.385,3.244,8.109,8.139,8.109
		c3.303,0,5.977-1.682,7.059-4.025l-2.824-0.811c-0.601,1.442-2.343,2.403-4.114,2.403c-2.433,0-4.536-1.862-4.747-4.625h12.585
		c0.03-0.271,0.091-0.721,0.091-1.201C50.098,123.991,47.004,120.207,42.078,120.207z M37.333,127.145
		c0.21-2.673,2.222-4.506,4.715-4.506c2.524,0,4.505,1.832,4.775,4.506H37.333z"/>
	<path style="fill:#FF833D;" d="M66.644,132.281v-5.677c0-4.085-2.554-6.397-6.849-6.397c-2.223,0-4.295,0.691-6.308,2.042
		l1.022,2.102c1.712-1.171,3.334-1.802,4.985-1.802c2.463,0,3.844,1.382,3.844,3.694v1.081c-1.141-0.45-2.672-0.721-4.143-0.721
		c-3.905,0-6.639,2.013-6.639,4.956c0,2.794,2.284,4.926,5.316,4.926c2.342,0,4.505-1.021,5.917-2.853l0.09,0.991
		c0.15,0.991,0.812,1.622,2.073,1.712c0.421,0,0.99-0.03,1.622-0.15v-2.823C66.884,133.332,66.644,133.032,66.644,132.281z
		 M63.338,131.26c0,0.36-0.24,0.811-0.63,1.141c-0.781,1.021-2.342,1.652-3.935,1.652c-1.771,0-3.093-1.201-3.093-2.763
		c0-1.652,1.682-2.793,4.025-2.793c1.201,0,2.523,0.27,3.634,0.691V131.26z"/>
	<path style="fill:#FF833D;" d="M90.878,120.207c-2.524,0-4.565,1.261-5.888,3.574c-0.39-2.042-1.892-3.574-4.505-3.574
		c-2.583,0-4.685,1.231-5.916,3.424v-3.154h-3.004v15.709h3.304v-9.341c0.692-2.192,2.432-3.694,4.265-3.694
		c1.831,0,2.793,1.291,2.793,4.235v8.8h3.303v-9.311c0.662-2.193,2.403-3.724,4.266-3.724c1.801,0,2.823,1.322,2.823,4.235v8.8
		h3.303v-9.581C95.623,123.18,94.601,120.207,90.878,120.207z"/>
	<path style="fill:#FF833D;" d="M105.259,133.422c-1.081,0-1.712-0.691-1.712-1.862v-17.3h-3.303v18.591
		c0,2.253,1.381,3.574,3.634,3.574c1.05,0,2.522-0.3,3.483-0.721l-0.481-2.673C106.369,133.272,105.709,133.422,105.259,133.422z"/>
	<path style="fill:#FF833D;" d="M117.271,120.207c-4.927,0-8.17,3.724-8.17,8.17c0,4.385,3.243,8.109,8.139,8.109
		c3.303,0,5.977-1.682,7.058-4.025l-2.824-0.811c-0.6,1.442-2.342,2.403-4.115,2.403c-2.432,0-4.535-1.862-4.745-4.625H125.2
		c0.03-0.271,0.089-0.721,0.089-1.201C125.289,123.991,122.196,120.207,117.271,120.207z M112.525,127.145
		c0.211-2.673,2.222-4.506,4.716-4.506c2.522,0,4.505,1.832,4.775,4.506H112.525z"/>
	<path style="fill:#FF833D;" d="M134.868,126.995c-2.554-0.631-3.455-0.961-3.455-2.252c0-1.532,1.322-2.193,3.003-2.193
		c1.653,0,3.274,0.541,4.806,1.682l1.412-2.012c-1.653-1.232-3.875-2.013-6.158-2.013c-3.453,0-6.156,1.832-6.156,5.016
		c0,2.433,1.561,3.244,5.496,4.235c2.823,0.691,4.085,1.111,4.085,2.433c0,1.412-1.262,2.193-3.244,2.193
		c-1.952,0-3.844-0.691-5.737-2.012l-1.381,2.222c1.803,1.382,4.656,2.193,7.178,2.193c3.875,0,6.368-1.892,6.368-4.866
		C141.085,128.947,139.193,128.016,134.868,126.995z"/>
	<path style="fill:#FF833D;" d="M150.783,126.995c-2.554-0.631-3.455-0.961-3.455-2.252c0-1.532,1.322-2.193,3.004-2.193
		c1.653,0,3.274,0.541,4.806,1.682l1.412-2.012c-1.653-1.232-3.875-2.013-6.158-2.013c-3.453,0-6.156,1.832-6.156,5.016
		c0,2.433,1.561,3.244,5.496,4.235c2.823,0.691,4.085,1.111,4.085,2.433c0,1.412-1.262,2.193-3.244,2.193
		c-1.952,0-3.844-0.691-5.737-2.012l-1.381,2.222c1.803,1.382,4.656,2.193,7.178,2.193c3.875,0,6.368-1.892,6.368-4.866
		C157,128.947,155.108,128.016,150.783,126.995z"/>
	<path style="fill:#305CB3;" d="M196.253,14.648c-5.768,5.768-5.768,15.152,0,20.92c2.793,2.794,6.508,4.333,10.46,4.333
		c3.131,0,6.105-0.98,8.599-2.77l8.446,8.446l3.424-3.424l-8.446-8.446c1.791-2.493,2.771-5.467,2.771-8.598
		c0-3.952-1.538-7.666-4.333-10.46c-2.793-2.794-6.508-4.333-10.461-4.333C202.761,10.315,199.046,11.853,196.253,14.648z
		 M214.972,33.367L214.972,33.367L214.972,33.367z M213.749,32.143c-1.88,1.879-4.378,2.914-7.036,2.914
		c-2.657,0-5.156-1.035-7.035-2.914c-3.879-3.879-3.879-10.192,0-14.071c1.88-1.879,4.378-2.914,7.035-2.914
		c2.658,0,5.157,1.035,7.036,2.914c1.879,1.879,2.914,4.378,2.914,7.036C216.663,27.765,215.628,30.264,213.749,32.143z"/>
	
		<line style="fill:none;stroke:#F9D5C2;stroke-width:0;stroke-linecap:round;stroke-linejoin:round;" x1="214.972" y1="33.367" x2="214.972" y2="33.367"/>
</g>
</svg>
