<?xml version="1.0" encoding="iso-8859-1"?>
<!-- Generator: Adobe Illustrator 18.0.0, SVG Export Plug-In . SVG Version: 6.00 Build 0)  -->
<!DOCTYPE svg PUBLIC "-//W3C//DTD SVG 1.1//EN" "http://www.w3.org/Graphics/SVG/1.1/DTD/svg11.dtd">
<svg version="1.1" id="Layer_1" xmlns="http://www.w3.org/2000/svg" xmlns:xlink="http://www.w3.org/1999/xlink" x="0px" y="0px"
	 viewBox="0 0 247 160" style="enable-background:new 0 0 247 160;" xml:space="preserve">
<g>
	<path style="fill:none;" d="M231.284,71.093h-13.061V86.21h13.061c0.452,0,0.879-0.426,0.879-0.876V71.971
		C232.164,71.52,231.736,71.093,231.284,71.093z"/>
	<polygon style="fill:#F9D5C2;" points="8.482,38.018 37.888,38.018 37.888,8.612 	"/>
	<path style="fill:#F9D5C2;" d="M42.745,5.178v37.697H5.048v112.269h68.114c-1.17-1.794-1.407-3.684-1.407-4.903v-4.527h43.077
		c-0.015-0.008-0.03-0.015-0.045-0.023h-96.96v-4.867h88.746c-4.341-2.979-8.199-6.349-11.541-10.054H17.828v-4.867H91.08
		c-2.231-3.065-4.139-6.318-5.716-9.734H17.828v-4.867h65.555c-1.108-3.132-1.954-6.381-2.518-9.734H17.827v-4.867H80.25
		c-0.134-1.563-0.206-3.147-0.222-4.748c-0.827,0.069-1.661,0.112-2.505,0.112c-16.534,0-29.936-13.403-29.936-29.936
		c0-16.533,13.403-29.936,29.936-29.936c14.606,0,26.761,10.462,29.399,24.3h15.357V5.178H42.745z M23.251,92.063h-4.867v-29.8
		h4.867V92.063z M32.986,92.063h-4.867V57.396h4.867V92.063z M42.719,92.062h-4.867V52.529h4.867V92.062z"/>
	<path style="fill:#F9D5C2;" d="M75.09,37.178c-12.685,1.228-22.636,11.947-22.636,24.949c0,13.823,11.246,25.069,25.07,25.069
		c0.841,0,1.672-0.043,2.492-0.125V66.736c0-0.747,0.083-1.473,0.233-2.175H75.09V37.178z"/>
	<path style="fill:#FF833D;" d="M73.163,155.143H5.048V42.875h37.697V5.178h79.534v51.313h4.857V0.321H39.311l-39.12,39.12V160
		h85.435C78.308,160,74.81,157.667,73.163,155.143z M8.482,38.018L37.888,8.612v29.406H8.482z"/>
	<path style="fill:#FF833D;" d="M77.523,32.191c-16.534,0-29.936,13.403-29.936,29.936c0,16.533,13.403,29.936,29.936,29.936
		c0.844,0,1.678-0.044,2.505-0.112c-0.002-0.214-0.013-0.426-0.013-0.641v-4.238c-0.82,0.081-1.651,0.125-2.492,0.125
		c-13.824,0-25.07-11.246-25.07-25.069c0-13.002,9.95-23.721,22.636-24.949v27.383h5.159c0.982-4.607,5.01-8.07,9.821-8.07h16.853
		C104.285,42.653,92.129,32.191,77.523,32.191z"/>
	<path style="fill:#FF833D;" d="M17.827,101.566h63.038c-0.269-1.6-0.473-3.223-0.615-4.867H17.827V101.566z"/>
	<path style="fill:#FF833D;" d="M17.828,116.168h67.537c-0.733-1.588-1.395-3.21-1.982-4.867H17.828V116.168z"/>
	<path style="fill:#FF833D;" d="M17.828,130.769h77.204c-1.411-1.564-2.729-3.187-3.952-4.867H17.828V130.769z"/>
	<path style="fill:#FF833D;" d="M17.828,145.69h96.96c-2.898-1.481-5.644-3.103-8.214-4.867H17.828V145.69z"/>
	<rect x="18.385" y="62.263" style="fill:#FF833D;" width="4.867" height="29.8"/>
	<rect x="28.118" y="57.396" style="fill:#FF833D;" width="4.867" height="34.667"/>
	<rect x="37.852" y="52.529" style="fill:#FF833D;" width="4.867" height="39.534"/>
	<path style="fill:#305CB3;" d="M132.481,51.665h4.857c0-3.633,1.037-5.362,2.238-7.362c1.373-2.288,2.929-4.883,2.929-9.861
		s-1.557-7.573-2.929-9.861c-1.201-2.001-2.238-3.729-2.238-7.361s1.037-5.361,2.238-7.361c1.373-2.288,2.929-4.882,2.929-9.859
		h-4.857c0,3.632-1.037,5.36-2.237,7.36c-1.374,2.288-2.93,4.882-2.93,9.86s1.557,7.572,2.929,9.86
		c1.201,2.001,2.238,3.729,2.238,7.362s-1.037,5.362-2.238,7.362C134.038,44.093,132.481,46.687,132.481,51.665z"/>
	<path style="fill:#305CB3;" d="M145.216,27.08c1.2,2.001,2.237,3.729,2.237,7.362s-1.037,5.362-2.237,7.362
		c-1.374,2.289-2.929,4.883-2.929,9.861h4.857c0-3.633,1.037-5.362,2.237-7.362c1.374-2.289,2.929-4.883,2.929-9.861
		s-1.556-7.573-2.929-9.861c-1.2-2.001-2.237-3.729-2.237-7.361c0-3.633,1.037-5.361,2.237-7.361
		c1.374-2.288,2.929-4.882,2.929-9.859h-4.857c0,3.632-1.037,5.36-2.237,7.36c-1.373,2.288-2.929,4.882-2.929,9.86
		C142.286,22.198,143.842,24.792,145.216,27.08z"/>
	<path style="fill:#305CB3;" d="M155.021,27.08c1.2,2.001,2.237,3.729,2.237,7.362s-1.037,5.362-2.237,7.362
		c-1.374,2.289-2.929,4.883-2.929,9.861h4.857c0-3.633,1.037-5.362,2.237-7.362c1.374-2.289,2.929-4.883,2.929-9.861
		s-1.556-7.573-2.929-9.861c-1.2-2.001-2.237-3.729-2.237-7.361c0-3.633,1.037-5.361,2.237-7.361
		c1.374-2.288,2.929-4.882,2.929-9.859h-4.857c0,3.632-1.037,5.36-2.237,7.36c-1.373,2.288-2.929,4.882-2.929,9.86
		C152.091,22.198,153.647,24.792,155.021,27.08z"/>
	<path style="fill:#A5DBFF;" d="M126.451,150.57H76.624c0.26,3.769,5.005,4.573,9.002,4.573h36.653h94.72
		c3.997,0,8.739-0.804,8.999-4.573h-54.2H126.451z"/>
	<path style="fill:#A5DBFF;" d="M231.155,61.348H90.07c-2.866,0-5.197,2.417-5.197,5.388V91.31c0,24.968,15.835,45.279,42.38,54.403
		h43.742c24.12-8.293,39.412-25.613,41.974-47.569l0.25-2.147h17.938c5.952,0,10.794-4.986,10.794-11.115V72.465
		C241.95,66.335,237.107,61.348,231.155,61.348z M237.021,85.335c0,3.108-2.627,5.732-5.736,5.732h-17.917V66.236h17.917
		c3.11,0,5.736,2.627,5.736,5.735V85.335z"/>
	<path style="fill:#305CB3;" d="M231.155,56.491H127.136h-4.857h-15.357H90.07c-4.811,0-8.839,3.463-9.821,8.07
		c-0.15,0.702-0.233,1.428-0.233,2.175v20.336v4.238c0,0.215,0.01,0.427,0.013,0.641c0.016,1.601,0.088,3.185,0.222,4.748
		c0.141,1.645,0.346,3.268,0.615,4.867c0.564,3.353,1.41,6.602,2.518,9.734c0.586,1.657,1.249,3.279,1.982,4.867
		c1.577,3.416,3.485,6.669,5.716,9.734c1.223,1.68,2.541,3.303,3.952,4.867c3.342,3.704,7.2,7.074,11.541,10.054
		c2.57,1.764,5.316,3.386,8.214,4.867c0.015,0.008,0.03,0.015,0.045,0.023H71.756v4.527c0,1.219,0.237,3.11,1.407,4.903
		C74.81,157.667,78.308,160,85.627,160h41.509h89.863c12.516,0,13.867-6.825,13.867-9.76v-4.527h-47.408
		c18.953-9.647,31.079-25.482,34.046-44.859h13.653c8.63,0,15.651-7.165,15.651-15.972V72.464
		C246.807,63.657,239.784,56.491,231.155,56.491z M241.952,84.882c0,6.129-4.843,11.115-10.794,11.115h-17.938l-0.25,2.147
		c-2.562,21.957-17.854,39.276-41.974,47.569h-43.742c-26.545-9.124-42.38-29.436-42.38-54.403V66.736
		c0-2.971,2.332-5.388,5.197-5.388h141.086c5.952,0,10.794,4.987,10.796,11.117V84.882z M216.999,155.143h-94.72H85.627
		c-3.997,0-8.742-0.804-9.002-4.573h49.827h45.347h54.2C225.738,154.339,220.996,155.143,216.999,155.143z"/>
	<path style="fill:#305CB3;" d="M231.284,66.236h-17.917v24.831h17.917c3.11,0,5.736-2.625,5.736-5.732V71.971
		C237.021,68.863,234.394,66.236,231.284,66.236z M232.164,85.335c0,0.45-0.428,0.876-0.879,0.876h-13.061V71.093h13.061
		c0.452,0,0.879,0.427,0.879,0.878V85.335z"/>
</g>
</svg>
