<?xml version="1.0" encoding="iso-8859-1"?>
<!-- Generator: Adobe Illustrator 18.0.0, SVG Export Plug-In . SVG Version: 6.00 Build 0)  -->
<!DOCTYPE svg PUBLIC "-//W3C//DTD SVG 1.1//EN" "http://www.w3.org/Graphics/SVG/1.1/DTD/svg11.dtd">
<svg version="1.1" id="Layer_1" xmlns="http://www.w3.org/2000/svg" xmlns:xlink="http://www.w3.org/1999/xlink" x="0px" y="0px"
	 viewBox="0 0 266 160" style="enable-background:new 0 0 266 160;" xml:space="preserve">
<g>
	<path style="fill:#F9D5C2;" d="M67.367,30.43h188.947v119.72H67.367v-20.086c-1.621,0.827-3.292,1.572-5.016,2.207v22.848h198.761
		V25.382H155.828l-6.217-10.768h-45.064l-6.218,10.768H62.35v19.824c1.724,0.635,3.395,1.38,5.016,2.207V30.43z"/>
	<path style="fill:#F9D5C2;" d="M62.35,20.502h33.16l6.218-10.768h50.7l6.217,10.768h102.466V4.881H62.35V20.502z M89.329,9.733
		c1.348,0,2.44,1.093,2.44,2.44c0,1.348-1.092,2.44-2.44,2.44c-1.347,0-2.44-1.093-2.44-2.44
		C86.889,10.826,87.982,9.733,89.329,9.733z M79.568,9.733c1.348,0,2.44,1.093,2.44,2.44c0,1.348-1.092,2.44-2.44,2.44
		c-1.347,0-2.44-1.093-2.44-2.44C77.127,10.826,78.22,9.733,79.568,9.733z M69.806,9.733c1.348,0,2.44,1.093,2.44,2.44
		c0,1.348-1.092,2.44-2.44,2.44c-1.347,0-2.44-1.093-2.44-2.44C67.366,10.826,68.459,9.733,69.806,9.733z"/>
	<path style="fill:#FF833D;" d="M57.47,0v43.721c1.662,0.41,3.293,0.902,4.881,1.486V25.382h35.978l6.218-10.768h45.064
		l6.217,10.768h105.284v129.737H62.35v-22.848c-1.587,0.584-3.218,1.076-4.881,1.486V160h208.523V0H57.47z M261.112,20.502H158.645
		l-6.217-10.768h-50.7L95.51,20.502H62.35V4.881h198.761V20.502z M263.552,22.942L263.552,22.942L263.552,22.942z"/>
	<circle style="fill:#FF833D;" cx="69.807" cy="12.173" r="2.44"/>
	<circle style="fill:#FF833D;" cx="79.568" cy="12.173" r="2.44"/>
	<circle style="fill:#FF833D;" cx="89.329" cy="12.173" r="2.44"/>
	<path style="fill:#F9D5C2;" d="M186.133,94.727c0,2.214,1.872,3.918,4.385,3.918c2.257,0,4.471-0.894,5.578-2.342
		c0.555-0.468,0.894-1.107,0.894-1.618v-2.939c-1.575-0.596-3.449-0.979-5.151-0.979C188.517,90.767,186.133,92.386,186.133,94.727z
		"/>
	<path style="fill:#F9D5C2;" d="M251.433,145.269V35.311H72.247v14.965c12.357,8.338,20.499,22.467,20.499,38.463
		c0,15.996-8.142,30.125-20.499,38.463v18.068H251.433z M222.662,70.583h4.684v24.528c0,1.661,0.894,2.64,2.427,2.64
		c0.639,0,1.577-0.213,2.299-0.554l0.683,3.79c-1.363,0.597-3.451,1.022-4.94,1.022c-3.193,0-5.153-1.873-5.153-5.067V70.583z
		 M208.699,70.583h4.684v24.528c0,1.661,0.894,2.64,2.427,2.64c0.639,0,1.575-0.213,2.299-0.554l0.681,3.79
		c-1.363,0.597-3.449,1.022-4.94,1.022c-3.193,0-5.151-1.873-5.151-5.067V70.583z M191.54,82.335c-2.341,0-4.64,0.894-7.069,2.555
		l-1.447-2.981c2.854-1.916,5.792-2.895,8.943-2.895c6.089,0,9.708,3.278,9.708,9.07v8.048c0,1.064,0.341,1.49,1.321,1.533v4.003
		c-0.894,0.171-1.704,0.213-2.301,0.213c-1.788-0.128-2.724-1.022-2.938-2.427l-0.128-1.405c-2,2.598-5.067,4.046-8.389,4.046
		c-4.301,0-7.536-3.024-7.536-6.984c0-4.173,3.874-7.026,9.411-7.026c2.086,0,4.257,0.383,5.876,1.022v-1.533
		C196.991,84.294,195.033,82.335,191.54,82.335z M164.716,79.398h2.98v-7.325h4.684v7.325h4.856v3.62h-4.856v12.434
		c0,1.576,1.066,2.257,2.343,2.257c1.319,0,2.641-0.597,3.193-0.895l1.022,3.705c-1.235,0.554-3.449,1.49-5.876,1.49
		c-2.896,0-5.367-1.49-5.367-5.067V83.017h-2.98V79.398z M151.05,92.13c-5.578-1.406-7.792-2.556-7.792-6.005
		c0-4.514,3.832-7.111,8.728-7.111c3.237,0,6.389,1.107,8.73,2.853l-2.002,2.853c-2.172-1.619-4.471-2.385-6.812-2.385
		c-2.385,0-4.259,0.937-4.259,3.109c0,1.831,1.277,2.299,4.898,3.193c6.131,1.448,8.814,2.768,8.814,6.558
		c0,4.215-3.535,6.899-9.027,6.899c-3.577,0-7.622-1.15-10.177-3.109l1.958-3.151c2.682,1.874,5.367,2.853,8.133,2.853
		c2.812,0,4.6-1.107,4.6-3.109C156.842,93.705,155.054,93.109,151.05,92.13z M117.413,79.398h4.257v4.471
		c1.704-2.981,5.153-4.854,9.071-4.854c5.365,0,6.686,4.172,6.686,9.07v13.584h-4.684V89.191c0-4.173-1.405-6.005-3.962-6.005
		c-2.724,0-5.706,2.214-6.684,5.238v13.244h-4.684V79.398z M105.959,70.583h4.684v5.152h-4.684V70.583z M105.959,79.398h4.684
		v22.271h-4.684V79.398z"/>
	<path style="fill:#FF833D;" d="M256.314,150.15V30.43H67.367v16.983c1.687,0.86,3.32,1.81,4.881,2.863V35.311h179.186v109.958
		H72.247v-18.068c-1.56,1.053-3.194,2.002-4.881,2.863v20.086H256.314z"/>
	
		<line style="fill:none;stroke:#F9D5C2;stroke-width:0;stroke-linecap:round;stroke-linejoin:round;" x1="263.552" y1="22.942" x2="263.552" y2="22.942"/>
	<rect x="105.959" y="70.583" style="fill:#305CB3;" width="4.684" height="5.152"/>
	<rect x="105.959" y="79.398" style="fill:#305CB3;" width="4.684" height="22.271"/>
	<path style="fill:#305CB3;" d="M122.098,88.425c0.978-3.024,3.96-5.238,6.684-5.238c2.557,0,3.962,1.831,3.962,6.005v12.477h4.684
		V88.085c0-4.898-1.321-9.07-6.686-9.07c-3.918,0-7.367,1.873-9.071,4.854v-4.471h-4.257v22.271h4.684V88.425z"/>
	<path style="fill:#305CB3;" d="M152.241,98.688c-2.766,0-5.451-0.979-8.133-2.853l-1.958,3.151c2.555,1.959,6.6,3.109,10.177,3.109
		c5.493,0,9.027-2.683,9.027-6.899c0-3.79-2.682-5.11-8.814-6.558c-3.62-0.894-4.898-1.362-4.898-3.193
		c0-2.172,1.874-3.109,4.259-3.109c2.341,0,4.64,0.766,6.812,2.385l2.002-2.853c-2.341-1.746-5.493-2.853-8.73-2.853
		c-4.896,0-8.728,2.598-8.728,7.111c0,3.449,2.213,4.598,7.792,6.005c4.004,0.979,5.792,1.575,5.792,3.449
		C156.842,97.581,155.054,98.688,152.241,98.688z"/>
	<path style="fill:#305CB3;" d="M167.696,96.941c0,3.578,2.471,5.067,5.367,5.067c2.427,0,4.64-0.936,5.876-1.49l-1.022-3.705
		c-0.553,0.298-1.874,0.895-3.193,0.895c-1.277,0-2.343-0.682-2.343-2.257V83.017h4.856v-3.62h-4.856v-7.325h-4.684v7.325h-2.98
		v3.62h2.98V96.941z"/>
	<path style="fill:#305CB3;" d="M191.115,88.085c-5.536,0-9.411,2.853-9.411,7.026c0,3.96,3.235,6.984,7.536,6.984
		c3.321,0,6.389-1.448,8.389-4.046l0.128,1.405c0.214,1.405,1.15,2.299,2.938,2.427c0.597,0,1.407-0.042,2.301-0.213v-4.003
		c-0.98-0.043-1.321-0.469-1.321-1.533v-8.048c0-5.792-3.619-9.07-9.708-9.07c-3.151,0-6.089,0.979-8.943,2.895l1.447,2.981
		c2.429-1.661,4.728-2.555,7.069-2.555c3.493,0,5.451,1.959,5.451,5.238v1.533C195.372,88.468,193.201,88.085,191.115,88.085z
		 M196.991,94.685c0,0.511-0.339,1.15-0.894,1.618c-1.108,1.448-3.321,2.342-5.578,2.342c-2.513,0-4.385-1.703-4.385-3.918
		c0-2.341,2.383-3.96,5.706-3.96c1.703,0,3.577,0.383,5.151,0.979V94.685z"/>
	<path style="fill:#305CB3;" d="M213.85,102.009c1.491,0,3.577-0.425,4.94-1.022l-0.681-3.79c-0.724,0.341-1.661,0.554-2.299,0.554
		c-1.533,0-2.427-0.979-2.427-2.64V70.583h-4.684v26.358C208.699,100.136,210.657,102.009,213.85,102.009z"/>
	<path style="fill:#305CB3;" d="M227.815,102.009c1.489,0,3.577-0.425,4.94-1.022l-0.683-3.79c-0.723,0.341-1.661,0.554-2.299,0.554
		c-1.533,0-2.427-0.979-2.427-2.64V70.583h-4.684v26.358C222.662,100.136,224.622,102.009,227.815,102.009z"/>
	<path style="fill:#A5DBFF;" d="M27.275,83.258c0,2.023,1.409,2.782,4.334,3.577v-7.116C28.793,79.864,27.275,81.164,27.275,83.258z
		"/>
	<path style="fill:#A5DBFF;" d="M32.946,91.349v7.151c2.998-0.036,4.768-1.155,4.768-3.323
		C37.715,93.083,35.981,92.216,32.946,91.349z"/>
	<path style="fill:#A5DBFF;" d="M87.865,88.739c0-22.877-18.611-41.489-41.489-41.489S4.888,65.862,4.888,88.739
		s18.611,41.488,41.489,41.488S87.865,111.616,87.865,88.739z M33.235,102.149v3.793h-1.878v-3.865
		c-3.432-0.216-6.682-1.408-9.283-3.395l1.878-3.468c1.084,1.156,4.118,2.889,7.657,3.251v-7.476
		c-5.96-1.589-8.524-3.107-8.524-7.115c0-4.732,3.539-7.441,8.271-7.766v-3.648h1.878v3.648c3.143,0.181,5.78,1.373,7.802,2.853
		l-1.843,3.323c-0.903-0.939-3.287-2.348-6.249-2.564v7.477c5.743,1.444,9.139,2.781,9.139,7.513
		C42.085,99.873,38.076,102.005,33.235,102.149z M48.945,101.896h-3.287v-4.623h3.287V101.896z M56.601,101.896h-4.406L69.75,76.252
		h4.442L56.601,101.896z"/>
	<path style="fill:#305CB3;" d="M62.35,132.271c1.724-0.635,3.395-1.38,5.016-2.207c1.687-0.86,3.32-1.81,4.881-2.863
		c12.357-8.338,20.499-22.467,20.499-38.463c0-15.996-8.142-30.125-20.499-38.463c-1.56-1.053-3.194-2.002-4.881-2.863
		c-1.621-0.827-3.292-1.572-5.016-2.207c-1.587-0.584-3.218-1.076-4.881-1.486c-3.557-0.877-7.27-1.351-11.093-1.351
		c-25.568,0-46.369,20.801-46.369,46.369c0,25.568,20.801,46.369,46.369,46.369c3.824,0,7.536-0.474,11.093-1.351
		C59.132,133.347,60.763,132.855,62.35,132.271z M46.377,130.227c-22.877,0-41.489-18.611-41.489-41.488S23.5,47.25,46.377,47.25
		s41.489,18.612,41.489,41.489S69.254,130.227,46.377,130.227z"/>
	<path style="fill:#305CB3;" d="M32.946,87.196v-7.477c2.962,0.216,5.346,1.625,6.249,2.564l1.843-3.323
		c-2.023-1.48-4.66-2.672-7.802-2.853v-3.648h-1.878v3.648c-4.732,0.325-8.271,3.034-8.271,7.766c0,4.008,2.564,5.526,8.524,7.115
		v7.476c-3.539-0.361-6.574-2.094-7.657-3.251l-1.878,3.468c2.6,1.987,5.851,3.178,9.283,3.395v3.865h1.878v-3.793
		c4.841-0.144,8.85-2.275,8.85-7.44C42.085,89.977,38.69,88.64,32.946,87.196z M31.61,86.835c-2.926-0.795-4.334-1.554-4.334-3.577
		c0-2.094,1.518-3.395,4.334-3.539V86.835z M32.946,98.501v-7.151c3.034,0.867,4.768,1.734,4.768,3.828
		C37.715,97.345,35.944,98.465,32.946,98.501z"/>
	<rect x="45.658" y="97.273" style="fill:#305CB3;" width="3.287" height="4.623"/>
	<polygon style="fill:#305CB3;" points="74.192,76.252 69.75,76.252 52.195,101.896 56.601,101.896 	"/>
</g>
</svg>
