<?xml version="1.0" encoding="iso-8859-1"?>
<!-- Generator: Adobe Illustrator 18.0.0, SVG Export Plug-In . SVG Version: 6.00 Build 0)  -->
<!DOCTYPE svg PUBLIC "-//W3C//DTD SVG 1.1//EN" "http://www.w3.org/Graphics/SVG/1.1/DTD/svg11.dtd">
<svg version="1.1" id="Layer_1" xmlns="http://www.w3.org/2000/svg" xmlns:xlink="http://www.w3.org/1999/xlink" x="0px" y="0px"
	 viewBox="0 0 240 160" style="enable-background:new 0 0 240 160;" xml:space="preserve">
<g>
	<polygon style="fill:#A5DBFF;" points="57.57,21.413 5.222,21.413 5.222,155.15 9.108,155.15 19.34,52.223 77.059,52.271 
		77.059,45.306 57.57,45.306 	"/>
	<polygon style="fill:#A5DBFF;" points="13.993,155.015 77.059,155.067 77.059,57.119 23.729,57.074 	"/>
	<polygon style="fill:#305CB3;" points="179.462,160 179.462,159.998 177.177,159.998 	"/>
	<polygon style="fill:#305CB3;" points="77.059,155.067 13.993,155.015 23.729,57.074 77.059,57.119 77.059,52.271 19.34,52.223 
		9.108,155.15 5.222,155.15 5.222,21.413 57.57,21.413 57.57,45.306 77.059,45.306 77.059,40.458 62.418,40.458 62.418,16.565 
		0.374,16.565 0.374,159.998 77.059,159.998 	"/>
	<path style="fill:#F9D5C2;" d="M141.374,4.848V9.55h-4.848v4.848h4.848v4.848h-4.848v4.848h4.848v4.848h-4.848v4.848h4.848v4.848
		h-4.848v4.848h4.848v4.848h-4.848v4.848h4.848v4.848h-4.848v4.848h-4.848v-4.848h4.848v-4.848h-4.848v-4.848h4.848v-4.848h-4.848
		v-4.848h4.848V33.79h-4.848v-4.848h4.848v-4.848h-4.848v-4.848h4.848v-4.848h-4.848V9.55h4.848V4.848h-25.354v29.264H81.907V155.15
		h86.75h22.488v-43.856c-6.373-0.332-12.403-1.97-17.837-4.644H91.601v-4.848h73.926c-3.602-2.774-6.779-6.067-9.428-9.767H91.601
		v-4.848h61.451c-1.661-3.063-2.975-6.338-3.912-9.767H91.601v-4.848h56.489c-0.378-2.37-0.579-4.797-0.579-7.272
		c0-24.583,19.36-44.728,43.634-45.993V4.848H141.374z M181.45,116.462v4.848H91.601v-4.848H181.45z"/>
	<polygon style="fill:#F9D5C2;" points="83.187,29.264 106.324,29.264 106.324,4.848 105.867,4.848 	"/>
	<path style="fill:#FF833D;" d="M193.568,111.358c-0.813,0-1.621-0.023-2.424-0.064v43.856h-22.488h-86.75V34.112h29.265V4.848
		h25.354V9.55h4.848V4.848h49.77v14.46c0.803-0.042,1.611-0.064,2.424-0.064c0.813,0,1.621,0.023,2.424,0.064V0h-92.239
		L77.059,28.738v11.72v4.848v6.965v4.848v97.949v4.931h96.445h3.672h2.285h16.53v-48.704
		C195.189,111.336,194.381,111.358,193.568,111.358z M106.324,29.264H83.187l22.68-24.416h0.457V29.264z"/>
	<path style="fill:#FF833D;" d="M91.601,77.421h57.539c-0.433-1.585-0.788-3.201-1.05-4.848H91.601V77.421z"/>
	<path style="fill:#FF833D;" d="M91.601,92.035h64.498c-1.109-1.55-2.134-3.164-3.047-4.848H91.601V92.035z"/>
	<path style="fill:#FF833D;" d="M91.601,106.65h81.706c-2.761-1.358-5.363-2.987-7.78-4.848H91.601V106.65z"/>
	<rect x="91.601" y="116.462" style="fill:#FF833D;" width="89.849" height="4.848"/>
	<rect x="131.678" y="9.55" style="fill:#FF833D;" width="4.848" height="4.848"/>
	<rect x="136.526" y="14.398" style="fill:#FF833D;" width="4.848" height="4.848"/>
	<rect x="131.678" y="19.246" style="fill:#FF833D;" width="4.848" height="4.848"/>
	<rect x="136.526" y="24.094" style="fill:#FF833D;" width="4.848" height="4.848"/>
	<rect x="131.678" y="28.942" style="fill:#FF833D;" width="4.848" height="4.848"/>
	<rect x="136.526" y="33.79" style="fill:#FF833D;" width="4.848" height="4.848"/>
	<rect x="131.678" y="38.638" style="fill:#FF833D;" width="4.848" height="4.848"/>
	<rect x="136.526" y="43.485" style="fill:#FF833D;" width="4.848" height="4.848"/>
	<rect x="131.678" y="48.333" style="fill:#FF833D;" width="4.848" height="4.848"/>
	<rect x="136.526" y="53.181" style="fill:#FF833D;" width="4.848" height="4.848"/>
	<rect x="131.678" y="58.029" style="fill:#FF833D;" width="4.848" height="4.848"/>
	<path style="fill:#A5DBFF;" d="M193.568,106.51c22.723,0,41.21-18.486,41.21-41.209s-18.486-41.21-41.21-41.21
		s-41.21,18.487-41.21,41.21S170.845,106.51,193.568,106.51z M195.992,32.248v40.322h8.817l-11.24,19.466l-11.241-19.466h8.816
		V32.248H195.992z"/>
	<path style="fill:#305CB3;" d="M239.626,65.301c0-24.583-19.36-44.728-43.634-45.993c-0.803-0.042-1.611-0.064-2.424-0.064
		c-0.813,0-1.621,0.023-2.424,0.064c-24.274,1.265-43.634,21.41-43.634,45.993c0,2.474,0.202,4.902,0.579,7.272
		c0.262,1.647,0.617,3.263,1.05,4.848c0.937,3.429,2.251,6.704,3.912,9.767c0.913,1.684,1.938,3.298,3.047,4.848
		c2.648,3.7,5.826,6.993,9.428,9.767c2.417,1.861,5.019,3.49,7.78,4.848c5.434,2.673,11.464,4.311,17.837,4.644
		c0.803,0.042,1.611,0.064,2.424,0.064c0.813,0,1.621-0.023,2.424-0.064C220.266,110.029,239.626,89.884,239.626,65.301z
		 M152.358,65.301c0-22.723,18.486-41.21,41.21-41.21s41.21,18.487,41.21,41.21s-18.486,41.209-41.21,41.209
		S152.358,88.024,152.358,65.301z"/>
	<polygon style="fill:#305CB3;" points="182.328,72.569 193.569,92.035 204.809,72.569 195.992,72.569 195.992,32.248 
		191.144,32.248 191.144,72.569 	"/>
</g>
</svg>
