<?xml version="1.0" encoding="iso-8859-1"?>
<!-- Generator: Adobe Illustrator 18.0.0, SVG Export Plug-In . SVG Version: 6.00 Build 0)  -->
<!DOCTYPE svg PUBLIC "-//W3C//DTD SVG 1.1//EN" "http://www.w3.org/Graphics/SVG/1.1/DTD/svg11.dtd">
<svg version="1.1" id="Layer_1" xmlns="http://www.w3.org/2000/svg" xmlns:xlink="http://www.w3.org/1999/xlink" x="0px" y="0px"
	 viewBox="0 0 220.001 160" style="enable-background:new 0 0 220.001 160;" xml:space="preserve">
<g>
	<rect x="210.3" y="4.871" style="fill:#F9D5C2;" width="4.831" height="150.258"/>
	<path style="fill:#FF833D;" d="M216.305,0h-9.702H67.507h-9.702c-2.033,0-3.696,1.633-3.696,3.629v5.694
		c1.655,0.284,3.28,0.656,4.871,1.111V4.871h9.702h136.748v150.258H68.681H58.98V99.41c-1.591,0.455-3.215,0.827-4.871,1.111v55.85
		c0,1.996,1.663,3.629,3.696,3.629h9.702h139.097h9.702c2.033,0,3.696-1.633,3.696-3.629V3.629C220.001,1.633,218.338,0,216.305,0z
		 M215.13,155.129H210.3V4.871h4.831V155.129z"/>
	<path style="fill:#F9D5C2;" d="M185.604,128.625c-1.052-1.052-2.452-1.632-3.939-1.632s-2.886,0.579-3.939,1.632
		c-2.172,2.172-2.172,5.705,0,7.877c1.052,1.052,2.451,1.632,3.939,1.632s2.887-0.579,3.939-1.632
		C187.775,134.33,187.775,130.797,185.604,128.625z"/>
	<path style="fill:#F9D5C2;" d="M63.968,12.17v-1.658c0-0.429,0.327-0.781,0.727-0.781h135.178c0.4,0,0.727,0.351,0.727,0.781
		v105.117c0,0.429-0.327,0.781-0.727,0.781H64.695c-0.4,0-0.727-0.351-0.727-0.781V97.675c-1.618,0.672-3.285,1.248-4.989,1.735
		v55.719h9.702h136.748V4.871H68.681H58.98v5.564C60.684,10.922,62.35,11.498,63.968,12.17z M166.255,145.627l-102.279,0v-4.851
		l102.279,0V145.627z M166.255,135.814l-102.279,0v-4.851l102.279,0V135.814z M166.255,126.112l-102.279,0v-4.851l102.279,0V126.112
		z M192.081,146.423l-4.964-4.964c-1.626,1-3.495,1.546-5.452,1.546c-2.789,0-5.411-1.086-7.382-3.059
		c-1.972-1.972-3.058-4.594-3.058-7.382c0-2.788,1.085-5.41,3.058-7.382c1.971-1.972,4.593-3.059,7.382-3.059
		s5.411,1.086,7.383,3.059c3.477,3.477,3.974,8.812,1.511,12.832l4.966,4.965L192.081,146.423z"/>
	<path style="fill:#F9D5C2;" d="M195.729,111.539V14.602H68.944c14.076,7.945,23.607,23.036,23.607,40.319
		c0,17.327-9.578,32.451-23.712,40.381v16.237H195.729z M117.743,87.261c24.903,0,46.179-18.217,50.131-42.617l-2.436-0.203
		l5.539-7.98l4.143,8.786l-2.382-0.198c-4.173,26.93-27.579,47.083-54.996,47.083V87.261z M108.002,31.518h4.871v65.439l68.231,0
		v4.871l-73.098,0v0h-0.003V31.518z M93.392,74.35h4.871v32.425h-4.871V74.35z M83.651,89.696h4.871v17.08h-4.871V89.696z
		 M78.781,98.706v8.07H73.91v-8.07H78.781z"/>
	<path style="fill:#FF833D;" d="M64.695,116.41h135.178c0.4,0,0.727-0.351,0.727-0.781V10.512c0-0.429-0.327-0.781-0.727-0.781
		H64.695c-0.4,0-0.727,0.351-0.727,0.781v1.658c1.714,0.712,3.372,1.528,4.975,2.432h126.785v96.937H68.839V95.302
		c-1.57,0.881-3.195,1.676-4.871,2.372v17.955C63.968,116.059,64.295,116.41,64.695,116.41z"/>
	<path style="fill:#FF833D;" d="M189.048,125.181c-1.972-1.972-4.594-3.059-7.383-3.059s-5.411,1.086-7.382,3.059
		c-1.972,1.972-3.058,4.594-3.058,7.382c0,2.788,1.085,5.41,3.058,7.382c1.971,1.972,4.593,3.059,7.382,3.059
		c1.957,0,3.826-0.545,5.452-1.546l4.964,4.964l3.444-3.444l-4.966-4.965C193.021,133.993,192.525,128.658,189.048,125.181z
		 M177.726,136.502c-2.172-2.172-2.172-5.705,0-7.877c1.052-1.052,2.451-1.632,3.939-1.632s2.887,0.579,3.939,1.632
		c2.171,2.172,2.171,5.705,0,7.877c-1.052,1.052-2.452,1.632-3.939,1.632S178.778,137.554,177.726,136.502z"/>
	<rect x="63.976" y="140.776" style="fill:#FF833D;" width="102.279" height="4.851"/>
	<rect x="63.976" y="130.963" style="fill:#FF833D;" width="102.279" height="4.851"/>
	<rect x="63.976" y="121.262" style="fill:#FF833D;" width="102.279" height="4.851"/>
	<rect x="73.91" y="98.706" style="fill:#FF833D;" width="4.871" height="8.07"/>
	<rect x="83.652" y="89.696" style="fill:#FF833D;" width="4.871" height="17.08"/>
	<rect x="93.392" y="74.35" style="fill:#FF833D;" width="4.871" height="32.425"/>
	<polygon style="fill:#FF833D;" points="108.005,101.827 181.103,101.827 181.103,96.956 112.872,96.956 112.872,31.518 
		108.002,31.518 108.002,101.827 108.005,101.827 	"/>
	<path style="fill:#FF833D;" d="M172.739,45.049l2.382,0.198l-4.143-8.786l-5.539,7.98l2.436,0.203
		c-3.952,24.4-25.229,42.617-50.131,42.617v4.871C145.16,92.132,168.566,71.98,172.739,45.049z"/>
	<path style="fill:#A5DBFF;" d="M46.276,13.518c-22.831,0-41.405,18.574-41.405,41.404c0,22.831,18.574,41.405,41.405,41.405
		S87.68,77.753,87.68,54.922C87.68,32.092,69.107,13.518,46.276,13.518z M72.214,39.281L35.766,75.729l-15.43-15.43l3.444-3.444
		l11.986,11.986L68.77,35.837L72.214,39.281z"/>
	<path style="fill:#305CB3;" d="M58.98,99.41c1.704-0.487,3.371-1.063,4.989-1.735c1.676-0.696,3.3-1.491,4.871-2.372
		c14.134-7.929,23.712-23.054,23.712-40.381c0-17.283-9.531-32.374-23.607-40.319c-1.603-0.905-3.262-1.721-4.975-2.432
		c-1.618-0.672-3.285-1.248-4.989-1.735c-1.591-0.455-3.215-0.827-4.871-1.111c-2.548-0.436-5.163-0.677-7.833-0.677
		C20.759,8.647,0,29.406,0,54.922c0,25.517,20.759,46.276,46.276,46.276c2.671,0,5.285-0.24,7.833-0.677
		C55.764,100.237,57.389,99.865,58.98,99.41z M87.68,54.922c0,22.831-18.574,41.405-41.405,41.405S4.871,77.753,4.871,54.922
		c0-22.83,18.574-41.404,41.405-41.404S87.68,32.092,87.68,54.922z"/>
	<polygon style="fill:#305CB3;" points="35.766,68.842 23.78,56.856 20.337,60.299 35.766,75.729 72.214,39.281 68.77,35.837 	"/>
</g>
</svg>
