<?xml version="1.0" encoding="iso-8859-1"?>
<!-- Generator: Adobe Illustrator 18.0.0, SVG Export Plug-In . SVG Version: 6.00 Build 0)  -->
<!DOCTYPE svg PUBLIC "-//W3C//DTD SVG 1.1//EN" "http://www.w3.org/Graphics/SVG/1.1/DTD/svg11.dtd">
<svg version="1.1" id="Layer_1" xmlns="http://www.w3.org/2000/svg" xmlns:xlink="http://www.w3.org/1999/xlink" x="0px" y="0px"
	 viewBox="0 0 296 160" style="enable-background:new 0 0 296 160;" xml:space="preserve">
<g>
	<path style="fill:#F9D5C2;" d="M232.942,121.228v-0.1h-18.782v-4.849h18.782v-4.849h-18.782v-4.849h18.782V82.44h-24.244v72.71
		h53.344v-33.923H232.942z M256.58,130.827h-42.42v-4.849h42.42V130.827z"/>
	<rect x="214.161" y="125.978" style="fill:#FF833D;" width="42.42" height="4.849"/>
	<path style="fill:#F9D5C2;" d="M232.942,53.267h-18.782v-4.849h18.782v-4.849h-18.782v-4.849h42.42v0.068h5.462V4.849h-53.344
		v72.741h24.244V53.267z M214.161,29.02h42.42v4.849h-42.42V29.02z"/>
	<rect x="214.161" y="29.02" style="fill:#FF833D;" width="42.42" height="4.849"/>
	<polygon style="fill:#FF833D;" points="184.521,29.02 179.671,29.02 179.671,77.507 165.123,77.507 165.123,82.356 179.671,82.356 
		179.671,130.827 179.672,130.827 179.672,130.827 199.069,130.827 199.069,125.978 184.521,125.978 184.521,82.356 184.521,77.507 
		184.521,33.87 199.069,33.87 199.069,29.02 184.521,29.02 	"/>
	<path style="fill:#F9D5C2;" d="M237.792,43.637v72.741h53.344V43.637H237.792z M285.673,92.055h-42.419v-4.849h42.419V92.055z
		 M285.673,82.356h-42.419v-4.849h42.419V82.356z M285.673,72.657h-42.419v-4.849h42.419V72.657z"/>
	<path style="fill:#FF833D;" d="M295.985,38.787h-29.094V0h-63.043v77.56v4.881V160h63.043v-38.772h29.094V38.787z M291.136,116.378
		h-53.344V43.637h53.344V116.378z M208.698,155.151V82.44h24.244v24.139h-18.782v4.849h18.782v4.849h-18.782v4.849h18.782v0.1
		h29.099v33.923H208.698z M208.698,4.849h53.344v33.938h-5.462v-0.068h-42.42v4.849h18.782v4.849h-18.782v4.849h18.782v24.324
		h-24.244V4.849z"/>
	<rect x="243.254" y="67.808" style="fill:#FF833D;" width="42.419" height="4.849"/>
	<rect x="243.254" y="77.507" style="fill:#FF833D;" width="42.419" height="4.849"/>
	<rect x="243.254" y="87.206" style="fill:#FF833D;" width="42.419" height="4.849"/>
	<rect x="0.015" y="67.808" style="fill:#FF833D;" width="42.419" height="4.849"/>
	<rect x="0.015" y="77.507" style="fill:#FF833D;" width="42.419" height="4.849"/>
	<rect x="0.015" y="87.206" style="fill:#FF833D;" width="42.419" height="4.849"/>
	<path style="fill:#A5DBFF;" d="M51.999,94.254v5.155c33.906,7.648,69.369,7.649,103.277,0v-5.156
		c-17.001,3.443-34.355,5.208-51.642,5.208C86.35,99.461,68.997,97.695,51.999,94.254z"/>
	<path style="fill:#A5DBFF;" d="M51.999,62.887v5.155c33.906,7.649,69.369,7.649,103.277,0v-5.156
		c-17.001,3.443-34.356,5.209-51.643,5.209C86.349,68.095,68.996,66.329,51.999,62.887z"/>
	<path style="fill:#A5DBFF;" d="M57.907,37.935c30.128,5.979,61.334,5.979,91.463-0.001C119.193,32.447,88.086,32.449,57.907,37.935
		z"/>
	<path style="fill:#305CB3;" d="M103.641,28.94c-18.281,0-36.643,1.95-54.575,5.797l-1.916,0.411v0.421v4.391v21.507v0.421v5.047
		v26.319v5.047v26.319l1.916,0.411c17.93,3.846,36.288,5.796,54.567,5.796h0.002c18.279,0,36.641-1.951,54.574-5.798l1.916-0.411
		V98.301v-5.049V66.935v-5.049v-0.42V39.96v-4.391v-0.422l-1.916-0.411C140.279,30.89,121.919,28.94,103.641,28.94z M57.907,37.935
		c30.179-5.486,61.286-5.488,91.463-0.001C119.241,43.913,88.035,43.913,57.907,37.935z M51.999,41.666
		c33.929,7.493,69.348,7.493,103.277,0v4.391v9.313v2.59c-33.98,7.017-69.3,7.017-103.277,0.001v-2.591v-9.313V41.666z
		 M51.999,89.327V73.032c33.929,7.494,69.348,7.494,103.277,0v16.294C121.298,96.342,85.975,96.343,51.999,89.327z M155.276,120.692
		c-33.98,7.017-69.3,7.017-103.277,0.001v-16.295c33.929,7.493,69.348,7.493,103.277,0V120.692z M155.276,99.409
		c-33.907,7.649-69.371,7.648-103.277,0v-5.155c16.998,3.442,34.351,5.207,51.635,5.207c17.286,0,34.641-1.766,51.642-5.208V99.409z
		 M155.276,68.042c-33.907,7.649-69.371,7.649-103.277,0v-5.155c16.997,3.442,34.35,5.207,51.634,5.207
		c17.286,0,34.642-1.766,51.643-5.209V68.042z"/>
	<path style="fill:#A5DBFF;" d="M155.276,73.032c-33.929,7.494-69.348,7.494-103.277,0v16.295
		c33.976,7.016,69.299,7.015,103.277-0.001V73.032z"/>
	<path style="fill:#A5DBFF;" d="M51.999,104.398v16.295c33.976,7.016,69.297,7.015,103.277-0.001v-16.293
		C121.347,111.892,85.928,111.892,51.999,104.398z"/>
	<path style="fill:#A5DBFF;" d="M51.999,55.369v2.591c33.976,7.016,69.297,7.015,103.277-0.001v-2.59v-9.313v-4.391
		c-33.929,7.493-69.348,7.493-103.277,0v4.391V55.369z"/>
</g>
</svg>
