<?xml version="1.0" encoding="iso-8859-1"?>
<!-- Generator: Adobe Illustrator 18.0.0, SVG Export Plug-In . SVG Version: 6.00 Build 0)  -->
<!DOCTYPE svg PUBLIC "-//W3C//DTD SVG 1.1//EN" "http://www.w3.org/Graphics/SVG/1.1/DTD/svg11.dtd">
<svg version="1.1" id="Layer_1" xmlns="http://www.w3.org/2000/svg" xmlns:xlink="http://www.w3.org/1999/xlink" x="0px" y="0px"
	 viewBox="0 0 280 160" style="enable-background:new 0 0 280 160;" xml:space="preserve">
<g>
	<polygon style="fill:#F9D5C2;" points="6.548,25.029 25.144,25.029 25.144,5.01 	"/>
	<polygon style="fill:#F9D5C2;" points="49.555,107.888 14.693,107.888 14.693,103.018 49.555,103.018 49.555,93.206 14.693,93.206 
		14.693,88.336 49.555,88.336 49.555,78.524 14.693,78.524 14.693,73.653 49.555,73.653 49.555,63.842 14.693,63.842 14.693,58.971 
		49.555,58.971 49.555,49.231 14.693,49.231 14.693,44.361 49.555,44.361 49.555,24.799 68.066,4.87 30.014,4.87 30.014,29.9 
		4.985,29.9 4.985,132.696 49.555,132.696 	"/>
	<polygon style="fill:#F9D5C2;" points="74.584,5.008 55.988,25.029 74.584,25.029 	"/>
	<polygon style="fill:#F9D5C2;" points="98.994,107.888 89.938,107.888 64.133,107.888 64.133,103.018 89.938,103.018 
		98.994,103.018 98.994,93.206 89.938,93.206 64.133,93.206 64.133,88.336 89.938,88.336 98.994,88.336 98.994,78.524 
		89.938,78.524 64.133,78.524 64.133,73.653 89.938,73.653 98.994,73.653 98.994,63.842 89.938,63.842 64.133,63.842 64.133,58.971 
		89.938,58.971 98.994,58.971 98.994,49.231 89.938,49.231 64.133,49.231 64.133,44.361 89.938,44.361 98.994,44.361 98.994,24.799 
		117.506,4.87 99.637,4.87 79.455,4.87 79.455,29.9 54.425,29.9 54.425,132.696 98.994,132.696 	"/>
	<polygon style="fill:#F9D5C2;" points="149.077,4.87 128.894,4.87 128.894,29.9 103.865,29.9 103.865,132.696 148.341,132.696 
		148.341,107.888 139.378,107.888 113.573,107.888 113.573,103.018 139.378,103.018 148.341,103.018 148.341,93.206 139.378,93.206 
		113.573,93.206 113.573,88.336 139.378,88.336 148.341,88.336 148.341,78.524 139.378,78.524 113.573,78.524 113.573,73.653 
		139.378,73.653 148.341,73.653 148.341,63.842 139.378,63.842 113.573,63.842 113.573,58.971 139.378,58.971 148.341,58.971 
		148.341,49.231 139.378,49.231 113.573,49.231 113.573,44.361 139.378,44.361 150.998,44.361 171.261,22.434 198.517,22.434 
		198.517,4.87 	"/>
	<polygon style="fill:#F9D5C2;" points="105.428,25.029 124.024,25.029 124.024,5.01 	"/>
	<path style="fill:#FF833D;" d="M148.341,132.696h-44.476V29.9h25.029V4.87h20.183h49.44v17.563h4.87V0h-49.44H122.03h-17.523H72.59
		H23.15L0.114,24.799v112.767h49.44h49.44h5.512h43.834V132.696z M4.985,29.9h25.029V4.87h38.052L49.555,24.799v19.561H14.693v4.87
		h34.862v9.74H14.693v4.87h34.862v9.812H14.693v4.87h34.862v9.812H14.693v4.87h34.862v9.812H14.693v4.87h34.862v24.808H4.985V29.9z
		 M6.548,25.029L25.144,5.01v20.02H6.548z M74.584,5.008v20.021H55.988L74.584,5.008z M54.425,29.9h25.029V4.87h20.182h17.87
		L98.994,24.799v19.561h-9.057H64.133v4.87h25.805h9.057v9.74h-9.057H64.133v4.87h25.805h9.057v9.812h-9.057H64.133v4.87h25.805
		h9.057v9.812h-9.057H64.133v4.87h25.805h9.057v9.812h-9.057H64.133v4.87h25.805h9.057v24.808H54.425V29.9z M105.428,25.029
		l18.596-20.02v20.02H105.428z"/>
	<polygon style="fill:#FF833D;" points="139.378,44.361 113.573,44.361 113.573,49.231 139.378,49.231 148.341,49.231 
		148.341,47.237 150.998,44.361 	"/>
	<polygon style="fill:#FF833D;" points="113.573,58.971 113.573,63.842 139.378,63.842 148.341,63.842 148.341,58.971 
		139.378,58.971 	"/>
	<polygon style="fill:#FF833D;" points="113.573,73.653 113.573,78.524 139.378,78.524 148.341,78.524 148.341,73.653 
		139.378,73.653 	"/>
	<polygon style="fill:#FF833D;" points="113.573,88.336 113.573,93.206 139.378,93.206 148.341,93.206 148.341,88.336 
		139.378,88.336 	"/>
	<polygon style="fill:#FF833D;" points="113.573,103.018 113.573,107.888 139.378,107.888 148.341,107.888 148.341,103.018 
		139.378,103.018 	"/>
	<path style="fill:#A5DBFF;" d="M228.49,51.41c-6.585-6.585-9.476-15.487-8.674-24.106h-41.704v25.585h-24.901V155.13h94.139V60.126
		C240.224,59.559,233.599,56.52,228.49,51.41z M237.351,125.247c-4.137,0-6.072,0.814-8.313,1.758
		c-2.382,1.002-5.081,2.138-10.202,2.138s-7.82-1.137-10.202-2.139c-2.24-0.943-4.175-1.757-8.312-1.757s-6.072,0.814-8.312,1.758
		c-2.382,1.002-5.08,2.138-10.2,2.138c-5.119,0-7.819-1.137-10.2-2.139c-2.24-0.943-4.175-1.757-8.311-1.757v-4.87
		c5.119,0,7.819,1.137,10.2,2.139c2.24,0.943,4.175,1.757,8.311,1.757s6.071-0.814,8.311-1.757
		c2.382-1.003,5.081-2.139,10.201-2.139c5.119,0,7.819,1.137,10.201,2.138c2.24,0.944,4.176,1.758,8.313,1.758
		s6.072-0.814,8.313-1.758c2.382-1.002,5.081-2.138,10.202-2.138V125.247z M237.351,111.479c-4.137,0-6.073,0.814-8.313,1.757
		c-2.382,1.003-5.081,2.138-10.202,2.138s-7.82-1.136-10.202-2.138c-2.24-0.943-4.175-1.757-8.312-1.757s-6.072,0.814-8.312,1.757
		c-2.382,1.003-5.08,2.138-10.2,2.138c-5.119,0-7.819-1.136-10.2-2.138c-2.24-0.943-4.175-1.757-8.311-1.757v-4.87
		c5.119,0,7.819,1.136,10.2,2.139c2.24,0.943,4.175,1.757,8.311,1.757s6.071-0.814,8.311-1.757
		c2.382-1.003,5.081-2.139,10.201-2.139c5.119,0,7.819,1.136,10.201,2.138c2.24,0.943,4.176,1.757,8.313,1.757
		s6.073-0.814,8.313-1.757c2.382-1.002,5.081-2.138,10.202-2.138V111.479z M237.351,97.71c-4.137,0-6.072,0.814-8.313,1.757
		c-2.382,1.003-5.081,2.139-10.202,2.139s-7.82-1.136-10.202-2.139c-2.24-0.943-4.175-1.757-8.312-1.757s-6.072,0.814-8.312,1.757
		c-2.382,1.003-5.08,2.139-10.2,2.139c-5.119,0-7.819-1.136-10.2-2.139c-2.24-0.943-4.175-1.757-8.311-1.757v-4.87
		c5.119,0,7.819,1.136,10.2,2.139c2.24,0.943,4.175,1.757,8.311,1.757s6.071-0.814,8.311-1.757
		c2.382-1.003,5.081-2.139,10.201-2.139c5.119,0,7.819,1.136,10.201,2.139c2.24,0.943,4.176,1.757,8.313,1.757
		s6.072-0.814,8.313-1.757c2.382-1.003,5.081-2.139,10.202-2.139V97.71z M237.351,83.941c-4.137,0-6.072,0.814-8.313,1.757
		c-2.382,1.003-5.081,2.139-10.202,2.139s-7.82-1.136-10.202-2.139c-2.24-0.943-4.175-1.757-8.312-1.757s-6.072,0.814-8.312,1.757
		c-2.382,1.003-5.08,2.139-10.2,2.139c-5.119,0-7.819-1.136-10.2-2.139c-2.24-0.943-4.175-1.757-8.311-1.757v-4.87
		c5.119,0,7.819,1.136,10.2,2.139c2.24,0.943,4.175,1.757,8.311,1.757s6.071-0.814,8.311-1.757
		c2.382-1.003,5.081-2.139,10.201-2.139c5.119,0,7.819,1.136,10.201,2.139c2.24,0.943,4.176,1.757,8.313,1.757
		s6.072-0.814,8.313-1.757c2.382-1.003,5.081-2.139,10.202-2.139V83.941z M237.351,70.172c-4.137,0-6.072,0.814-8.313,1.757
		c-2.382,1.003-5.081,2.139-10.202,2.139s-7.82-1.136-10.202-2.139c-2.24-0.943-4.175-1.757-8.312-1.757s-6.072,0.814-8.312,1.757
		c-2.382,1.003-5.08,2.139-10.2,2.139c-5.119,0-7.819-1.136-10.2-2.139c-2.24-0.943-4.175-1.757-8.311-1.757v-4.87
		c5.119,0,7.819,1.136,10.2,2.139c2.24,0.943,4.175,1.757,8.311,1.757s6.071-0.814,8.311-1.757
		c2.382-1.003,5.081-2.139,10.201-2.139c5.119,0,7.819,1.136,10.201,2.139c2.24,0.943,4.176,1.757,8.313,1.757
		s6.072-0.814,8.313-1.757c2.382-1.003,5.081-2.139,10.202-2.139V70.172z"/>
	<polygon style="fill:#A5DBFF;" points="154.25,48.018 173.242,48.018 173.242,27.466 	"/>
	<path style="fill:#A5DBFF;" d="M267.636,47.967c9.842-9.843,9.842-25.859,0-35.703c-4.768-4.768-11.107-7.394-17.851-7.394
		c-6.744,0-13.083,2.626-17.852,7.394c-9.842,9.843-9.842,25.859,0,35.703c4.768,4.768,11.107,7.394,17.852,7.394
		C256.528,55.36,262.867,52.735,267.636,47.967z M249.785,33.559l-8.065,8.065l-3.443-3.443l8.065-8.065l-8.065-8.065l3.443-3.443
		l8.065,8.065l8.065-8.065l3.443,3.443l-8.065,8.065l8.065,8.065l-3.443,3.443L249.785,33.559z"/>
	<path style="fill:#305CB3;" d="M271.079,8.821C265.392,3.132,257.829,0,249.785,0c-8.044,0-15.608,3.132-21.295,8.821
		c-3.904,3.904-6.502,8.623-7.809,13.613h-17.294h-4.87h-27.255l-20.263,21.927l-2.658,2.876v1.994v9.74v4.87v9.812v4.87v9.812v4.87
		v9.812v4.87v24.808v4.87V160h103.88V60.126c7.125-0.567,13.75-3.606,18.859-8.716C282.821,39.668,282.821,20.562,271.079,8.821z
		 M153.211,155.13V52.889h24.901V27.304h41.704c-0.801,8.62,2.089,17.521,8.674,24.106c5.109,5.11,11.734,8.149,18.86,8.716v95.004
		H153.211z M173.242,48.018H154.25l18.992-20.552V48.018z M231.934,47.967c-9.842-9.843-9.842-25.859,0-35.703
		c4.768-4.768,11.107-7.394,17.852-7.394c6.743,0,13.082,2.626,17.851,7.394c9.842,9.843,9.842,25.859,0,35.703
		c-4.768,4.768-11.107,7.394-17.851,7.394C243.041,55.36,236.702,52.735,231.934,47.967z"/>
	<polygon style="fill:#305CB3;" points="257.85,41.623 261.293,38.18 253.228,30.115 261.293,22.051 257.85,18.607 249.785,26.672 
		241.72,18.607 238.276,22.051 246.341,30.115 238.276,38.18 241.72,41.623 249.785,33.559 	"/>
	<path style="fill:#305CB3;" d="M218.836,69.198c-4.137,0-6.073-0.814-8.313-1.757c-2.382-1.003-5.081-2.139-10.201-2.139
		c-5.119,0-7.819,1.136-10.201,2.139c-2.24,0.943-4.175,1.757-8.311,1.757s-6.071-0.814-8.311-1.757
		c-2.381-1.003-5.08-2.139-10.2-2.139v4.87c4.136,0,6.071,0.814,8.311,1.757c2.381,1.003,5.08,2.139,10.2,2.139
		c5.119,0,7.818-1.136,10.2-2.139c2.24-0.943,4.175-1.757,8.312-1.757s6.072,0.814,8.312,1.757
		c2.382,1.003,5.081,2.139,10.202,2.139s7.82-1.136,10.202-2.139c2.241-0.943,4.176-1.757,8.313-1.757v-4.87
		c-5.12,0-7.82,1.136-10.202,2.139C224.908,68.383,222.973,69.198,218.836,69.198z"/>
	<path style="fill:#305CB3;" d="M218.836,82.967c-4.137,0-6.073-0.814-8.313-1.757c-2.382-1.003-5.081-2.139-10.201-2.139
		c-5.119,0-7.819,1.136-10.201,2.139c-2.24,0.943-4.175,1.757-8.311,1.757s-6.071-0.814-8.311-1.757
		c-2.381-1.003-5.08-2.139-10.2-2.139v4.87c4.136,0,6.071,0.814,8.311,1.757c2.381,1.003,5.08,2.139,10.2,2.139
		c5.119,0,7.818-1.136,10.2-2.139c2.24-0.943,4.175-1.757,8.312-1.757s6.072,0.814,8.312,1.757
		c2.382,1.003,5.081,2.139,10.202,2.139s7.82-1.136,10.202-2.139c2.241-0.943,4.176-1.757,8.313-1.757v-4.87
		c-5.12,0-7.82,1.136-10.202,2.139C224.908,82.152,222.973,82.967,218.836,82.967z"/>
	<path style="fill:#305CB3;" d="M218.836,96.735c-4.137,0-6.073-0.814-8.313-1.757c-2.382-1.003-5.081-2.139-10.201-2.139
		c-5.119,0-7.819,1.136-10.201,2.139c-2.24,0.943-4.175,1.757-8.311,1.757s-6.071-0.814-8.311-1.757
		c-2.381-1.003-5.08-2.139-10.2-2.139v4.87c4.136,0,6.071,0.814,8.311,1.757c2.381,1.003,5.08,2.139,10.2,2.139
		c5.119,0,7.818-1.136,10.2-2.139c2.24-0.943,4.175-1.757,8.312-1.757s6.072,0.814,8.312,1.757
		c2.382,1.003,5.081,2.139,10.202,2.139s7.82-1.136,10.202-2.139c2.241-0.943,4.176-1.757,8.313-1.757v-4.87
		c-5.12,0-7.82,1.136-10.202,2.139C224.908,95.921,222.973,96.735,218.836,96.735z"/>
	<path style="fill:#305CB3;" d="M218.836,110.504c-4.137,0-6.073-0.814-8.313-1.757c-2.382-1.002-5.081-2.138-10.201-2.138
		c-5.119,0-7.819,1.136-10.201,2.139c-2.24,0.943-4.175,1.757-8.311,1.757s-6.071-0.814-8.311-1.757
		c-2.381-1.003-5.08-2.139-10.2-2.139v4.87c4.136,0,6.071,0.814,8.311,1.757c2.381,1.003,5.08,2.138,10.2,2.138
		c5.119,0,7.818-1.136,10.2-2.138c2.24-0.943,4.175-1.757,8.312-1.757s6.072,0.814,8.312,1.757
		c2.382,1.003,5.081,2.138,10.202,2.138s7.82-1.136,10.202-2.138c2.24-0.943,4.176-1.757,8.313-1.757v-4.87
		c-5.12,0-7.82,1.136-10.202,2.138C224.909,109.69,222.973,110.504,218.836,110.504z"/>
	<path style="fill:#305CB3;" d="M218.836,124.273c-4.137,0-6.073-0.814-8.313-1.758c-2.382-1.002-5.081-2.138-10.201-2.138
		c-5.119,0-7.819,1.137-10.201,2.139c-2.24,0.943-4.175,1.757-8.311,1.757s-6.071-0.814-8.311-1.757
		c-2.381-1.003-5.08-2.139-10.2-2.139v4.87c4.136,0,6.071,0.814,8.311,1.757c2.381,1.003,5.08,2.139,10.2,2.139
		c5.119,0,7.818-1.137,10.2-2.138c2.24-0.944,4.175-1.758,8.312-1.758s6.072,0.814,8.312,1.757
		c2.382,1.003,5.081,2.139,10.202,2.139s7.82-1.137,10.202-2.138c2.241-0.944,4.176-1.758,8.313-1.758v-4.87
		c-5.12,0-7.82,1.137-10.202,2.138C224.908,123.459,222.973,124.273,218.836,124.273z"/>
</g>
</svg>
