<?xml version="1.0" encoding="iso-8859-1"?>
<!-- Generator: Adobe Illustrator 18.0.0, SVG Export Plug-In . SVG Version: 6.00 Build 0)  -->
<!DOCTYPE svg PUBLIC "-//W3C//DTD SVG 1.1//EN" "http://www.w3.org/Graphics/SVG/1.1/DTD/svg11.dtd">
<svg version="1.1" id="Layer_1" xmlns="http://www.w3.org/2000/svg" xmlns:xlink="http://www.w3.org/1999/xlink" x="0px" y="0px"
	 viewBox="0 0 223 160" style="enable-background:new 0 0 223 160;" xml:space="preserve">
<g>
	<rect x="5.023" y="150.104" style="fill:#A5DBFF;" width="160.6" height="4.77"/>
	<rect x="5.023" y="141.133" style="fill:#A5DBFF;" width="160.6" height="4.181"/>
	<path style="fill:#A5DBFF;" d="M96.067,88.684c0-7.162-4.074-12.265-11.281-12.265h-6.983v24.62h6.983
		C92.128,101.039,96.067,95.712,96.067,88.684z"/>
	<path style="fill:#A5DBFF;" d="M63.437,82.999c0-3.76-2.685-6.58-5.774-6.58h-8.998v13.205h9.267
		C61.244,89.624,63.437,86.625,63.437,82.999z"/>
	<path style="fill:#A5DBFF;" d="M5.023,136.267h160.6V77.261c-8.519-0.815-16.422-4.525-22.551-10.654
		c-6.382-6.381-10.132-14.687-10.731-23.607H5.023V136.267z M107.255,72.837h20.994v3.581h-16.966v10.609h14.28v3.357h-14.28v14.235
		h-4.028V72.837z M73.775,72.837h11.012c10.206,0,15.354,7.073,15.354,15.846c0,9.625-5.998,15.936-15.354,15.936H73.775V72.837z
		 M57.887,72.837c5.595,0,9.624,5.148,9.624,10.161c0,5.237-3.76,10.206-9.356,10.206h-9.49v11.415h-4.028V72.837H57.887z"/>
	<path style="fill:#A5DBFF;" d="M56.396,28.36V4.867H5.023v33.266h127.304c0.209-3.368,0.866-6.648,1.947-9.773H56.396z"/>
	<path style="fill:#305CB3;" d="M169.208,77.433c-1.205,0-2.401-0.059-3.585-0.173v59.006H5.023V42.999H132.34
		c-0.056-0.839-0.095-1.681-0.095-2.53c0-0.784,0.033-1.562,0.081-2.337H5.023V4.867h51.373V28.36h77.877
		c0.578-1.671,1.277-3.296,2.091-4.867H61.262V0H0.156v8.76h0v141.345V160h170.333v-9.896v-8.971h0V77.402
		C170.063,77.417,169.637,77.433,169.208,77.433z M165.623,154.875H5.022v-4.77h160.6V154.875z M165.623,145.315H5.022v-4.181h160.6
		V145.315z"/>
	<path style="fill:#305CB3;" d="M48.665,104.62V93.205h9.49c5.596,0,9.356-4.969,9.356-10.206c0-5.014-4.029-10.161-9.624-10.161
		h-13.25v31.782H48.665z M48.665,76.419h8.998c3.089,0,5.774,2.82,5.774,6.58c0,3.626-2.193,6.625-5.505,6.625h-9.267V76.419z"/>
	<path style="fill:#305CB3;" d="M100.14,88.684c0-8.773-5.148-15.846-15.354-15.846H73.775v31.782h11.012
		C94.143,104.62,100.14,98.308,100.14,88.684z M77.803,76.419h6.983c7.207,0,11.281,5.103,11.281,12.265
		c0,7.028-3.94,12.355-11.281,12.355h-6.983V76.419z"/>
	<polygon style="fill:#305CB3;" points="111.283,90.385 125.563,90.385 125.563,87.027 111.283,87.027 111.283,76.419 
		128.249,76.419 128.249,72.837 107.255,72.837 107.255,104.62 111.283,104.62 	"/>
	<path style="fill:#F9D5C2;" d="M169.208,72.567c8.574,0,16.633-3.339,22.696-9.401s9.401-14.122,9.401-22.696
		s-3.338-16.633-9.401-22.696s-14.122-9.401-22.696-9.401c-8.573,0-16.633,3.339-22.696,9.401s-9.401,14.122-9.401,22.696
		s3.338,16.633,9.401,22.696S160.635,72.567,169.208,72.567z M190.493,52.637h-42.57V47.77h42.57V52.637z M147.923,28.303h42.57
		v4.867h-42.57V28.303z M147.923,38.037h42.57v4.867h-42.57V38.037z"/>
	<path style="fill:#FF833D;" d="M219.403,94.445l3.441-3.441l-25.999-25.998c6.026-6.77,9.326-15.398,9.326-24.536
		c0-9.873-3.845-19.155-10.826-26.136c-6.981-6.982-16.262-10.827-26.136-10.827c-9.873,0-19.155,3.845-26.136,10.827
		c-2.734,2.733-4.979,5.823-6.708,9.16c-0.814,1.571-1.513,3.196-2.091,4.867c-1.08,3.125-1.738,6.405-1.947,9.773
		c-0.048,0.775-0.081,1.554-0.081,2.337c0,0.849,0.039,1.691,0.095,2.53c0.6,8.92,4.35,17.226,10.731,23.607
		c6.129,6.129,14.032,9.839,22.551,10.654c1.184,0.113,2.38,0.173,3.585,0.173c0.429,0,0.855-0.017,1.281-0.031
		c8.501-0.288,16.497-3.435,22.89-8.98L219.403,94.445z M137.112,40.47c0-8.573,3.338-16.633,9.401-22.696
		s14.123-9.401,22.696-9.401c8.574,0,16.633,3.339,22.696,9.401s9.401,14.122,9.401,22.696s-3.338,16.633-9.401,22.696
		s-14.122,9.401-22.696,9.401c-8.573,0-16.633-3.339-22.696-9.401S137.112,49.043,137.112,40.47z"/>
	<rect x="147.923" y="28.303" style="fill:#FF833D;" width="42.57" height="4.867"/>
	<rect x="147.923" y="38.037" style="fill:#FF833D;" width="42.57" height="4.867"/>
	<rect x="147.923" y="47.77" style="fill:#FF833D;" width="42.57" height="4.867"/>
</g>
</svg>
